{
.appVersion = "983";
copyright = "Copyright (c) 2010 - 2013, Matt McInerney (matt@pixelspread.com), Pablo Impallari (impallari@gmail.com), Rodrigo Fuenzalida (hello@rfuenzalida.com) with Reserved Font Name \"Raleway\"";
customParameters = (
{
name = description;
value = "Raleway is an elegant sans-serif typeface family. Initially designed by Matt McInerney as a single thin weight, it was expanded into a 9 weight family by Pablo Impallari and Rodrigo Fuenzalida in 2012 and iKerned by Igino Marini. It is a display face and the download features both old style and lining numerals, standard and discretionary ligatures, a pretty complete set of diacritics, as well as a stylistic alternate inspired by more geometric sans-serif typefaces than its neo-grotesque inspired default character set.";
},
{
name = license;
value = "This Font Software is licensed under the SIL Open Font License, Version 1.1. This license is available with a FAQ at: http://scripts.sil.org/OFL";
},
{
name = licenseURL;
value = "http://scripts.sil.org/OFL";
},
{
name = panose;
value = (
2,
11,
2,
3,
3,
1,
1,
6,
0,
3
);
},
{
name = unicodeRanges;
value = (
0,
1,
2,
3,
4,
5,
6,
7,
9,
29,
31,
32,
33,
35,
36,
38,
45,
60,
62
);
},
{
name = codePageRanges;
value = (
1252,
1250,
1251,
1254,
1257
);
},
{
name = glyphOrder;
value = (
.notdef,
NULL,
uni000D,
space,
exclam,
quotedbl,
numbersign,
dollar,
percent,
ampersand,
quotesingle,
parenleft,
parenright,
asterisk,
plus,
comma,
hyphen,
period,
slash,
zero,
one,
two,
three,
four,
five,
six,
seven,
eight,
nine,
colon,
semicolon,
less,
equal,
greater,
question,
at,
A,
B,
C,
D,
E,
F,
G,
H,
I,
J,
K,
L,
M,
N,
O,
P,
Q,
R,
S,
T,
U,
V,
W,
X,
Y,
Z,
bracketleft,
backslash,
bracketright,
asciicircum,
underscore,
grave,
a,
b,
c,
d,
e,
f,
g,
h,
i,
j,
k,
l,
m,
n,
o,
p,
q,
r,
s,
t,
u,
v,
w,
x,
y,
z,
braceleft,
bar,
braceright,
asciitilde,
uni00A0,
exclamdown,
cent,
sterling,
currency,
yen,
brokenbar,
section,
dieresis,
copyright,
ordfeminine,
guillemotleft,
logicalnot,

glyphs = (
{
glyphname = exclam;
lastChange = "2017-05-18 07:11:10 +0000";
layers = (
{
layerId = "2CA66E5A-B467-404E-84AC-20A403DD408D";
paths = (
{
closed = 1;
nodes = (
"124 717 LINE",
"104 717 LINE",
"104 200 LINE",
"124 200 LINE"
);
},
{
closed = 1;
nodes = (
"124 84 LINE",
"104 84 LINE",
"104 0 LINE",
"124 0 LINE"
);
}
);
width = 228;
}
);
leftKerningGroup = exclam;
note = exclam;
unicode = 0021;
},
{
glyphname = quotedbl;
lastChange = "2017-05-18 07:11:10 +0000";
layers = (
{
layerId = "2CA66E5A-B467-404E-84AC-20A403DD408D";
paths = (
{
closed = 1;
nodes = (
"93 710 LINE",
"73 710 LINE",
"73 570 LINE",
"93 570 LINE"
);
},
{
closed = 1;
nodes = (
"143 710 LINE",
"123 710 LINE",
"123 570 LINE",
"143 570 LINE"
);
}
);
width = 216;
}
);
leftKerningGroup = quotedbl;
note = quotedbl;
rightKerningGroup = quotedbl;
unicode = 0022;
},
{
glyphname = numbersign;
lastChange = "2017-05-18 07:11:10 +0000";
layers = (
{
layerId = "2CA66E5A-B467-404E-84AC-20A403DD408D";
paths = (
{
closed = 1;
nodes = (
"499 501 LINE",
"551 710 LINE",
"530 710 LINE",
"479 501 LINE",
"239 501 LINE",
"291 710 LINE",
"270 710 LINE",
"219 501 LINE",
"78 501 LINE",
"78 481 LINE",
"214 481 LINE",
"156 241 LINE",
"38 241 LINE",
"38 221 LINE",
"151 221 LINE",
"97 0 LINE",
"118 0 LINE",
"171 221 LINE",
"411 221 LINE",
"357 0 LINE",
"378 0 LINE",
"431 221 LINE",
"572 221 LINE",
"572 241 LINE",
"436 241 LINE",
"494 481 LINE",
"612 481 LINE",
"612 501 LINE"
);
},
{
closed = 1;
nodes = (
"234 481 LINE",
"474 481 LINE",
"416 241 LINE",
"176 241 LINE"
);
}
);
width = 650;
}
);
note = numbersign;
unicode = 0023;
},
{
glyphname = dollar;
lastChange = "2017-05-18 07:11:10 +0000";
layers = (
{
layerId = "2CA66E5A-B467-404E-84AC-20A403DD408D";
paths = (
{
closed = 1;
nodes = (
"473 690 OFFCURVE",
"409 714 OFFCURVE",
"320 715 CURVE",
"320 815 LINE",
"300 815 LINE",
"300 714 LINE",
"159 709 OFFCURVE",
"70 643 OFFCURVE",
"70 524 CURVE SMOOTH",
"70 467 OFFCURVE",
"90 431 OFFCURVE",
"130 405 CURVE SMOOTH",
"169 379 OFFCURVE",
"225 364 OFFCURVE",
"300 349 CURVE",
"300 12 LINE",
"203 17 OFFCURVE",
"129 49 OFFCURVE",
"61 118 CURVE",
"46 105 LINE",
"118 34 OFFCURVE",
"196 0 OFFCURVE",
"300 -4 CURVE",
"300 -93 LINE",
"320 -93 LINE",
"320 -5 LINE",
"322 -5 LINE SMOOTH",
"478 -5 OFFCURVE",
"572 58 OFFCURVE",
"572 174 CURVE SMOOTH",
"572 235 OFFCURVE",
"548 275 OFFCURVE",
"504 303 CURVE SMOOTH",
"460 331 OFFCURVE",
"397 347 OFFCURVE",
"320 363 CURVE",
"320 696 LINE",
"404 696 OFFCURVE",
"460 677 OFFCURVE",
"516 616 CURVE",
"529 630 LINE"
);
},
{
closed = 1;
nodes = (
"552 64 OFFCURVE",
"464 12 OFFCURVE",
"323 12 CURVE SMOOTH",
"320 12 LINE",
"320 345 LINE",
"400 329 OFFCURVE",
"458 312 OFFCURVE",
"496 286 CURVE SMOOTH",
"534 260 OFFCURVE",
"552 223 OFFCURVE",
"552 171 CURVE SMOOTH"
);
},
{
closed = 1;
nodes = (
"90 575 OFFCURVE",
"106 616 OFFCURVE",
"140 645 CURVE SMOOTH",
"174 674 OFFCURVE",
"225 692 OFFCURVE",
"300 695 CURVE",
"300 368 LINE",
"225 384 OFFCURVE",
"174 398 OFFCURVE",
"140 422 CURVE SMOOTH",
"106 445 OFFCURVE",
"90 477 OFFCURVE",
"90 526 CURVE SMOOTH"
);
}
);
width = 613;
}
);
note = dollar;
unicode = 0024;
},
{
glyphname = percent;
lastChange = "2017-05-18 07:11:10 +0000";
layers = (
{
layerId = "2CA66E5A-B467-404E-84AC-20A403DD408D";
paths = (
{
closed = 1;
nodes = (
"223 444 OFFCURVE",
"259 460 OFFCURVE",
"284 485 CURVE SMOOTH",
"308 509 OFFCURVE",
"324 543 OFFCURVE",
"324 582 CURVE SMOOTH",
"324 619 OFFCURVE",
"308 655 OFFCURVE",
"284 680 CURVE",
"259 704 OFFCURVE",
"223 720 OFFCURVE",
"186 720 CURVE SMOOTH",
"147 720 OFFCURVE",
"113 704 OFFCURVE",
"89 680 CURVE SMOOTH",
"64 655 OFFCURVE",
"48 619 OFFCURVE",
"48 582 CURVE SMOOTH",
"48 543 OFFCURVE",
"64 509 OFFCURVE",
"89 485 CURVE",
"113 460 OFFCURVE",
"147 444 OFFCURVE",
"186 444 CURVE SMOOTH"
);
},
{
closed = 1;
nodes = (
"154 464 OFFCURVE",
"124 477 OFFCURVE",
"103 498 CURVE SMOOTH",
"82 519 OFFCURVE",
"68 549 OFFCURVE",
"68 582 CURVE SMOOTH",
"68 613 OFFCURVE",
"81 643 OFFCURVE",
"102 665 CURVE SMOOTH",
"123 687 OFFCURVE",
"153 700 OFFCURVE",
"186 700 CURVE SMOOTH",
"217 700 OFFCURVE",
"247 687 OFFCURVE",
"269 666 CURVE SMOOTH",
"291 645 OFFCURVE",
"304 615 OFFCURVE",
"304 582 CURVE SMOOTH",
"304 551 OFFCURVE",
"291 522 OFFCURVE",
"270 500 CURVE SMOOTH",
"249 478 OFFCURVE",
"219 464 OFFCURVE",
"186 464 CURVE SMOOTH"
);
},
{
closed = 1;
nodes = (
"522 -10 OFFCURVE",
"558 5 OFFCURVE",
"583 30 CURVE SMOOTH",
"607 55 OFFCURVE",
"623 89 OFFCURVE",
"623 128 CURVE SMOOTH",
"623 165 OFFCURVE",
"607 201 OFFCURVE",
"583 226 CURVE",
"558 250 OFFCURVE",
"522 266 OFFCURVE",
"485 266 CURVE SMOOTH",
"446 266 OFFCURVE",
"412 250 OFFCURVE",
"388 226 CURVE SMOOTH",
"363 201 OFFCURVE",
"347 165 OFFCURVE",
"347 128 CURVE SMOOTH",
"347 89 OFFCURVE",
"363 55 OFFCURVE",
"388 30 CURVE SMOOTH",
"412 5 OFFCURVE",
"446 -10 OFFCURVE",
"485 -10 CURVE SMOOTH"
);
},
{
closed = 1;
nodes = (
"453 10 OFFCURVE",
"423 23 OFFCURVE",
"402 44 CURVE SMOOTH",
"381 65 OFFCURVE",
"367 95 OFFCURVE",
"367 128 CURVE SMOOTH",
"367 159 OFFCURVE",
"380 189 OFFCURVE",
"401 211 CURVE SMOOTH",
"422 233 OFFCURVE",
"452 246 OFFCURVE",
"485 246 CURVE SMOOTH",
"516 246 OFFCURVE",
"546 232 OFFCURVE",
"568 211 CURVE SMOOTH",
"590 190 OFFCURVE",
"603 160 OFFCURVE",
"603 128 CURVE SMOOTH",
"603 96 OFFCURVE",
"590 68 OFFCURVE",
"569 46 CURVE SMOOTH",
"548 24 OFFCURVE",
"518 10 OFFCURVE",
"485 10 CURVE SMOOTH"
);
},
{
closed = 1;
nodes = (
"622 699 LINE",
"606 711 LINE",
"48 11 LINE",
"64 -1 LINE"
);
}
);
width = 670;
}
);
note = percent;
unicode = 0025;
},
{
glyphname = ampersand;
lastChange = "2017-05-18 07:11:10 +0000";
layers = (
{
layerId = "2CA66E5A-B467-404E-84AC-20A403DD408D";
paths = (
{
closed = 1;
nodes = (
"503 126 LINE",
"542 186 OFFCURVE",
"562 260 OFFCURVE",
"562 333 CURVE",
"542 333 LINE",
"542 264 OFFCURVE",
"523 196 OFFCURVE",
"490 140 CURVE",
"250 389 LINE",
"295 420 OFFCURVE",
"339 450 OFFCURVE",
"372 483 CURVE SMOOTH",
"404 515 OFFCURVE",
"426 550 OFFCURVE",
"426 591 CURVE SMOOTH",
"426 626 OFFCURVE",
"411 657 OFFCURVE",
"384 681 CURVE SMOOTH",
"357 704 OFFCURVE",
"321 719 OFFCURVE",
"277 719 CURVE SMOOTH",
"230 719 OFFCURVE",
"189 702 OFFCURVE",
"159 675 CURVE SMOOTH",
"129 648 OFFCURVE",
"110 611 OFFCURVE",
"110 574 CURVE SMOOTH",
"110 550 OFFCURVE",
"118 526 OFFCURVE",
"135 498 CURVE SMOOTH",
"152 469 OFFCURVE",
"180 435 OFFCURVE",
"223 391 CURVE",
"176 359 OFFCURVE",
"134 328 OFFCURVE",
"103 293 CURVE SMOOTH",
"72 258 OFFCURVE",
"53 219 OFFCURVE",
"53 170 CURVE SMOOTH",
"53 111 OFFCURVE",
"80 67 OFFCURVE",
"121 36 CURVE SMOOTH",
"162 5 OFFCURVE",
"215 -10 OFFCURVE",
"270 -10 CURVE SMOOTH",
"366 -10 OFFCURVE",
"441 38 OFFCURVE",
"492 110 CURVE",
"598 0 LINE",
"625 0 LINE"
);
},
{
closed = 1;
nodes = (
"226 8 OFFCURVE",
"177 20 OFFCURVE",
"139 47 CURVE SMOOTH",
"101 74 OFFCURVE",
"73 113 OFFCURVE",
"73 168 CURVE SMOOTH",
"73 213 OFFCURVE",
"92 252 OFFCURVE",
"122 286 CURVE SMOOTH",
"152 320 OFFCURVE",
"192 348 OFFCURVE",
"235 379 CURVE",
"479 124 LINE",
"432 55 OFFCURVE",
"361 8 OFFCURVE",
"273 8 CURVE SMOOTH"
);
},
{
closed = 1;
nodes = (
"130 608 OFFCURVE",
"147 639 OFFCURVE",
"173 662 CURVE SMOOTH",
"199 685 OFFCURVE",
"235 699 OFFCURVE",
"276 699 CURVE SMOOTH",
"352 699 OFFCURVE",
"406 653 OFFCURVE",
"406 589 CURVE SMOOTH",
"406 554 OFFCURVE",
"389 524 OFFCURVE",
"361 495 CURVE SMOOTH",
"332 466 OFFCURVE",
"290 436 OFFCURVE",
"238 401 CURVE",
"193 449 OFFCURVE",
"166 482 OFFCURVE",
"150 509 CURVE SMOOTH",
"134 536 OFFCURVE",
"130 554 OFFCURVE",
"130 573 CURVE SMOOTH"
);
}
);
width = 635;
}
);
leftKerningGroup = ampersand;
note = ampersand;
rightKerningGroup = ampersand;
unicode = 0026;
},
{
glyphname = quotesingle;
lastChange = "2017-05-18 07:11:10 +0000";
layers = (
{
layerId = "2CA66E5A-B467-404E-84AC-20A403DD408D";
paths = (
{
closed = 1;
nodes = (
"93 710 LINE",
"73 710 LINE",
"73 569 LINE",
"93 569 LINE"
);
}
);
width = 166;
}
);
leftKerningGroup = quotedbl;
note = quotesingle;
rightKerningGroup = quotedbl;
unicode = 0027;
},
{
glyphname = parenleft;
lastChange = "2017-05-18 07:11:10 +0000";
layers = (
{
layerId = "2CA66E5A-B467-404E-84AC-20A403DD408D";
paths = (
{
closed = 1;
nodes = (
"50 224 OFFCURVE",
"96 101 OFFCURVE",
"183 -26 CURVE",
"199 -14 LINE",
"158 45 OFFCURVE",
"125 109 OFFCURVE",
"103 170 CURVE SMOOTH",
"81 231 OFFCURVE",
"69 291 OFFCURVE",
"69 342 CURVE SMOOTH",
"69 402 OFFCURVE",
"86 473 OFFCURVE",
"110 539 CURVE SMOOTH",
"134 605 OFFCURVE",
"167 667 OFFCURVE",
"199 714 CURVE",
"183 726 LINE",
"147 665 OFFCURVE",
"113 604 OFFCURVE",
"89 541 CURVE SMOOTH",
"65 477 OFFCURVE",
"50 413 OFFCURVE",
"50 345 CURVE SMOOTH"
);
}
);
width = 234;
}
);
note = parenleft;
rightKerningGroup = parenleft;
unicode = 0028;
},
{
glyphname = parenright;
lastChange = "2017-05-18 07:11:10 +0000";
layers = (
{
layerId = "2CA66E5A-B467-404E-84AC-20A403DD408D";
paths = (
{
closed = 1;
nodes = (
"184 413 OFFCURVE",
"169 477 OFFCURVE",
"145 541 CURVE SMOOTH",
"121 604 OFFCURVE",
"87 665 OFFCURVE",
"51 726 CURVE",
"35 714 LINE",
"67 667 OFFCURVE",
"100 605 OFFCURVE",
"124 539 CURVE SMOOTH",
"148 473 OFFCURVE",
"165 402 OFFCURVE",
"165 342 CURVE SMOOTH",
"165 291 OFFCURVE",
"154 231 OFFCURVE",
"132 170 CURVE SMOOTH",
"110 109 OFFCURVE",
"76 45 OFFCURVE",
"35 -14 CURVE",
"51 -26 LINE",
"138 101 OFFCURVE",
"184 224 OFFCURVE",
"184 345 CURVE SMOOTH"
);
}
);
width = 233;
}
);
leftKerningGroup = parenright;
note = parenright;
unicode = 0029;
},
{
glyphname = asterisk;
lastChange = "2017-05-18 07:11:10 +0000";
layers = (
{
layerId = "2CA66E5A-B467-404E-84AC-20A403DD408D";
paths = (
{
closed = 1;
nodes = (
"151 609 LINE",
"192 552 LINE",
"209 564 LINE",
"167 621 LINE",
"234 643 LINE",
"228 662 LINE",
"161 640 LINE",
"161 710 LINE",
"141 710 LINE",
"141 640 LINE",
"74 662 LINE",
"68 643 LINE",
"135 621 LINE",
"94 564 LINE",
"110 552 LINE"
);
}
);
width = 302;
}
);
leftKerningGroup = asterisk;
note = asterisk;
rightKerningGroup = asterisk;
unicode = 002A;
},
{
glyphname = plus;
lastChange = "2017-05-18 07:11:10 +0000";
layers = (
{
layerId = "2CA66E5A-B467-404E-84AC-20A403DD408D";
paths = (
{
closed = 1;
nodes = (
"216 515 LINE",
"196 515 LINE",
"196 365 LINE",
"56 365 LINE",
"56 345 LINE",
"196 345 LINE",
"196 195 LINE",
"216 195 LINE",
"216 345 LINE",
"356 345 LINE",
"356 365 LINE",
"216 365 LINE"
);
}
);
width = 412;
}
);
note = plus;
unicode = 002B;
},
{
glyphname = comma;
lastChange = "2017-05-18 07:11:10 +0000";
layers = (
{
layerId = "2CA66E5A-B467-404E-84AC-20A403DD408D";
paths = (
{
closed = 1;
nodes = (
"143 -10 LINE",
"143 64 LINE",
"117 64 LINE",
"117 -10 LINE",
"126 -10 LINE",
"116 -81 LINE",
"130 -81 LINE"
);
}
);
width = 260;
}
);
leftKerningGroup = comma;
note = comma;
rightKerningGroup = comma;
unicode = 002C;
},
{
glyphname = hyphen;
lastChange = "2017-05-18 07:11:10 +0000";
layers = (
{
layerId = "2CA66E5A-B467-404E-84AC-20A403DD408D";
paths = (
{
closed = 1;
nodes = (
"352 281 LINE",
"69 281 LINE",
"69 261 LINE",
"352 261 LINE"
);
}
);
width = 421;
}
);
leftKerningGroup = hyphen;
note = hyphen;
rightKerningGroup = hyphen;
unicode = 002D;
},
{
glyphname = period;
lastChange = "2017-05-18 07:11:10 +0000";
layers = (
{
layerId = "2CA66E5A-B467-404E-84AC-20A403DD408D";
paths = (
{
closed = 1;
nodes = (
"89 64 LINE",
"69 64 LINE",
"69 0 LINE",
"89 0 LINE"
);
}
);
width = 158;
}
);
leftKerningGroup = comma;
note = period;
rightKerningGroup = comma;
unicode = 002E;
},
{
glyphname = slash;
lastChange = "2017-05-18 07:11:10 +0000";
layers = (
{
layerId = "2CA66E5A-B467-404E-84AC-20A403DD408D";
paths = (
{
closed = 1;
nodes = (
"27 0 LINE",
"52 0 LINE",
"508 710 LINE",
"482 710 LINE"
);
}
);
width = 536;
}
);
leftKerningGroup = slash;
note = slash;
rightKerningGroup = slash;
unicode = 002F;
},
{
glyphname = zero;
lastChange = "2017-05-18 07:11:10 +0000";
layers = (
{
layerId = "2CA66E5A-B467-404E-84AC-20A403DD408D";
paths = (
{
closed = 1;
nodes = (
"549 381 OFFCURVE",
"523 457 OFFCURVE",
"480 511 CURVE SMOOTH",
"436 565 OFFCURVE",
"375 597 OFFCURVE",
"304 597 CURVE SMOOTH",
"233 597 OFFCURVE",
"172 565 OFFCURVE",
"129 511 CURVE SMOOTH",
"85 457 OFFCURVE",
"59 381 OFFCURVE",
"59 293 CURVE SMOOTH",
"59 205 OFFCURVE",
"85 130 OFFCURVE",
"129 76 CURVE SMOOTH",
"172 22 OFFCURVE",
"233 -10 OFFCURVE",
"304 -10 CURVE SMOOTH",
"375 -10 OFFCURVE",
"436 22 OFFCURVE",
"480 76 CURVE SMOOTH",
"523 130 OFFCURVE",
"549 205 OFFCURVE",
"549 293 CURVE SMOOTH"
);
},
{
closed = 1;
nodes = (
"529 209 OFFCURVE",
"506 139 OFFCURVE",
"467 89 CURVE SMOOTH",
"427 39 OFFCURVE",
"371 10 OFFCURVE",
"304 10 CURVE SMOOTH",
"237 10 OFFCURVE",
"181 39 OFFCURVE",
"142 89 CURVE SMOOTH",
"102 139 OFFCURVE",
"79 209 OFFCURVE",
"79 293 CURVE SMOOTH",
"79 377 OFFCURVE",
"102 448 OFFCURVE",
"142 498 CURVE SMOOTH",
"181 548 OFFCURVE",
"237 577 OFFCURVE",
"304 577 CURVE SMOOTH",
"371 577 OFFCURVE",
"427 548 OFFCURVE",
"467 498 CURVE SMOOTH",
"506 448 OFFCURVE",
"529 377 OFFCURVE",
"529 293 CURVE SMOOTH"
);
}
);
width = 608;
}
);
leftKerningGroup = zero;
note = zero;
rightKerningGroup = zero;
unicode = 0030;
},
{
glyphname = one;
lastChange = "2017-05-18 07:11:10 +0000";
layers = (
{
layerId = "2CA66E5A-B467-404E-84AC-20A403DD408D";
paths = (
{
closed = 1;
nodes = (
"230 571 LINE",
"210 571 LINE",
"209 570 OFFCURVE",
"204 564 OFFCURVE",
"194 554 CURVE",
"183 544 OFFCURVE",
"170 533 OFFCURVE",
"154 522 CURVE SMOOTH",
"122 499 OFFCURVE",
"81 476 OFFCURVE",
"45 476 CURVE",
"45 452 LINE",
"72 452 OFFCURVE",
"108 466 OFFCURVE",
"140 484 CURVE SMOOTH",
"171 502 OFFCURVE",
"199 522 OFFCURVE",
"210 538 CURVE",
"210 20 LINE",
"68 20 LINE",
"68 0 LINE",
"357 0 LINE",
"357 20 LINE",
"230 20 LINE"
);
}
);
width = 375;
}
);
leftKerningGroup = one;
note = one;
rightKerningGroup = one;
unicode = 0031;
},
{
glyphname = two;
lastChange = "2017-05-18 07:11:10 +0000";
layers = (
{
layerId = "2CA66E5A-B467-404E-84AC-20A403DD408D";
paths = (
{
closed = 1;
nodes = (
"437 20 LINE",
"66 20 LINE",
"66 29 OFFCURVE",
"68 43 OFFCURVE",
"72 62 CURVE SMOOTH",
"79 100 OFFCURVE",
"101 145 OFFCURVE",
"142 189 CURVE SMOOTH",
"183 232 OFFCURVE",
"241 251 OFFCURVE",
"288 270 CURVE SMOOTH",
"311 279 OFFCURVE",
"333 291 OFFCURVE",
"354 305 CURVE SMOOTH",
"395 333 OFFCURVE",
"426 373 OFFCURVE",
"426 433 CURVE SMOOTH",
"426 469 OFFCURVE",
"411 506 OFFCURVE",
"380 534 CURVE SMOOTH",
"349 562 OFFCURVE",
"304 581 OFFCURVE",
"244 581 CURVE SMOOTH",
"215 581 OFFCURVE",
"189 576 OFFCURVE",
"166 567 CURVE",
"120 547 OFFCURVE",
"87 521 OFFCURVE",
"70 501 CURVE SMOOTH",
"61 491 OFFCURVE",
"57 486 OFFCURVE",
"57 486 CURVE",
"73 474 LINE",
"76 477 OFFCURVE",
"81 484 OFFCURVE",
"90 493 CURVE SMOOTH",
"99 502 OFFCURVE",
"110 512 OFFCURVE",
"125 522 CURVE SMOOTH",
"153 542 OFFCURVE",
"193 561 OFFCURVE",
"244 561 CURVE SMOOTH",
"299 561 OFFCURVE",
"339 544 OFFCURVE",
"366 520 CURVE SMOOTH",
"393 496 OFFCURVE",
"406 464 OFFCURVE",
"406 433 CURVE SMOOTH",
"406 407 OFFCURVE",
"400 385 OFFCURVE",
"387 367 CURVE SMOOTH",
"362 330 OFFCURVE",
"322 305 OFFCURVE",
"279 288 CURVE SMOOTH",
"257 279 OFFCURVE",
"237 271 OFFCURVE",
"218 263 CURVE SMOOTH",
"138 230 OFFCURVE",
"95 176 OFFCURVE",
"72 125 CURVE SMOOTH",
"49 73 OFFCURVE",
"47 24 OFFCURVE",
"47 0 CURVE",
"437 0 LINE"
);
}
);
width = 486;
}
);
leftKerningGroup = two;
note = two;
rightKerningGroup = two;
unicode = 0032;
},
{
glyphname = three;
lastChange = "2017-05-18 07:11:10 +0000";
layers = (
{
layerId = "2CA66E5A-B467-404E-84AC-20A403DD408D";
paths = (
{
closed = 1;
nodes = (
"397 247 OFFCURVE",
"454 310 OFFCURVE",
"454 395 CURVE SMOOTH",
"454 447 OFFCURVE",
"433 492 OFFCURVE",
"397 525 CURVE SMOOTH",
"361 557 OFFCURVE",
"311 576 OFFCURVE",
"254 576 CURVE SMOOTH",
"207 576 OFFCURVE",
"166 564 OFFCURVE",
"131 542 CURVE SMOOTH",
"96 520 OFFCURVE",
"70 487 OFFCURVE",
"57 450 CURVE",
"75 443 LINE",
"102 511 OFFCURVE",
"170 556 OFFCURVE",
"254 556 CURVE SMOOTH",
"306 556 OFFCURVE",
"351 539 OFFCURVE",
"383 510 CURVE SMOOTH",
"415 481 OFFCURVE",
"434 439 OFFCURVE",
"434 390 CURVE SMOOTH",
"434 299 OFFCURVE",
"369 247 OFFCURVE",
"252 247 CURVE SMOOTH",
"229 247 LINE",
"229 227 LINE",
"251 227 LINE SMOOTH",
"372 227 OFFCURVE",
"446 159 OFFCURVE",
"446 51 CURVE SMOOTH",
"446 -4 OFFCURVE",
"427 -47 OFFCURVE",
"394 -78 CURVE SMOOTH",
"361 -110 OFFCURVE",
"313 -127 OFFCURVE",
"256 -127 CURVE SMOOTH",
"209 -127 OFFCURVE",
"167 -115 OFFCURVE",
"134 -95 CURVE SMOOTH",
"101 -75 OFFCURVE",
"77 -47 OFFCURVE",
"65 -12 CURVE",
"46 -19 LINE",
"74 -98 OFFCURVE",
"154 -147 OFFCURVE",
"254 -147 CURVE SMOOTH",
"315 -147 OFFCURVE",
"369 -128 OFFCURVE",
"407 -93 CURVE SMOOTH",
"445 -58 OFFCURVE",
"466 -11 OFFCURVE",
"466 48 CURVE SMOOTH",
"466 148 OFFCURVE",
"404 223 OFFCURVE",
"308 236 CURVE"
);
}
);
width = 521;
}
);
leftKerningGroup = three;
note = three;
rightKerningGroup = three;
unicode = 0033;
},
{
glyphname = four;
lastChange = "2017-05-18 07:11:10 +0000";
layers = (
{
layerId = "2CA66E5A-B467-404E-84AC-20A403DD408D";
paths = (
{
closed = 1;
nodes = (
"404 72 LINE",
"492 72 LINE",
"492 92 LINE",
"404 92 LINE",
"404 571 LINE",
"390 571 LINE",
"19 89 LINE",
"19 72 LINE",
"384 72 LINE",
"384 -127 LINE",
"404 -127 LINE"
);
},
{
closed = 1;
nodes = (
"384 92 LINE",
"47 92 LINE",
"384 534 LINE"
);
}
);
width = 518;
}
);
leftKerningGroup = four;
note = four;
rightKerningGroup = four;
unicode = 0034;
},
{
glyphname = five;
lastChange = "2017-05-18 07:11:10 +0000";
layers = (
{
layerId = "2CA66E5A-B467-404E-84AC-20A403DD408D";
paths = (
{
closed = 1;
nodes = (
"197 306 OFFCURVE",
"130 278 OFFCURVE",
"82 226 CURVE",
"147 551 LINE",
"467 551 LINE",
"467 571 LINE",
"130 571 LINE",
"117 508 OFFCURVE",
"106 450 OFFCURVE",
"95 397 CURVE SMOOTH",
"90 374 OFFCURVE",
"86 352 OFFCURVE",
"82 330 CURVE SMOOTH",
"77 307 OFFCURVE",
"73 287 OFFCURVE",
"69 268 CURVE SMOOTH",
"61 230 OFFCURVE",
"55 200 OFFCURVE",
"52 188 CURVE",
"76 188 LINE",
"120 252 OFFCURVE",
"192 286 OFFCURVE",
"268 286 CURVE SMOOTH",
"327 286 OFFCURVE",
"379 265 OFFCURVE",
"417 229 CURVE SMOOTH",
"455 193 OFFCURVE",
"478 142 OFFCURVE",
"478 82 CURVE SMOOTH",
"478 19 OFFCURVE",
"454 -33 OFFCURVE",
"415 -70 CURVE SMOOTH",
"376 -107 OFFCURVE",
"323 -129 OFFCURVE",
"263 -129 CURVE SMOOTH",
"174 -129 OFFCURVE",
"97 -79 OFFCURVE",
"61 -3 CURVE",
"39 -3 LINE",
"59 -47 OFFCURVE",
"89 -82 OFFCURVE",
"128 -108 CURVE SMOOTH",
"167 -134 OFFCURVE",
"212 -149 OFFCURVE",
"263 -149 CURVE SMOOTH",
"326 -149 OFFCURVE",
"384 -126 OFFCURVE",
"428 -85 CURVE SMOOTH",
"471 -45 OFFCURVE",
"498 13 OFFCURVE",
"498 82 CURVE SMOOTH",
"498 147 OFFCURVE",
"473 204 OFFCURVE",
"431 244 CURVE SMOOTH",
"389 283 OFFCURVE",
"331 306 OFFCURVE",
"268 306 CURVE SMOOTH"
);
}
);
width = 537;
}
);
leftKerningGroup = five;
note = five;
rightKerningGroup = five;
unicode = 0035;
},
{
glyphname = six;
lastChange = "2017-05-18 07:11:10 +0000";
layers = (
{
layerId = "2CA66E5A-B467-404E-84AC-20A403DD408D";
paths = (
{
closed = 1;
nodes = (
"552 299 OFFCURVE",
"525 360 OFFCURVE",
"481 404 CURVE SMOOTH",
"437 448 OFFCURVE",
"377 475 OFFCURVE",
"310 475 CURVE SMOOTH",
"257 475 OFFCURVE",
"207 458 OFFCURVE",
"166 429 CURVE SMOOTH",
"125 400 OFFCURVE",
"94 357 OFFCURVE",
"78 308 CURVE",
"78 431 OFFCURVE",
"101 528 OFFCURVE",
"142 594 CURVE SMOOTH",
"182 660 OFFCURVE",
"240 695 OFFCURVE",
"309 695 CURVE SMOOTH",
"352 695 OFFCURVE",
"392 682 OFFCURVE",
"425 658 CURVE SMOOTH",
"457 634 OFFCURVE",
"483 601 OFFCURVE",
"495 561 CURVE",
"514 568 LINE",
"485 659 OFFCURVE",
"405 715 OFFCURVE",
"308 715 CURVE SMOOTH",
"233 715 OFFCURVE",
"171 680 OFFCURVE",
"127 607 CURVE SMOOTH",
"82 534 OFFCURVE",
"56 422 OFFCURVE",
"56 266 CURVE SMOOTH",
"56 181 OFFCURVE",
"83 112 OFFCURVE",
"128 64 CURVE SMOOTH",
"173 16 OFFCURVE",
"235 -10 OFFCURVE",
"306 -10 CURVE SMOOTH",
"374 -10 OFFCURVE",
"436 17 OFFCURVE",
"481 61 CURVE SMOOTH",
"525 105 OFFCURVE",
"552 165 OFFCURVE",
"552 232 CURVE SMOOTH"
);
},
{
closed = 1;
nodes = (
"247 10 OFFCURVE",
"190 35 OFFCURVE",
"149 76 CURVE SMOOTH",
"108 116 OFFCURVE",
"82 172 OFFCURVE",
"82 232 CURVE SMOOTH",
"82 292 OFFCURVE",
"108 348 OFFCURVE",
"149 389 CURVE SMOOTH",
"189 429 OFFCURVE",
"246 455 OFFCURVE",
"307 455 CURVE SMOOTH",
"368 455 OFFCURVE",
"424 429 OFFCURVE",
"465 389 CURVE SMOOTH",
"506 348 OFFCURVE",
"532 292 OFFCURVE",
"532 231 CURVE SMOOTH",
"532 171 OFFCURVE",
"507 115 OFFCURVE",
"467 75 CURVE SMOOTH",
"426 35 OFFCURVE",
"369 10 OFFCURVE",
"308 10 CURVE SMOOTH"
);
}
);
width = 595;
}
);
leftKerningGroup = six;
note = six;
rightKerningGroup = six;
unicode = 0036;
},
{
glyphname = seven;
lastChange = "2017-05-18 07:11:10 +0000";
layers = (
{
layerId = "2CA66E5A-B467-404E-84AC-20A403DD408D";
paths = (
{
closed = 1;
nodes = (
"146 -127 LINE",
"510 583 LINE",
"50 583 LINE",
"50 563 LINE",
"477 563 LINE",
"123 -127 LINE"
);
}
);
width = 535;
}
);
leftKerningGroup = seven;
note = seven;
rightKerningGroup = seven;
unicode = 0037;
},
{
glyphname = eight;
lastChange = "2017-05-18 07:11:10 +0000";
layers = (
{
layerId = "2CA66E5A-B467-404E-84AC-20A403DD408D";
paths = (
{
closed = 1;
nodes = (
"528 236 OFFCURVE",
"511 277 OFFCURVE",
"481 310 CURVE SMOOTH",
"451 343 OFFCURVE",
"410 368 OFFCURVE",
"363 381 CURVE",
"400 394 OFFCURVE",
"435 414 OFFCURVE",
"460 441 CURVE SMOOTH",
"485 468 OFFCURVE",
"502 501 OFFCURVE",
"502 541 CURVE SMOOTH",
"502 596 OFFCURVE",
"475 638 OFFCURVE",
"436 667 CURVE SMOOTH",
"396 695 OFFCURVE",
"343 710 OFFCURVE",
"291 710 CURVE SMOOTH",
"239 710 OFFCURVE",
"186 695 OFFCURVE",
"146 667 CURVE SMOOTH",
"106 638 OFFCURVE",
"79 596 OFFCURVE",
"79 541 CURVE SMOOTH",
"79 501 OFFCURVE",
"95 468 OFFCURVE",
"120 441 CURVE SMOOTH",
"145 414 OFFCURVE",
"180 394 OFFCURVE",
"217 381 CURVE",
"177 370 OFFCURVE",
"136 347 OFFCURVE",
"105 315 CURVE SMOOTH",
"73 282 OFFCURVE",
"53 239 OFFCURVE",
"53 190 CURVE SMOOTH",
"53 138 OFFCURVE",
"76 89 OFFCURVE",
"117 53 CURVE SMOOTH",
"157 17 OFFCURVE",
"215 -7 OFFCURVE",
"287 -7 CURVE SMOOTH",
"351 -7 OFFCURVE",
"411 12 OFFCURVE",
"456 46 CURVE SMOOTH",
"500 80 OFFCURVE",
"528 128 OFFCURVE",
"528 188 CURVE SMOOTH"
);
},
{
closed = 1;
nodes = (
"508 135 OFFCURVE",
"479 90 OFFCURVE",
"439 59 CURVE SMOOTH",
"398 27 OFFCURVE",
"344 10 OFFCURVE",
"292 10 CURVE SMOOTH",
"241 10 OFFCURVE",
"188 26 OFFCURVE",
"145 57 CURVE SMOOTH",
"102 88 OFFCURVE",
"73 132 OFFCURVE",
"73 189 CURVE SMOOTH",
"73 244 OFFCURVE",
"101 289 OFFCURVE",
"142 321 CURVE SMOOTH",
"183 353 OFFCURVE",
"237 371 OFFCURVE",
"289 371 CURVE SMOOTH",
"338 371 OFFCURVE",
"393 355 OFFCURVE",
"436 324 CURVE SMOOTH",
"479 293 OFFCURVE",
"508 248 OFFCURVE",
"508 191 CURVE SMOOTH"
);
},
{
closed = 1;
nodes = (
"99 587 OFFCURVE",
"122 625 OFFCURVE",
"158 651 CURVE SMOOTH",
"193 677 OFFCURVE",
"241 690 OFFCURVE",
"289 690 CURVE SMOOTH",
"337 690 OFFCURVE",
"386 676 OFFCURVE",
"422 651 CURVE SMOOTH",
"458 626 OFFCURVE",
"482 589 OFFCURVE",
"482 541 CURVE SMOOTH",
"482 493 OFFCURVE",
"456 457 OFFCURVE",
"419 431 CURVE SMOOTH",
"382 405 OFFCURVE",
"334 391 OFFCURVE",
"290 391 CURVE SMOOTH",
"246 391 OFFCURVE",
"199 405 OFFCURVE",
"162 430 CURVE SMOOTH",
"125 454 OFFCURVE",
"99 491 OFFCURVE",
"99 539 CURVE SMOOTH"
);
}
);
width = 581;
}
);
leftKerningGroup = eight;
note = eight;
rightKerningGroup = eight;
unicode = 0038;
},
{
glyphname = nine;
lastChange = "2017-05-18 07:11:10 +0000";
layers = (
{
layerId = "2CA66E5A-B467-404E-84AC-20A403DD408D";
paths = (
{
closed = 1;
nodes = (
"37 262 OFFCURVE",
"64 201 OFFCURVE",
"108 157 CURVE SMOOTH",
"152 113 OFFCURVE",
"212 86 OFFCURVE",
"279 86 CURVE SMOOTH",
"332 86 OFFCURVE",
"382 103 OFFCURVE",
"423 132 CURVE SMOOTH",
"464 161 OFFCURVE",
"495 204 OFFCURVE",
"511 253 CURVE",
"511 130 OFFCURVE",
"488 34 OFFCURVE",
"448 -32 CURVE SMOOTH",
"407 -98 OFFCURVE",
"349 -134 OFFCURVE",
"280 -134 CURVE SMOOTH",
"237 -134 OFFCURVE",
"197 -121 OFFCURVE",
"165 -97 CURVE SMOOTH",
"132 -73 OFFCURVE",
"106 -40 OFFCURVE",
"94 0 CURVE",
"75 -7 LINE",
"104 -98 OFFCURVE",
"184 -154 OFFCURVE",
"281 -154 CURVE SMOOTH",
"354 -154 OFFCURVE",
"418 -119 OFFCURVE",
"463 -46 CURVE SMOOTH",
"507 27 OFFCURVE",
"533 139 OFFCURVE",
"533 295 CURVE SMOOTH",
"533 380 OFFCURVE",
"506 449 OFFCURVE",
"461 497 CURVE SMOOTH",
"416 545 OFFCURVE",
"354 571 OFFCURVE",
"283 571 CURVE SMOOTH",
"215 571 OFFCURVE",
"153 544 OFFCURVE",
"109 500 CURVE SMOOTH",
"64 456 OFFCURVE",
"37 396 OFFCURVE",
"37 329 CURVE SMOOTH"
);
},
{
closed = 1;
nodes = (
"342 551 OFFCURVE",
"399 526 OFFCURVE",
"440 486 CURVE SMOOTH",
"481 445 OFFCURVE",
"507 389 OFFCURVE",
"507 329 CURVE SMOOTH",
"507 269 OFFCURVE",
"481 213 OFFCURVE",
"441 173 CURVE SMOOTH",
"400 132 OFFCURVE",
"343 106 OFFCURVE",
"282 106 CURVE SMOOTH",
"221 106 OFFCURVE",
"164 132 OFFCURVE",
"124 173 CURVE SMOOTH",
"83 213 OFFCURVE",
"57 269 OFFCURVE",
"57 330 CURVE SMOOTH",
"57 390 OFFCURVE",
"82 446 OFFCURVE",
"123 486 CURVE SMOOTH",
"163 526 OFFCURVE",
"220 551 OFFCURVE",
"281 551 CURVE SMOOTH"
);
}
);
width = 579;
}
);
leftKerningGroup = nine;
note = nine;
rightKerningGroup = nine;
unicode = 0039;
},
{
glyphname = colon;
lastChange = "2017-05-18 07:11:10 +0000";
layers = (
{
layerId = "2CA66E5A-B467-404E-84AC-20A403DD408D";
paths = (
{
closed = 1;
nodes = (
"89 517 LINE",
"69 517 LINE",
"69 453 LINE",
"89 453 LINE"
);
},
{
closed = 1;
nodes = (
"89 64 LINE",
"69 64 LINE",
"69 0 LINE",
"89 0 LINE"
);
}
);
width = 158;
}
);
leftKerningGroup = colon;
note = colon;
rightKerningGroup = colon;
unicode = 003A;
},
{
glyphname = semicolon;
lastChange = "2017-05-18 07:11:10 +0000";
layers = (
{
layerId = "2CA66E5A-B467-404E-84AC-20A403DD408D";
paths = (
{
closed = 1;
nodes = (
"93 517 LINE",
"73 517 LINE",
"73 453 LINE",
"93 453 LINE"
);
},
{
closed = 1;
nodes = (
"97 -10 LINE",
"97 64 LINE",
"71 64 LINE",
"71 -10 LINE",
"80 -10 LINE",
"70 -81 LINE",
"84 -81 LINE"
);
}
);
width = 168;
}
);
leftKerningGroup = colon;
note = semicolon;
rightKerningGroup = colon;
unicode = 003B;
},
{
glyphname = less;
lastChange = "2017-05-18 07:11:10 +0000";
layers = (
{
layerId = "2CA66E5A-B467-404E-84AC-20A403DD408D";
paths = (
{
closed = 1;
nodes = (
"451 0 LINE",
"451 22 LINE",
"63 259 LINE",
"451 495 LINE",
"451 517 LINE",
"34 268 LINE",
"34 250 LINE"
);
}
);
width = 502;
}
);
note = less;
unicode = 003C;
},
{
glyphname = equal;
lastChange = "2017-05-18 07:11:10 +0000";
layers = (
{
layerId = "2CA66E5A-B467-404E-84AC-20A403DD408D";
paths = (
{
closed = 1;
nodes = (
"364 251 LINE",
"71 251 LINE",
"71 231 LINE",
"364 231 LINE"
);
},
{
closed = 1;
nodes = (
"364 321 LINE",
"71 321 LINE",
"71 301 LINE",
"364 301 LINE"
);
}
);
width = 435;
}
);
note = equal;
unicode = 003D;
},
{
glyphname = greater;
lastChange = "2017-05-18 07:11:10 +0000";
layers = (
{
layerId = "2CA66E5A-B467-404E-84AC-20A403DD408D";
paths = (
{
closed = 1;
nodes = (
"51 517 LINE",
"51 495 LINE",
"439 259 LINE",
"51 22 LINE",
"51 0 LINE",
"468 250 LINE",
"468 268 LINE"
);
}
);
width = 502;
}
);
note = greater;
unicode = 003E;
},
{
glyphname = question;
lastChange = "2017-05-18 07:11:10 +0000";
layers = (
{
layerId = "2CA66E5A-B467-404E-84AC-20A403DD408D";
paths = (
{
closed = 1;
nodes = (
"198 238 OFFCURVE",
"206 274 OFFCURVE",
"219 299 CURVE SMOOTH",
"232 323 OFFCURVE",
"251 335 OFFCURVE",
"272 347 CURVE SMOOTH",
"290 357 OFFCURVE",
"308 367 OFFCURVE",
"327 376 CURVE SMOOTH",
"346 385 OFFCURVE",
"363 396 OFFCURVE",
"378 409 CURVE SMOOTH",
"409 435 OFFCURVE",
"430 472 OFFCURVE",
"430 532 CURVE SMOOTH",
"430 593 OFFCURVE",
"408 640 OFFCURVE",
"373 672 CURVE SMOOTH",
"338 703 OFFCURVE",
"291 719 OFFCURVE",
"243 719 CURVE SMOOTH",
"202 719 OFFCURVE",
"158 708 OFFCURVE",
"122 686 CURVE SMOOTH",
"85 664 OFFCURVE",
"54 631 OFFCURVE",
"35 590 CURVE",
"53 582 LINE",
"70 618 OFFCURVE",
"98 647 OFFCURVE",
"131 668 CURVE SMOOTH",
"164 688 OFFCURVE",
"204 699 OFFCURVE",
"244 699 CURVE SMOOTH",
"285 699 OFFCURVE",
"327 687 OFFCURVE",
"359 660 CURVE SMOOTH",
"390 633 OFFCURVE",
"410 592 OFFCURVE",
"410 535 CURVE SMOOTH",
"410 506 OFFCURVE",
"405 483 OFFCURVE",
"396 465 CURVE SMOOTH",
"377 429 OFFCURVE",
"348 406 OFFCURVE",
"314 390 CURVE SMOOTH",
"297 382 OFFCURVE",
"280 374 OFFCURVE",
"264 366 CURVE SMOOTH",
"240 354 OFFCURVE",
"218 339 OFFCURVE",
"203 311 CURVE SMOOTH",
"187 283 OFFCURVE",
"178 243 OFFCURVE",
"178 179 CURVE",
"198 179 LINE"
);
},
{
closed = 1;
nodes = (
"198 84 LINE",
"178 84 LINE",
"178 0 LINE",
"198 0 LINE"
);
}
);
width = 468;
}
);
leftKerningGroup = question;
note = question;
unicode = 003F;
},
{
glyphname = at;
lastChange = "2017-05-18 07:11:10 +0000";
layers = (
{
layerId = "2CA66E5A-B467-404E-84AC-20A403DD408D";
paths = (
{
closed = 1;
nodes = (
"318 603 OFFCURVE",
"228 565 OFFCURVE",
"161 499 CURVE SMOOTH",
"94 433 OFFCURVE",
"50 339 OFFCURVE",
"50 230 CURVE SMOOTH",
"50 125 OFFCURVE",
"91 31 OFFCURVE",
"157 -37 CURVE SMOOTH",
"223 -105 OFFCURVE",
"313 -146 OFFCURVE",
"412 -146 CURVE SMOOTH",
"469 -146 OFFCURVE",
"523 -133 OFFCURVE",
"574 -106 CURVE",
"564 -88 LINE",
"516 -115 OFFCURVE",
"464 -126 OFFCURVE",
"412 -126 CURVE SMOOTH",
"317 -126 OFFCURVE",
"233 -86 OFFCURVE",
"171 -22 CURVE SMOOTH",
"109 42 OFFCURVE",
"70 131 OFFCURVE",
"70 230 CURVE SMOOTH",
"70 333 OFFCURVE",
"111 420 OFFCURVE",
"175 483 CURVE SMOOTH",
"238 546 OFFCURVE",
"324 583 OFFCURVE",
"413 583 CURVE SMOOTH",
"505 583 OFFCURVE",
"590 542 OFFCURVE",
"651 478 CURVE SMOOTH",
"711 413 OFFCURVE",
"749 323 OFFCURVE",
"749 223 CURVE SMOOTH",
"749 180 OFFCURVE",
"743 126 OFFCURVE",
"724 82 CURVE SMOOTH",
"705 38 OFFCURVE",
"675 4 OFFCURVE",
"630 4 CURVE SMOOTH",
"585 4 OFFCURVE",
"577 35 OFFCURVE",
"577 95 CURVE SMOOTH",
"577 248 LINE SMOOTH",
"577 297 OFFCURVE",
"572 348 OFFCURVE",
"551 386 CURVE SMOOTH",
"530 424 OFFCURVE",
"492 449 OFFCURVE",
"427 449 CURVE SMOOTH",
"367 449 OFFCURVE",
"317 428 OFFCURVE",
"270 397 CURVE",
"282 381 LINE",
"325 412 OFFCURVE",
"375 429 OFFCURVE",
"426 429 CURVE SMOOTH",
"478 429 OFFCURVE",
"511 409 OFFCURVE",
"531 377 CURVE SMOOTH",
"551 344 OFFCURVE",
"558 297 OFFCURVE",
"558 242 CURVE",
"535 250 OFFCURVE",
"482 265 OFFCURVE",
"422 265 CURVE SMOOTH",
"379 265 OFFCURVE",
"334 258 OFFCURVE",
"299 239 CURVE SMOOTH",
"264 219 OFFCURVE",
"241 188 OFFCURVE",
"241 140 CURVE SMOOTH",
"241 103 OFFCURVE",
"256 71 OFFCURVE",
"281 48 CURVE SMOOTH",
"306 25 OFFCURVE",
"343 12 OFFCURVE",
"387 12 CURVE SMOOTH",
"456 12 OFFCURVE",
"519 45 OFFCURVE",
"554 84 CURVE",
"557 56 OFFCURVE",
"560 31 OFFCURVE",
"570 13 CURVE SMOOTH",
"580 -5 OFFCURVE",
"597 -16 OFFCURVE",
"629 -16 CURVE SMOOTH",
"672 -16 OFFCURVE",
"702 4 OFFCURVE",
"723 33 CURVE SMOOTH",
"743 61 OFFCURVE",
"754 99 OFFCURVE",
"761 135 CURVE SMOOTH",
"768 170 OFFCURVE",
"769 203 OFFCURVE",
"769 222 CURVE SMOOTH",
"769 327 OFFCURVE",
"729 423 OFFCURVE",
"665 492 CURVE SMOOTH",
"601 560 OFFCURVE",
"512 603 OFFCURVE",
"413 603 CURVE SMOOTH"
);
},
{
closed = 1;
nodes = (
"459 43 OFFCURVE",
"422 32 OFFCURVE",
"387 32 CURVE SMOOTH",
"354 32 OFFCURVE",
"323 42 OFFCURVE",
"300 60 CURVE SMOOTH",
"276 78 OFFCURVE",
"261 105 OFFCURVE",
"261 140 CURVE SMOOTH",
"261 180 OFFCURVE",
"281 207 OFFCURVE",
"311 223 CURVE SMOOTH",
"341 239 OFFCURVE",
"378 245 OFFCURVE",
"417 245 CURVE SMOOTH",
"436 245 OFFCURVE",
"453 244 OFFCURVE",
"469 241 CURVE SMOOTH",
"500 236 OFFCURVE",
"523 229 OFFCURVE",
"539 225 CURVE",
"547 222 OFFCURVE",
"553 221 OFFCURVE",
"557 221 CURVE",
"557 174 LINE SMOOTH",
"557 154 OFFCURVE",
"556 131 OFFCURVE",
"546 111 CURVE SMOOTH",
"536 90 OFFCURVE",
"517 71 OFFCURVE",
"484 55 CURVE SMOOTH"
);
}
);
width = 830;
}
);
leftKerningGroup = at;
note = at;
rightKerningGroup = at;
unicode = 0040;
},
{
glyphname = A;
lastChange = "2017-05-18 07:11:10 +0000";
layers = (
{
layerId = "2CA66E5A-B467-404E-84AC-20A403DD408D";
paths = (
{
closed = 1;
nodes = (
"40 0 LINE",
"151 254 LINE",
"522 254 LINE",
"633 0 LINE",
"655 0 LINE",
"346 710 LINE",
"328 710 LINE",
"18 0 LINE"
);
},
{
closed = 1;
nodes = (
"337 681 LINE",
"513 274 LINE",
"159 274 LINE"
);
}
);
width = 674;
}
);
leftKerningGroup = A;
note = A;
rightKerningGroup = A;
unicode = 0041;
},
{
glyphname = B;
lastChange = "2017-05-18 07:11:10 +0000";
layers = (
{
layerId = "2CA66E5A-B467-404E-84AC-20A403DD408D";
paths = (
{
closed = 1;
nodes = (
"605 224 OFFCURVE",
"593 263 OFFCURVE",
"570 295 CURVE SMOOTH",
"546 327 OFFCURVE",
"513 352 OFFCURVE",
"473 364 CURVE",
"536 392 OFFCURVE",
"575 457 OFFCURVE",
"575 529 CURVE SMOOTH",
"575 573 OFFCURVE",
"559 619 OFFCURVE",
"531 653 CURVE SMOOTH",
"503 687 OFFCURVE",
"462 710 OFFCURVE",
"413 710 CURVE SMOOTH",
"99 710 LINE",
"99 0 LINE",
"428 0 LINE SMOOTH",
"476 0 OFFCURVE",
"521 22 OFFCURVE",
"553 56 CURVE SMOOTH",
"585 90 OFFCURVE",
"605 135 OFFCURVE",
"605 184 CURVE SMOOTH"
);
},
{
closed = 1;
nodes = (
"585 143 OFFCURVE",
"568 102 OFFCURVE",
"540 71 CURVE SMOOTH",
"511 40 OFFCURVE",
"472 20 OFFCURVE",
"428 20 CURVE SMOOTH",
"119 20 LINE",
"119 348 LINE",
"435 348 LINE SMOOTH",
"478 348 OFFCURVE",
"515 329 OFFCURVE",
"542 298 CURVE SMOOTH",
"569 267 OFFCURVE",
"585 227 OFFCURVE",
"585 184 CURVE SMOOTH"
);
},
{
closed = 1;
nodes = (
"454 690 OFFCURVE",
"491 672 OFFCURVE",
"516 642 CURVE SMOOTH",
"540 612 OFFCURVE",
"555 572 OFFCURVE",
"555 529 CURVE SMOOTH",
"555 489 OFFCURVE",
"540 450 OFFCURVE",
"514 419 CURVE SMOOTH",
"488 388 OFFCURVE",
"451 368 OFFCURVE",
"407 368 CURVE SMOOTH",
"119 368 LINE",
"119 690 LINE",
"413 690 LINE SMOOTH"
);
}
);
width = 655;
}
);
leftKerningGroup = B;
note = B;
rightKerningGroup = B;
unicode = 0042;
},
{
glyphname = C;
lastChange = "2017-05-18 07:11:10 +0000";
layers = (
{
layerId = "2CA66E5A-B467-404E-84AC-20A403DD408D";
paths = (
{
closed = 1;
nodes = (
"48 269 OFFCURVE",
"83 178 OFFCURVE",
"141 110 CURVE SMOOTH",
"199 41 OFFCURVE",
"282 -6 OFFCURVE",
"378 -6 CURVE SMOOTH",
"431 -6 OFFCURVE",
"490 8 OFFCURVE",
"541 36 CURVE SMOOTH",
"592 64 OFFCURVE",
"635 106 OFFCURVE",
"659 159 CURVE",
"640 164 LINE",
"612 112 OFFCURVE",
"572 74 OFFCURVE",
"526 50 CURVE SMOOTH",
"480 26 OFFCURVE",
"429 14 OFFCURVE",
"382 14 CURVE SMOOTH",
"294 14 OFFCURVE",
"216 54 OFFCURVE",
"160 118 CURVE SMOOTH",
"103 181 OFFCURVE",
"68 266 OFFCURVE",
"68 357 CURVE SMOOTH",
"68 438 OFFCURVE",
"96 523 OFFCURVE",
"149 587 CURVE SMOOTH",
"202 651 OFFCURVE",
"280 694 OFFCURVE",
"379 694 CURVE SMOOTH",
"424 694 OFFCURVE",
"471 685 OFFCURVE",
"515 663 CURVE SMOOTH",
"558 641 OFFCURVE",
"595 605 OFFCURVE",
"623 553 CURVE",
"642 559 LINE",
"599 650 OFFCURVE",
"510 714 OFFCURVE",
"383 714 CURVE SMOOTH",
"276 714 OFFCURVE",
"192 668 OFFCURVE",
"136 601 CURVE SMOOTH",
"79 533 OFFCURVE",
"48 445 OFFCURVE",
"48 360 CURVE SMOOTH"
);
}
);
width = 697;
}
);
leftKerningGroup = C;
note = C;
rightKerningGroup = C;
unicode = 0043;
},
{
glyphname = D;
lastChange = "2017-05-18 07:11:10 +0000";
layers = (
{
layerId = "2CA66E5A-B467-404E-84AC-20A403DD408D";
paths = (
{
closed = 1;
nodes = (
"428 0 OFFCURVE",
"513 36 OFFCURVE",
"570 98 CURVE SMOOTH",
"627 160 OFFCURVE",
"660 248 OFFCURVE",
"660 356 CURVE SMOOTH",
"660 453 OFFCURVE",
"633 542 OFFCURVE",
"578 606 CURVE SMOOTH",
"522 670 OFFCURVE",
"439 710 OFFCURVE",
"327 710 CURVE SMOOTH",
"99 710 LINE",
"99 0 LINE",
"327 0 LINE SMOOTH"
);
},
{
closed = 1;
nodes = (
"640 260 OFFCURVE",
"613 176 OFFCURVE",
"561 116 CURVE SMOOTH",
"508 56 OFFCURVE",
"430 20 OFFCURVE",
"327 20 CURVE SMOOTH",
"119 20 LINE",
"119 690 LINE",
"327 690 LINE SMOOTH",
"427 690 OFFCURVE",
"506 655 OFFCURVE",
"559 596 CURVE SMOOTH",
"612 536 OFFCURVE",
"640 453 OFFCURVE",
"640 356 CURVE SMOOTH"
);
}
);
width = 711;
}
);
leftKerningGroup = B;
note = D;
rightKerningGroup = D;
unicode = 0044;
},
{
glyphname = E;
lastChange = "2017-05-18 07:11:10 +0000";
layers = (
{
layerId = "2CA66E5A-B467-404E-84AC-20A403DD408D";
paths = (
{
closed = 1;
nodes = (
"119 353 LINE",
"502 353 LINE",
"502 373 LINE",
"119 373 LINE",
"119 690 LINE",
"556 690 LINE",
"556 710 LINE",
"99 710 LINE",
"99 0 LINE",
"565 0 LINE",
"565 20 LINE",
"119 20 LINE"
);
}
);
width = 617;
}
);
leftKerningGroup = B;
note = E;
rightKerningGroup = E;
unicode = 0045;
},
{
glyphname = F;
lastChange = "2017-05-18 07:11:10 +0000";
layers = (
{
layerId = "2CA66E5A-B467-404E-84AC-20A403DD408D";
paths = (
{
closed = 1;
nodes = (
"119 354 LINE",
"492 354 LINE",
"492 374 LINE",
"119 374 LINE",
"119 690 LINE",
"556 690 LINE",
"556 710 LINE",
"99 710 LINE",
"99 0 LINE",
"119 0 LINE"
);
}
);
width = 602;
}
);
leftKerningGroup = B;
note = F;
rightKerningGroup = F;
unicode = 0046;
},
{
glyphname = G;
lastChange = "2017-05-18 07:11:10 +0000";
layers = (
{
layerId = "2CA66E5A-B467-404E-84AC-20A403DD408D";
paths = (
{
closed = 1;
nodes = (
"659 0 LINE",
"659 338 LINE",
"472 338 LINE",
"472 318 LINE",
"639 318 LINE",
"639 149 LINE",
"559 56 OFFCURVE",
"476 15 OFFCURVE",
"383 15 CURVE SMOOTH",
"295 15 OFFCURVE",
"217 55 OFFCURVE",
"160 118 CURVE SMOOTH",
"103 181 OFFCURVE",
"68 266 OFFCURVE",
"68 355 CURVE SMOOTH",
"68 439 OFFCURVE",
"97 524 OFFCURVE",
"150 588 CURVE SMOOTH",
"202 652 OFFCURVE",
"278 695 OFFCURVE",
"371 695 CURVE SMOOTH",
"482 695 OFFCURVE",
"568 654 OFFCURVE",
"623 554 CURVE",
"642 560 LINE",
"619 605 OFFCURVE",
"589 644 OFFCURVE",
"545 672 CURVE SMOOTH",
"501 699 OFFCURVE",
"444 715 OFFCURVE",
"371 715 CURVE SMOOTH",
"276 715 OFFCURVE",
"195 672 OFFCURVE",
"139 605 CURVE SMOOTH",
"82 537 OFFCURVE",
"48 447 OFFCURVE",
"48 355 CURVE SMOOTH",
"48 267 OFFCURVE",
"82 177 OFFCURVE",
"142 109 CURVE SMOOTH",
"201 41 OFFCURVE",
"284 -5 OFFCURVE",
"383 -5 CURVE SMOOTH",
"480 -5 OFFCURVE",
"565 37 OFFCURVE",
"639 121 CURVE",
"639 0 LINE"
);
}
);
width = 720;
}
);
leftKerningGroup = C;
note = G;
rightKerningGroup = G;
unicode = 0047;
},
{
glyphname = H;
lastChange = "2017-05-18 07:11:10 +0000";
layers = (
{
layerId = "2CA66E5A-B467-404E-84AC-20A403DD408D";
paths = (
{
closed = 1;
nodes = (
"612 373 LINE",
"119 373 LINE",
"119 710 LINE",
"99 710 LINE",
"99 0 LINE",
"119 0 LINE",
"119 353 LINE",
"612 353 LINE",
"612 0 LINE",
"632 0 LINE",
"632 710 LINE",
"612 710 LINE"
);
}
);
width = 731;
}
);
leftKerningGroup = B;
note = H;
rightKerningGroup = H;
unicode = 0048;
},
{
glyphname = I;
lastChange = "2017-05-18 07:11:10 +0000";
layers = (
{
layerId = "2CA66E5A-B467-404E-84AC-20A403DD408D";
paths = (
{
closed = 1;
nodes = (
"119 710 LINE",
"99 710 LINE",
"99 0 LINE",
"119 0 LINE"
);
}
);
width = 218;
}
);
leftKerningGroup = B;
note = I;
rightKerningGroup = H;
unicode = 0049;
},
{
glyphname = J;
lastChange = "2017-05-18 07:11:10 +0000";
layers = (
{
layerId = "2CA66E5A-B467-404E-84AC-20A403DD408D";
paths = (
{
closed = 1;
nodes = (
"62 4 OFFCURVE",
"113 -11 OFFCURVE",
"173 -11 CURVE SMOOTH",
"266 -11 OFFCURVE",
"319 25 OFFCURVE",
"348 88 CURVE SMOOTH",
"377 151 OFFCURVE",
"383 241 OFFCURVE",
"383 349 CURVE SMOOTH",
"383 710 LINE",
"363 710 LINE",
"363 349 LINE SMOOTH",
"363 242 OFFCURVE",
"358 158 OFFCURVE",
"332 100 CURVE SMOOTH",
"306 42 OFFCURVE",
"258 9 OFFCURVE",
"173 9 CURVE SMOOTH",
"116 9 OFFCURVE",
"69 22 OFFCURVE",
"30 49 CURVE",
"19 33 LINE"
);
}
);
width = 473;
}
);
leftKerningGroup = J;
note = J;
rightKerningGroup = J;
unicode = 004A;
},
{
glyphname = K;
lastChange = "2017-05-18 07:11:10 +0000";
layers = (
{
layerId = "2CA66E5A-B467-404E-84AC-20A403DD408D";
paths = (
{
closed = 1;
nodes = (
"119 221 LINE",
"282 386 LINE",
"588 0 LINE",
"614 0 LINE",
"297 400 LINE",
"600 710 LINE",
"571 710 LINE",
"119 249 LINE",
"119 710 LINE",
"99 710 LINE",
"99 0 LINE",
"119 0 LINE"
);
}
);
width = 621;
}
);
leftKerningGroup = B;
note = K;
rightKerningGroup = K;
unicode = 004B;
},
{
glyphname = L;
lastChange = "2017-05-18 07:11:10 +0000";
layers = (
{
layerId = "2CA66E5A-B467-404E-84AC-20A403DD408D";
paths = (
{
closed = 1;
nodes = (
"565 20 LINE",
"119 20 LINE",
"119 710 LINE",
"99 710 LINE",
"99 0 LINE",
"565 0 LINE"
);
}
);
width = 579;
}
);
leftKerningGroup = B;
note = L;
rightKerningGroup = L;
unicode = 004C;
},
{
glyphname = M;
lastChange = "2017-05-18 07:11:10 +0000";
layers = (
{
layerId = "2CA66E5A-B467-404E-84AC-20A403DD408D";
paths = (
{
closed = 1;
nodes = (
"785 710 LINE",
"769 710 LINE",
"442 164 LINE",
"115 710 LINE",
"99 710 LINE",
"99 0 LINE",
"119 0 LINE",
"119 666 LINE",
"434 140 LINE",
"450 140 LINE",
"765 666 LINE",
"765 0 LINE",
"785 0 LINE"
);
}
);
width = 884;
}
);
leftKerningGroup = B;
note = M;
rightKerningGroup = H;
unicode = 004D;
},
{
glyphname = N;
lastChange = "2017-05-18 07:11:10 +0000";
layers = (
{
layerId = "2CA66E5A-B467-404E-84AC-20A403DD408D";
paths = (
{
closed = 1;
nodes = (
"677 0 LINE",
"677 710 LINE",
"657 710 LINE",
"657 29 LINE",
"114 710 LINE",
"99 710 LINE",
"99 0 LINE",
"119 0 LINE",
"119 671 LINE",
"654 0 LINE"
);
}
);
width = 776;
}
);
leftKerningGroup = B;
note = N;
rightKerningGroup = H;
unicode = 004E;
},
{
glyphname = O;
lastChange = "2017-05-18 07:11:10 +0000";
layers = (
{
layerId = "2CA66E5A-B467-404E-84AC-20A403DD408D";
paths = (
{
closed = 1;
nodes = (
"472 -5 OFFCURVE",
"554 38 OFFCURVE",
"614 104 CURVE SMOOTH",
"673 170 OFFCURVE",
"709 259 OFFCURVE",
"709 355 CURVE SMOOTH",
"709 443 OFFCURVE",
"676 533 OFFCURVE",
"618 601 CURVE SMOOTH",
"560 669 OFFCURVE",
"476 715 OFFCURVE",
"379 715 CURVE SMOOTH",
"286 715 OFFCURVE",
"203 673 OFFCURVE",
"144 606 CURVE SMOOTH",
"84 539 OFFCURVE",
"48 450 OFFCURVE",
"48 355 CURVE SMOOTH",
"48 264 OFFCURVE",
"81 174 OFFCURVE",
"140 107 CURVE SMOOTH",
"199 40 OFFCURVE",
"280 -5 OFFCURVE",
"379 -5 CURVE SMOOTH"
);
},
{
closed = 1;
nodes = (
"68 439 OFFCURVE",
"99 524 OFFCURVE",
"154 588 CURVE SMOOTH",
"209 652 OFFCURVE",
"287 695 OFFCURVE",
"379 695 CURVE SMOOTH",
"467 695 OFFCURVE",
"544 655 OFFCURVE",
"600 592 CURVE SMOOTH",
"656 528 OFFCURVE",
"689 443 OFFCURVE",
"689 355 CURVE SMOOTH",
"689 271 OFFCURVE",
"658 186 OFFCURVE",
"604 122 CURVE SMOOTH",
"550 58 OFFCURVE",
"471 15 OFFCURVE",
"379 15 CURVE SMOOTH",
"288 15 OFFCURVE",
"211 55 OFFCURVE",
"156 119 CURVE SMOOTH",
"101 182 OFFCURVE",
"68 267 OFFCURVE",
"68 355 CURVE SMOOTH"
);
}
);
width = 757;
}
);
leftKerningGroup = C;
note = O;
rightKerningGroup = O;
unicode = 004F;
},
{
glyphname = P;
lastChange = "2017-05-18 07:11:10 +0000";
layers = (
{
layerId = "2CA66E5A-B467-404E-84AC-20A403DD408D";
paths = (
{
closed = 1;
nodes = (
"119 279 LINE",
"395 279 LINE SMOOTH",
"452 279 OFFCURVE",
"501 305 OFFCURVE",
"535 345 CURVE SMOOTH",
"569 385 OFFCURVE",
"588 439 OFFCURVE",
"588 495 CURVE SMOOTH",
"588 548 OFFCURVE",
"567 602 OFFCURVE",
"532 643 CURVE SMOOTH",
"496 683 OFFCURVE",
"445 710 OFFCURVE",
"388 710 CURVE SMOOTH",
"99 710 LINE",
"99 0 LINE",
"119 0 LINE"
);
},
{
closed = 1;
nodes = (
"388 690 LINE SMOOTH",
"437 690 OFFCURVE",
"483 666 OFFCURVE",
"516 630 CURVE SMOOTH",
"548 594 OFFCURVE",
"568 546 OFFCURVE",
"568 495 CURVE SMOOTH",
"568 447 OFFCURVE",
"551 398 OFFCURVE",
"522 361 CURVE SMOOTH",
"493 324 OFFCURVE",
"448 299 OFFCURVE",
"395 299 CURVE SMOOTH",
"119 299 LINE",
"119 690 LINE"
);
}
);
width = 619;
}
);
leftKerningGroup = B;
note = P;
rightKerningGroup = P;
unicode = 0050;
},
{
glyphname = Q;
lastChange = "2017-05-18 07:11:10 +0000";
layers = (
{
layerId = "2CA66E5A-B467-404E-84AC-20A403DD408D";
paths = (
{
closed = 1;
nodes = (
"672 0 LINE",
"600 89 LINE",
"668 157 OFFCURVE",
"709 251 OFFCURVE",
"709 355 CURVE SMOOTH",
"709 443 OFFCURVE",
"676 533 OFFCURVE",
"618 601 CURVE SMOOTH",
"560 669 OFFCURVE",
"476 715 OFFCURVE",
"379 715 CURVE SMOOTH",
"286 715 OFFCURVE",
"203 673 OFFCURVE",
"144 606 CURVE SMOOTH",
"84 539 OFFCURVE",
"48 450 OFFCURVE",
"48 355 CURVE SMOOTH",
"48 264 OFFCURVE",
"81 174 OFFCURVE",
"140 107 CURVE SMOOTH",
"199 40 OFFCURVE",
"280 -5 OFFCURVE",
"379 -5 CURVE SMOOTH",
"459 -5 OFFCURVE",
"530 25 OFFCURVE",
"586 76 CURVE",
"647 0 LINE"
);
},
{
closed = 1;
nodes = (
"288 15 OFFCURVE",
"211 55 OFFCURVE",
"156 119 CURVE SMOOTH",
"101 182 OFFCURVE",
"68 267 OFFCURVE",
"68 355 CURVE SMOOTH",
"68 439 OFFCURVE",
"99 524 OFFCURVE",
"154 588 CURVE SMOOTH",
"209 652 OFFCURVE",
"287 695 OFFCURVE",
"379 695 CURVE SMOOTH",
"467 695 OFFCURVE",
"544 655 OFFCURVE",
"600 592 CURVE SMOOTH",
"656 528 OFFCURVE",
"689 443 OFFCURVE",
"689 355 CURVE SMOOTH",
"689 263 OFFCURVE",
"652 172 OFFCURVE",
"588 105 CURVE",
"524 186 LINE",
"499 186 LINE",
"574 92 LINE",
"522 45 OFFCURVE",
"456 15 OFFCURVE",
"379 15 CURVE SMOOTH"
);
}
);
width = 757;
}
);
leftKerningGroup = C;
note = Q;
rightKerningGroup = O;
unicode = 0051;
},
{
glyphname = R;
lastChange = "2017-05-18 07:11:10 +0000";
layers = (
{
layerId = "2CA66E5A-B467-404E-84AC-20A403DD408D";
paths = (
{
closed = 1;
nodes = (
"119 279 LINE",
"383 279 LINE",
"563 0 LINE",
"587 0 LINE",
"407 279 LINE",
"460 283 OFFCURVE",
"506 309 OFFCURVE",
"538 349 CURVE SMOOTH",
"570 388 OFFCURVE",
"588 440 OFFCURVE",
"588 495 CURVE SMOOTH",
"588 548 OFFCURVE",
"567 602 OFFCURVE",
"532 643 CURVE SMOOTH",
"496 683 OFFCURVE",
"445 710 OFFCURVE",
"388 710 CURVE SMOOTH",
"99 710 LINE",
"99 0 LINE",
"119 0 LINE"
);
},
{
closed = 1;
nodes = (
"388 690 LINE SMOOTH",
"437 690 OFFCURVE",
"483 666 OFFCURVE",
"516 630 CURVE SMOOTH",
"548 594 OFFCURVE",
"568 546 OFFCURVE",
"568 495 CURVE SMOOTH",
"568 446 OFFCURVE",
"552 397 OFFCURVE",
"522 361 CURVE SMOOTH",
"492 324 OFFCURVE",
"448 299 OFFCURVE",
"395 299 CURVE SMOOTH",
"119 299 LINE",
"119 690 LINE"
);
}
);
width = 642;
}
);
leftKerningGroup = B;
note = R;
rightKerningGroup = R;
unicode = 0052;
},
{
glyphname = S;
lastChange = "2017-05-18 07:11:10 +0000";
layers = (
{
layerId = "2CA66E5A-B467-404E-84AC-20A403DD408D";
paths = (
{
closed = 1;
nodes = (
"466 691 OFFCURVE",
"402 715 OFFCURVE",
"311 715 CURVE SMOOTH",
"235 715 OFFCURVE",
"174 698 OFFCURVE",
"131 666 CURVE SMOOTH",
"87 633 OFFCURVE",
"63 585 OFFCURVE",
"63 524 CURVE SMOOTH",
"63 465 OFFCURVE",
"85 428 OFFCURVE",
"127 402 CURVE SMOOTH",
"169 376 OFFCURVE",
"229 361 OFFCURVE",
"308 346 CURVE SMOOTH",
"389 330 OFFCURVE",
"449 313 OFFCURVE",
"488 286 CURVE SMOOTH",
"527 259 OFFCURVE",
"545 224 OFFCURVE",
"545 171 CURVE SMOOTH",
"545 64 OFFCURVE",
"457 12 OFFCURVE",
"316 12 CURVE SMOOTH",
"208 12 OFFCURVE",
"126 43 OFFCURVE",
"54 118 CURVE",
"39 105 LINE",
"115 29 OFFCURVE",
"200 -5 OFFCURVE",
"315 -5 CURVE SMOOTH",
"471 -5 OFFCURVE",
"565 58 OFFCURVE",
"565 174 CURVE SMOOTH",
"565 237 OFFCURVE",
"540 276 OFFCURVE",
"496 304 CURVE SMOOTH",
"451 332 OFFCURVE",
"386 349 OFFCURVE",
"307 365 CURVE SMOOTH",
"228 381 OFFCURVE",
"172 396 OFFCURVE",
"136 420 CURVE SMOOTH",
"100 443 OFFCURVE",
"83 475 OFFCURVE",
"83 526 CURVE SMOOTH",
"83 578 OFFCURVE",
"100 620 OFFCURVE",
"137 650 CURVE SMOOTH",
"174 680 OFFCURVE",
"232 696 OFFCURVE",
"313 696 CURVE SMOOTH",
"397 696 OFFCURVE",
"453 677 OFFCURVE",
"509 616 CURVE",
"522 630 LINE"
);
}
);
width = 602;
}
);
leftKerningGroup = S;
note = S;
rightKerningGroup = S;
unicode = 0053;
},
{
glyphname = T;
lastChange = "2017-05-18 07:11:10 +0000";
layers = (
{
layerId = "2CA66E5A-B467-404E-84AC-20A403DD408D";
paths = (
{
closed = 1;
nodes = (
"18 710 LINE",
"18 690 LINE",
"290 690 LINE",
"290 0 LINE",
"310 0 LINE",
"310 690 LINE",
"582 690 LINE",
"582 710 LINE"
);
}
);
width = 600;
}
);
leftKerningGroup = T;
note = T;
rightKerningGroup = T;
unicode = 0054;
},
{
glyphname = U;
lastChange = "2017-05-18 07:11:10 +0000";
layers = (
{
layerId = "2CA66E5A-B467-404E-84AC-20A403DD408D";
paths = (
{
closed = 1;
nodes = (
"273 15 OFFCURVE",
"205 57 OFFCURVE",
"164 121 CURVE SMOOTH",
"123 185 OFFCURVE",
"108 270 OFFCURVE",
"108 355 CURVE SMOOTH",
"108 710 LINE",
"88 710 LINE",
"88 355 LINE SMOOTH",
"88 266 OFFCURVE",
"105 176 OFFCURVE",
"150 108 CURVE SMOOTH",
"194 40 OFFCURVE",
"267 -5 OFFCURVE",
"379 -5 CURVE SMOOTH",
"488 -5 OFFCURVE",
"561 39 OFFCURVE",
"606 105 CURVE SMOOTH",
"651 171 OFFCURVE",
"669 260 OFFCURVE",
"669 355 CURVE SMOOTH",
"669 710 LINE",
"649 710 LINE",
"649 355 LINE SMOOTH",
"649 272 OFFCURVE",
"634 187 OFFCURVE",
"594 123 CURVE SMOOTH",
"553 59 OFFCURVE",
"485 15 OFFCURVE",
"378 15 CURVE SMOOTH"
);
}
);
width = 756;
}
);
leftKerningGroup = U;
note = U;
rightKerningGroup = U;
unicode = 0055;
},
{
glyphname = V;
lastChange = "2017-05-18 07:11:10 +0000";
layers = (
{
layerId = "2CA66E5A-B467-404E-84AC-20A403DD408D";
paths = (
{
closed = 1;
nodes = (
"328 0 LINE",
"350 0 LINE",
"659 710 LINE",
"637 710 LINE",
"339 25 LINE",
"40 710 LINE",
"19 710 LINE"
);
}
);
width = 678;
}
);
leftKerningGroup = V;
note = V;
rightKerningGroup = V;
unicode = 0056;
},
{
glyphname = W;
lastChange = "2017-05-18 07:11:10 +0000";
layers = (
{
layerId = "2CA66E5A-B467-404E-84AC-20A403DD408D";
paths = (
{
closed = 1;
nodes = (
"339 25 LINE",
"41 710 LINE",
"19 710 LINE",
"328 0 LINE",
"350 0 LINE",
"519 389 LINE",
"688 0 LINE",
"710 0 LINE",
"1019 710 LINE",
"997 710 LINE",
"699 25 LINE",
"529 414 LINE",
"656 704 LINE",
"634 704 LINE",
"518 438 LINE",
"403 704 LINE",
"381 704 LINE",
"508 414 LINE"
);
}
);
width = 1038;
}
);
leftKerningGroup = W;
note = W;
rightKerningGroup = W;
unicode = 0057;
},
{
glyphname = X;
lastChange = "2017-05-18 07:11:10 +0000";
layers = (
{
layerId = "2CA66E5A-B467-404E-84AC-20A403DD408D";
paths = (
{
closed = 1;
nodes = (
"298 350 LINE",
"19 0 LINE",
"45 0 LINE",
"311 334 LINE",
"577 0 LINE",
"602 0 LINE",
"323 350 LINE",
"610 710 LINE",
"585 710 LINE",
"311 366 LINE",
"37 710 LINE",
"11 710 LINE"
);
}
);
width = 621;
}
);
leftKerningGroup = X;
note = X;
rightKerningGroup = X;
unicode = 0058;
},
{
glyphname = Y;
lastChange = "2017-05-18 07:11:10 +0000";
layers = (
{
layerId = "2CA66E5A-B467-404E-84AC-20A403DD408D";
paths = (
{
closed = 1;
nodes = (
"310 277 LINE",
"310 0 LINE",
"330 0 LINE",
"330 275 LINE",
"618 710 LINE",
"595 710 LINE",
"320 298 LINE",
"46 710 LINE",
"23 710 LINE"
);
}
);
width = 641;
}
);
leftKerningGroup = Y;
note = Y;
rightKerningGroup = Y;
unicode = 0059;
},
{
glyphname = Z;
lastChange = "2017-05-18 07:11:10 +0000";
layers = (
{
layerId = "2CA66E5A-B467-404E-84AC-20A403DD408D";
paths = (
{
closed = 1;
nodes = (
"591 0 LINE",
"591 20 LINE",
"53 20 LINE",
"595 690 LINE",
"595 710 LINE",
"33 710 LINE",
"33 690 LINE",
"570 690 LINE",
"28 20 LINE",
"28 0 LINE"
);
}
);
width = 624;
}
);
leftKerningGroup = Z;
note = Z;
rightKerningGroup = Z;
unicode = 005A;
},
{
glyphname = bracketleft;
lastChange = "2017-05-18 07:11:10 +0000";
layers = (
{
layerId = "2CA66E5A-B467-404E-84AC-20A403DD408D";
paths = (
{
closed = 1;
nodes = (
"167 -20 LINE",
"117 -20 LINE",
"117 720 LINE",
"167 720 LINE",
"167 740 LINE",
"97 740 LINE",
"97 -40 LINE",
"167 -40 LINE"
);
}
);
width = 228;
}
);
note = bracketleft;
rightKerningGroup = bracketleft;
unicode = 005B;
},
{
glyphname = backslash;
lastChange = "2017-05-18 07:11:10 +0000";
layers = (
{
layerId = "2CA66E5A-B467-404E-84AC-20A403DD408D";
paths = (
{
closed = 1;
nodes = (
"463 0 LINE",
"488 0 LINE",
"53 710 LINE",
"27 710 LINE"
);
}
);
width = 514;
}
);
leftKerningGroup = backslash;
note = backslash;
rightKerningGroup = backslash;
unicode = 005C;
},
{
glyphname = bracketright;
lastChange = "2017-05-18 07:11:10 +0000";
layers = (
{
layerId = "2CA66E5A-B467-404E-84AC-20A403DD408D";
paths = (
{
closed = 1;
nodes = (
"131 740 LINE",
"61 740 LINE",
"61 720 LINE",
"111 720 LINE",
"111 -20 LINE",
"61 -20 LINE",
"61 -40 LINE",
"131 -40 LINE"
);
}
);
width = 228;
}
);
leftKerningGroup = bracketright;
note = bracketright;
unicode = 005D;
},
{
glyphname = asciicircum;
lastChange = "2017-05-18 07:11:10 +0000";
layers = (
{
layerId = "2CA66E5A-B467-404E-84AC-20A403DD408D";
paths = (
{
closed = 1;
nodes = (
"253 681 LINE",
"436 303 LINE",
"459 303 LINE",
"262 710 LINE",
"244 710 LINE",
"46 303 LINE",
"67 303 LINE"
);
}
);
width = 505;
}
);
note = asciicircum;
unicode = 005E;
},
{
glyphname = underscore;
lastChange = "2017-05-18 07:11:10 +0000";
layers = (
{
layerId = "2CA66E5A-B467-404E-84AC-20A403DD408D";
paths = (
{
closed = 1;
nodes = (
"462 0 LINE",
"69 0 LINE",
"69 -20 LINE",
"462 -20 LINE"
);
}
);
width = 531;
}
);
note = underscore;
unicode = 005F;
},
{
glyphname = grave;
lastChange = "2017-05-18 07:11:10 +0000";
layers = (
{
layerId = "2CA66E5A-B467-404E-84AC-20A403DD408D";
paths = (
{
closed = 1;
nodes = (
"148 657 LINE",
"83 730 LINE",
"50 730 LINE",
"132 645 LINE"
);
}
);
width = 198;
}
);
note = grave;
unicode = 0060;
},
{
glyphname = a;
lastChange = "2017-05-18 07:11:10 +0000";
layers = (
{
layerId = "2CA66E5A-B467-404E-84AC-20A403DD408D";
paths = (
{
closed = 1;
nodes = (
"298 -10 OFFCURVE",
"379 25 OFFCURVE",
"427 88 CURVE",
"427 40 LINE SMOOTH",
"427 31 OFFCURVE",
"429 24 OFFCURVE",
"433 17 CURVE SMOOTH",
"441 3 OFFCURVE",
"448 0 OFFCURVE",
"463 0 CURVE",
"463 20 LINE",
"452 20 OFFCURVE",
"447 27 OFFCURVE",
"447 40 CURVE SMOOTH",
"447 327 LINE SMOOTH",
"447 388 OFFCURVE",
"428 438 OFFCURVE",
"396 473 CURVE SMOOTH",
"363 508 OFFCURVE",
"314 527 OFFCURVE",
"257 527 CURVE SMOOTH",
"204 527 OFFCURVE",
"144 504 OFFCURVE",
"77 459 CURVE",
"89 443 LINE",
"148 484 OFFCURVE",
"206 507 OFFCURVE",
"257 507 CURVE SMOOTH",
"308 507 OFFCURVE",
"351 489 OFFCURVE",
"381 458 CURVE SMOOTH",
"411 426 OFFCURVE",
"427 380 OFFCURVE",
"427 327 CURVE SMOOTH",
"427 268 LINE",
"378 287 OFFCURVE",
"313 297 OFFCURVE",
"253 297 CURVE SMOOTH",
"190 297 OFFCURVE",
"137 282 OFFCURVE",
"99 256 CURVE SMOOTH",
"61 230 OFFCURVE",
"39 193 OFFCURVE",
"39 149 CURVE SMOOTH",
"39 105 OFFCURVE",
"58 65 OFFCURVE",
"88 37 CURVE SMOOTH",
"118 8 OFFCURVE",
"160 -10 OFFCURVE",
"207 -10 CURVE SMOOTH"
);
},
{
closed = 1;
nodes = (
"166 10 OFFCURVE",
"129 25 OFFCURVE",
"102 50 CURVE SMOOTH",
"75 75 OFFCURVE",
"59 110 OFFCURVE",
"59 149 CURVE SMOOTH",
"59 188 OFFCURVE",
"79 219 OFFCURVE",
"113 242 CURVE SMOOTH",
"147 265 OFFCURVE",
"194 277 OFFCURVE",
"253 277 CURVE SMOOTH",
"316 277 OFFCURVE",
"374 267 OFFCURVE",
"427 246 CURVE",
"427 143 LINE SMOOTH",
"427 130 OFFCURVE",
"422 116 OFFCURVE",
"412 102 CURVE",
"376 46 OFFCURVE",
"296 10 OFFCURVE",
"207 10 CURVE SMOOTH"
);
}
);
width = 524;
}
);
leftKerningGroup = a;
note = a;
rightKerningGroup = a;
unicode = 0061;
},
{
glyphname = b;
lastChange = "2017-05-18 07:11:10 +0000";
layers = (
{
layerId = "2CA66E5A-B467-404E-84AC-20A403DD408D";
paths = (
{
closed = 1;
nodes = (
"378 -10 OFFCURVE",
"440 22 OFFCURVE",
"485 71 CURVE SMOOTH",
"530 120 OFFCURVE",
"557 187 OFFCURVE",
"557 258 CURVE SMOOTH",
"557 322 OFFCURVE",
"534 389 OFFCURVE",
"494 441 CURVE SMOOTH",
"453 492 OFFCURVE",
"392 527 OFFCURVE",
"316 527 CURVE SMOOTH",
"225 527 OFFCURVE",
"157 473 OFFCURVE",
"104 398 CURVE",
"104 730 LINE",
"84 730 LINE",
"84 0 LINE",
"104 0 LINE",
"104 108 LINE",
"124 75 OFFCURVE",
"155 45 OFFCURVE",
"191 24 CURVE SMOOTH",
"226 3 OFFCURVE",
"266 -10 OFFCURVE",
"307 -10 CURVE SMOOTH"
);
},
{
closed = 1;
nodes = (
"267 10 OFFCURVE",
"217 28 OFFCURVE",
"177 57 CURVE SMOOTH",
"137 85 OFFCURVE",
"107 124 OFFCURVE",
"104 167 CURVE",
"104 356 LINE",
"124 396 OFFCURVE",
"152 433 OFFCURVE",
"188 461 CURVE SMOOTH",
"223 489 OFFCURVE",
"267 507 OFFCURVE",
"316 507 CURVE SMOOTH",
"381 507 OFFCURVE",
"436 477 OFFCURVE",
"476 431 CURVE SMOOTH",
"515 385 OFFCURVE",
"537 322 OFFCURVE",
"537 258 CURVE SMOOTH",
"537 197 OFFCURVE",
"513 135 OFFCURVE",
"473 88 CURVE SMOOTH",
"432 41 OFFCURVE",
"374 10 OFFCURVE",
"307 10 CURVE SMOOTH"
);
}
);
width = 603;
}
);
leftKerningGroup = b;
note = b;
rightKerningGroup = b;
unicode = 0062;
},
{
glyphname = c;
lastChange = "2017-05-18 07:11:10 +0000";
layers = (
{
layerId = "2CA66E5A-B467-404E-84AC-20A403DD408D";
paths = (
{
closed = 1;
nodes = (
"46 187 OFFCURVE",
"75 119 OFFCURVE",
"120 70 CURVE SMOOTH",
"165 21 OFFCURVE",
"229 -10 OFFCURVE",
"297 -10 CURVE SMOOTH",
"342 -10 OFFCURVE",
"387 4 OFFCURVE",
"423 26 CURVE SMOOTH",
"459 48 OFFCURVE",
"486 78 OFFCURVE",
"498 113 CURVE",
"478 119 LINE",
"470 91 OFFCURVE",
"445 63 OFFCURVE",
"411 43 CURVE SMOOTH",
"377 23 OFFCURVE",
"334 10 OFFCURVE",
"294 10 CURVE SMOOTH",
"231 10 OFFCURVE",
"176 39 OFFCURVE",
"134 85 CURVE SMOOTH",
"92 131 OFFCURVE",
"66 194 OFFCURVE",
"66 262 CURVE SMOOTH",
"66 330 OFFCURVE",
"91 392 OFFCURVE",
"132 436 CURVE SMOOTH",
"173 480 OFFCURVE",
"229 507 OFFCURVE",
"293 507 CURVE SMOOTH",
"369 507 OFFCURVE",
"436 468 OFFCURVE",
"471 404 CURVE",
"491 411 LINE",
"456 484 OFFCURVE",
"384 527 OFFCURVE",
"296 527 CURVE SMOOTH",
"225 527 OFFCURVE",
"163 498 OFFCURVE",
"118 451 CURVE SMOOTH",
"73 403 OFFCURVE",
"46 337 OFFCURVE",
"46 262 CURVE SMOOTH"
);
}
);
width = 538;
}
);
leftKerningGroup = c;
note = c;
rightKerningGroup = c;
unicode = 0063;
},
{
glyphname = d;
lastChange = "2017-05-18 07:11:10 +0000";
layers = (
{
layerId = "2CA66E5A-B467-404E-84AC-20A403DD408D";
paths = (
{
closed = 1;
nodes = (
"336 -10 OFFCURVE",
"375 2 OFFCURVE",
"411 23 CURVE SMOOTH",
"446 44 OFFCURVE",
"476 73 OFFCURVE",
"499 108 CURVE",
"499 40 LINE SMOOTH",
"499 24 OFFCURVE",
"507 9 OFFCURVE",
"522 2 CURVE",
"525 1 OFFCURVE",
"529 0 OFFCURVE",
"535 0 CURVE",
"535 20 LINE",
"524 20 OFFCURVE",
"519 27 OFFCURVE",
"519 40 CURVE SMOOTH",
"519 730 LINE",
"499 730 LINE",
"499 398 LINE",
"478 433 OFFCURVE",
"449 465 OFFCURVE",
"413 489 CURVE SMOOTH",
"377 512 OFFCURVE",
"335 527 OFFCURVE",
"287 527 CURVE SMOOTH",
"218 527 OFFCURVE",
"158 495 OFFCURVE",
"115 446 CURVE SMOOTH",
"71 397 OFFCURVE",
"46 330 OFFCURVE",
"46 258 CURVE SMOOTH",
"46 191 OFFCURVE",
"72 125 OFFCURVE",
"117 74 CURVE SMOOTH",
"161 23 OFFCURVE",
"224 -10 OFFCURVE",
"296 -10 CURVE SMOOTH"
);
},
{
closed = 1;
nodes = (
"232 10 OFFCURVE",
"174 40 OFFCURVE",
"133 86 CURVE SMOOTH",
"92 132 OFFCURVE",
"66 193 OFFCURVE",
"66 258 CURVE SMOOTH",
"66 319 OFFCURVE",
"87 382 OFFCURVE",
"126 429 CURVE SMOOTH",
"165 476 OFFCURVE",
"219 507 OFFCURVE",
"287 507 CURVE SMOOTH",
"328 507 OFFCURVE",
"374 490 OFFCURVE",
"413 463 CURVE SMOOTH",
"452 435 OFFCURVE",
"484 397 OFFCURVE",
"499 356 CURVE",
"499 169 LINE",
"496 126 OFFCURVE",
"466 86 OFFCURVE",
"426 58 CURVE SMOOTH",
"386 29 OFFCURVE",
"336 10 OFFCURVE",
"296 10 CURVE SMOOTH"
);
}
);
width = 604;
}
);
leftKerningGroup = d;
note = d;
rightKerningGroup = d;
unicode = 0064;
},
{
glyphname = e;
lastChange = "2017-05-18 07:11:10 +0000";
layers = (
{
layerId = "2CA66E5A-B467-404E-84AC-20A403DD408D";
paths = (
{
closed = 1;
nodes = (
"341 -10 OFFCURVE",
"386 4 OFFCURVE",
"423 26 CURVE SMOOTH",
"459 48 OFFCURVE",
"487 78 OFFCURVE",
"502 114 CURVE",
"483 119 LINE",
"468 87 OFFCURVE",
"442 60 OFFCURVE",
"409 41 CURVE SMOOTH",
"376 21 OFFCURVE",
"337 10 OFFCURVE",
"297 10 CURVE SMOOTH",
"237 10 OFFCURVE",
"181 36 OFFCURVE",
"140 79 CURVE SMOOTH",
"99 122 OFFCURVE",
"71 181 OFFCURVE",
"66 248 CURVE",
"541 248 LINE",
"541 259 LINE SMOOTH",
"541 334 OFFCURVE",
"512 401 OFFCURVE",
"468 449 CURVE SMOOTH",
"423 497 OFFCURVE",
"360 527 OFFCURVE",
"291 527 CURVE SMOOTH",
"223 527 OFFCURVE",
"162 498 OFFCURVE",
"118 450 CURVE SMOOTH",
"73 402 OFFCURVE",
"46 336 OFFCURVE",
"46 263 CURVE SMOOTH",
"46 188 OFFCURVE",
"75 121 OFFCURVE",
"120 71 CURVE SMOOTH",
"165 21 OFFCURVE",
"228 -10 OFFCURVE",
"296 -10 CURVE SMOOTH"
);
},
{
closed = 1;
nodes = (
"70 336 OFFCURVE",
"95 396 OFFCURVE",
"136 439 CURVE SMOOTH",
"176 482 OFFCURVE",
"231 507 OFFCURVE",
"292 507 CURVE SMOOTH",
"353 507 OFFCURVE",
"408 482 OFFCURVE",
"449 440 CURVE SMOOTH",
"489 398 OFFCURVE",
"516 337 OFFCURVE",
"520 268 CURVE",
"66 268 LINE"
);
}
);
width = 576;
}
);
leftKerningGroup = c;
note = e;
rightKerningGroup = e;
unicode = 0065;
},
{
glyphname = f;
lastChange = "2017-05-18 07:11:10 +0000";
layers = (
{
layerId = "2CA66E5A-B467-404E-84AC-20A403DD408D";
paths = (
{
closed = 1;
nodes = (
"123 499 LINE",
"278 499 LINE",
"278 519 LINE",
"123 519 LINE",
"123 540 LINE SMOOTH",
"123 657 OFFCURVE",
"165 721 OFFCURVE",
"241 721 CURVE SMOOTH",
"272 721 OFFCURVE",
"303 710 OFFCURVE",
"319 694 CURVE",
"335 706 LINE",
"316 726 OFFCURVE",
"279 740 OFFCURVE",
"240 740 CURVE SMOOTH",
"153 740 OFFCURVE",
"103 667 OFFCURVE",
"103 540 CURVE SMOOTH",
"103 519 LINE",
"28 519 LINE",
"28 499 LINE",
"103 499 LINE",
"103 0 LINE",
"123 0 LINE"
);
}
);
width = 299;
}
);
leftKerningGroup = f;
note = f;
rightKerningGroup = f;
unicode = 0066;
},
{
glyphname = g;
lastChange = "2017-05-18 07:11:10 +0000";
layers = (
{
layerId = "2CA66E5A-B467-404E-84AC-20A403DD408D";
paths = (
{
closed = 1;
nodes = (
"336 -10 OFFCURVE",
"375 2 OFFCURVE",
"411 23 CURVE SMOOTH",
"446 44 OFFCURVE",
"476 73 OFFCURVE",
"499 108 CURVE",
"499 -22 LINE SMOOTH",
"499 -82 OFFCURVE",
"476 -126 OFFCURVE",
"438 -157 CURVE SMOOTH",
"400 -188 OFFCURVE",
"347 -203 OFFCURVE",
"290 -203 CURVE SMOOTH",
"206 -203 OFFCURVE",
"127 -172 OFFCURVE",
"84 -93 CURVE",
"65 -99 LINE",
"104 -174 OFFCURVE",
"167 -223 OFFCURVE",
"290 -223 CURVE SMOOTH",
"349 -223 OFFCURVE",
"406 -207 OFFCURVE",
"449 -174 CURVE SMOOTH",
"492 -141 OFFCURVE",
"519 -90 OFFCURVE",
"519 -22 CURVE SMOOTH",
"519 519 LINE",
"499 519 LINE",
"499 398 LINE",
"474 434 OFFCURVE",
"445 466 OFFCURVE",
"410 490 CURVE SMOOTH",
"374 513 OFFCURVE",
"334 527 OFFCURVE",
"287 527 CURVE SMOOTH",
"216 527 OFFCURVE",
"156 495 OFFCURVE",
"113 445 CURVE SMOOTH",
"70 395 OFFCURVE",
"46 327 OFFCURVE",
"46 258 CURVE SMOOTH",
"46 191 OFFCURVE",
"72 125 OFFCURVE",
"117 74 CURVE SMOOTH",
"161 23 OFFCURVE",
"224 -10 OFFCURVE",
"296 -10 CURVE SMOOTH"
);
},
{
closed = 1;
nodes = (
"232 10 OFFCURVE",
"174 40 OFFCURVE",
"133 86 CURVE SMOOTH",
"92 132 OFFCURVE",
"66 193 OFFCURVE",
"66 258 CURVE SMOOTH",
"66 317 OFFCURVE",
"87 379 OFFCURVE",
"124 427 CURVE SMOOTH",
"161 474 OFFCURVE",
"216 507 OFFCURVE",
"287 507 CURVE SMOOTH",
"331 507 OFFCURVE",
"377 491 OFFCURVE",
"414 464 CURVE SMOOTH",
"451 437 OFFCURVE",
"483 400 OFFCURVE",
"499 356 CURVE",
"499 169 LINE",
"496 132 OFFCURVE",
"469 93 OFFCURVE",
"432 62 CURVE SMOOTH",
"395 31 OFFCURVE",
"345 10 OFFCURVE",
"296 10 CURVE SMOOTH"
);
}
);
width = 603;
}
);
leftKerningGroup = d;
note = g;
rightKerningGroup = g;
unicode = 0067;
},
{
glyphname = h;
lastChange = "2017-05-18 07:11:10 +0000";
layers = (
{
layerId = "2CA66E5A-B467-404E-84AC-20A403DD408D";
paths = (
{
closed = 1;
nodes = (
"487 446 OFFCURVE",
"430 527 OFFCURVE",
"322 527 CURVE SMOOTH",
"278 527 OFFCURVE",
"234 513 OFFCURVE",
"196 489 CURVE SMOOTH",
"158 464 OFFCURVE",
"125 428 OFFCURVE",
"104 385 CURVE",
"104 730 LINE",
"84 730 LINE",
"84 0 LINE",
"104 0 LINE",
"104 328 LINE",
"117 379 OFFCURVE",
"148 423 OFFCURVE",
"188 455 CURVE SMOOTH",
"227 487 OFFCURVE",
"275 507 OFFCURVE",
"323 507 CURVE SMOOTH",
"419 507 OFFCURVE",
"467 434 OFFCURVE",
"467 289 CURVE SMOOTH",
"467 0 LINE",
"487 0 LINE",
"487 289 LINE SMOOTH"
);
}
);
width = 565;
}
);
leftKerningGroup = b;
note = h;
rightKerningGroup = h;
unicode = 0068;
},
{
glyphname = i;
lastChange = "2017-05-18 07:11:10 +0000";
layers = (
{
layerId = "2CA66E5A-B467-404E-84AC-20A403DD408D";
paths = (
{
closed = 1;
nodes = (
"104 519 LINE",
"84 519 LINE",
"84 0 LINE",
"104 0 LINE"
);
},
{
closed = 1;
nodes = (
"104 730 LINE",
"84 730 LINE",
"84 653 LINE",
"104 653 LINE"
);
}
);
width = 188;
}
);
leftKerningGroup = i;
note = i;
rightKerningGroup = i;
unicode = 0069;
},
{
glyphname = j;
lastChange = "2017-05-18 07:11:10 +0000";
layers = (
{
layerId = "2CA66E5A-B467-404E-84AC-20A403DD408D";
paths = (
{
closed = 1;
nodes = (
"10 -170 OFFCURVE",
"44 -156 OFFCURVE",
"69 -132 CURVE SMOOTH",
"94 -108 OFFCURVE",
"112 -75 OFFCURVE",
"112 -36 CURVE SMOOTH",
"112 519 LINE",
"92 519 LINE",
"92 -36 LINE SMOOTH",
"92 -68 OFFCURVE",
"78 -97 OFFCURVE",
"56 -117 CURVE SMOOTH",
"34 -137 OFFCURVE",
"6 -150 OFFCURVE",
"-22 -150 CURVE SMOOTH",
"-50 -150 OFFCURVE",
"-81 -145 OFFCURVE",
"-105 -124 CURVE",
"-121 -136 LINE",
"-94 -163 OFFCURVE",
"-60 -170 OFFCURVE",
"-21 -170 CURVE SMOOTH"
);
},
{
closed = 1;
nodes = (
"112 730 LINE",
"92 730 LINE",
"92 653 LINE",
"112 653 LINE"
);
}
);
width = 196;
}
);
leftKerningGroup = i;
note = j;
rightKerningGroup = i;
unicode = 006A;
},
{
glyphname = k;
lastChange = "2017-05-18 07:11:10 +0000";
layers = (
{
layerId = "2CA66E5A-B467-404E-84AC-20A403DD408D";
paths = (
{
closed = 1;
nodes = (
"260 311 LINE",
"485 517 LINE",
"458 517 LINE",
"104 196 LINE",
"104 730 LINE",
"84 730 LINE",
"84 0 LINE",
"104 0 LINE",
"104 169 LINE",
"245 297 LINE",
"466 0 LINE",
"490 0 LINE"
);
}
);
width = 508;
}
);
leftKerningGroup = b;
note = k;
rightKerningGroup = k;
unicode = 006B;
},
{
glyphname = l;
lastChange = "2017-05-18 07:11:10 +0000";
layers = (
{
layerId = "2CA66E5A-B467-404E-84AC-20A403DD408D";
paths = (
{
closed = 1;
nodes = (
"90 28 OFFCURVE",
"122 -5 OFFCURVE",
"169 -5 CURVE SMOOTH",
"188 -5 OFFCURVE",
"219 0 OFFCURVE",
"238 7 CURVE",
"231 23 LINE",
"214 18 OFFCURVE",
"191 14 OFFCURVE",
"176 14 CURVE SMOOTH",
"136 14 OFFCURVE",
"110 38 OFFCURVE",
"110 77 CURVE SMOOTH",
"110 730 LINE",
"90 730 LINE",
"90 77 LINE SMOOTH"
);
}
);
width = 238;
}
);
leftKerningGroup = l;
note = l;
rightKerningGroup = l;
unicode = 006C;
},
{
glyphname = m;
lastChange = "2017-05-18 07:11:10 +0000";
layers = (
{
layerId = "2CA66E5A-B467-404E-84AC-20A403DD408D";
paths = (
{
closed = 1;
nodes = (
"830 450 OFFCURVE",
"779 527 OFFCURVE",
"671 527 CURVE SMOOTH",
"584 527 OFFCURVE",
"515 477 OFFCURVE",
"463 376 CURVE",
"452 468 OFFCURVE",
"393 527 OFFCURVE",
"305 527 CURVE SMOOTH",
"222 527 OFFCURVE",
"149 476 OFFCURVE",
"104 385 CURVE",
"104 519 LINE",
"84 519 LINE",
"84 0 LINE",
"104 0 LINE",
"104 328 LINE",
"119 381 OFFCURVE",
"146 426 OFFCURVE",
"182 458 CURVE SMOOTH",
"217 489 OFFCURVE",
"261 507 OFFCURVE",
"309 507 CURVE SMOOTH",
"405 507 OFFCURVE",
"447 440 OFFCURVE",
"447 289 CURVE SMOOTH",
"447 0 LINE",
"467 0 LINE",
"467 327 LINE",
"480 379 OFFCURVE",
"507 424 OFFCURVE",
"543 456 CURVE SMOOTH",
"578 488 OFFCURVE",
"622 507 OFFCURVE",
"671 507 CURVE SMOOTH",
"767 507 OFFCURVE",
"810 438 OFFCURVE",
"810 289 CURVE SMOOTH",
"810 0 LINE",
"830 0 LINE",
"830 289 LINE SMOOTH"
);
}
);
width = 908;
}
);
leftKerningGroup = m;
note = m;
rightKerningGroup = m;
unicode = 006D;
},
{
glyphname = n;
lastChange = "2017-05-18 07:11:10 +0000";
layers = (
{
layerId = "2CA66E5A-B467-404E-84AC-20A403DD408D";
paths = (
{
closed = 1;
nodes = (
"487 453 OFFCURVE",
"440 527 OFFCURVE",
"333 527 CURVE SMOOTH",
"286 527 OFFCURVE",
"240 512 OFFCURVE",
"200 488 CURVE SMOOTH",
"160 463 OFFCURVE",
"125 426 OFFCURVE",
"104 385 CURVE",
"104 519 LINE",
"84 519 LINE",
"84 0 LINE",
"104 0 LINE",
"104 328 LINE",
"119 379 OFFCURVE",
"151 424 OFFCURVE",
"192 456 CURVE SMOOTH",
"233 488 OFFCURVE",
"283 507 OFFCURVE",
"334 507 CURVE SMOOTH",
"427 507 OFFCURVE",
"467 441 OFFCURVE",
"467 289 CURVE SMOOTH",
"467 0 LINE",
"487 0 LINE",
"487 289 LINE SMOOTH"
);
}
);
width = 565;
}
);
leftKerningGroup = m;
note = n;
rightKerningGroup = m;
unicode = 006E;
},
{
glyphname = o;
lastChange = "2017-05-18 07:11:10 +0000";
layers = (
{
layerId = "2CA66E5A-B467-404E-84AC-20A403DD408D";
paths = (
{
closed = 1;
nodes = (
"361 -10 OFFCURVE",
"423 21 OFFCURVE",
"468 70 CURVE SMOOTH",
"512 118 OFFCURVE",
"540 186 OFFCURVE",
"540 258 CURVE SMOOTH",
"540 331 OFFCURVE",
"511 398 OFFCURVE",
"467 447 CURVE SMOOTH",
"422 496 OFFCURVE",
"360 527 OFFCURVE",
"293 527 CURVE SMOOTH",
"226 527 OFFCURVE",
"164 496 OFFCURVE",
"119 447 CURVE SMOOTH",
"74 398 OFFCURVE",
"46 331 OFFCURVE",
"46 258 CURVE SMOOTH",
"46 186 OFFCURVE",
"74 118 OFFCURVE",
"119 70 CURVE SMOOTH",
"163 21 OFFCURVE",
"225 -10 OFFCURVE",
"293 -10 CURVE SMOOTH"
);
},
{
closed = 1;
nodes = (
"66 324 OFFCURVE",
"92 387 OFFCURVE",
"133 433 CURVE SMOOTH",
"174 479 OFFCURVE",
"232 507 OFFCURVE",
"293 507 CURVE SMOOTH",
"354 507 OFFCURVE",
"412 478 OFFCURVE",
"453 433 CURVE SMOOTH",
"494 388 OFFCURVE",
"520 326 OFFCURVE",
"520 259 CURVE SMOOTH",
"520 191 OFFCURVE",
"495 129 OFFCURVE",
"453 84 CURVE SMOOTH",
"411 39 OFFCURVE",
"353 10 OFFCURVE",
"292 10 CURVE SMOOTH",
"229 10 OFFCURVE",
"173 38 OFFCURVE",
"133 83 CURVE SMOOTH",
"92 127 OFFCURVE",
"66 189 OFFCURVE",
"66 256 CURVE SMOOTH"
);
}
);
width = 586;
}
);
leftKerningGroup = c;
note = o;
rightKerningGroup = o;
unicode = 006F;
},
{
glyphname = p;
lastChange = "2017-05-18 07:11:10 +0000";
layers = (
{
layerId = "2CA66E5A-B467-404E-84AC-20A403DD408D";
paths = (
{
closed = 1;
nodes = (
"388 -10 OFFCURVE",
"449 22 OFFCURVE",
"491 71 CURVE SMOOTH",
"533 120 OFFCURVE",
"557 187 OFFCURVE",
"557 258 CURVE SMOOTH",
"557 325 OFFCURVE",
"531 391 OFFCURVE",
"487 442 CURVE SMOOTH",
"443 493 OFFCURVE",
"380 527 OFFCURVE",
"307 527 CURVE SMOOTH",
"267 527 OFFCURVE",
"228 515 OFFCURVE",
"193 494 CURVE SMOOTH",
"157 473 OFFCURVE",
"125 444 OFFCURVE",
"104 409 CURVE",
"104 519 LINE",
"84 519 LINE",
"84 -213 LINE",
"104 -213 LINE",
"104 119 LINE",
"127 84 OFFCURVE",
"156 52 OFFCURVE",
"192 29 CURVE SMOOTH",
"228 5 OFFCURVE",
"269 -10 OFFCURVE",
"316 -10 CURVE SMOOTH"
);
},
{
closed = 1;
nodes = (
"269 10 OFFCURVE",
"226 27 OFFCURVE",
"190 54 CURVE SMOOTH",
"153 81 OFFCURVE",
"123 118 OFFCURVE",
"104 161 CURVE",
"104 348 LINE",
"107 389 OFFCURVE",
"137 430 OFFCURVE",
"177 459 CURVE SMOOTH",
"217 488 OFFCURVE",
"267 507 OFFCURVE",
"307 507 CURVE SMOOTH",
"371 507 OFFCURVE",
"429 478 OFFCURVE",
"470 432 CURVE SMOOTH",
"511 386 OFFCURVE",
"537 323 OFFCURVE",
"537 258 CURVE SMOOTH",
"537 197 OFFCURVE",
"516 135 OFFCURVE",
"477 88 CURVE SMOOTH",
"438 41 OFFCURVE",
"384 10 OFFCURVE",
"316 10 CURVE SMOOTH"
);
}
);
width = 603;
}
);
leftKerningGroup = m;
note = p;
rightKerningGroup = b;
unicode = 0070;
},
{
glyphname = q;
lastChange = "2017-05-18 07:11:10 +0000";
layers = (
{
layerId = "2CA66E5A-B467-404E-84AC-20A403DD408D";
paths = (
{
closed = 1;
nodes = (
"368 -10 OFFCURVE",
"440 35 OFFCURVE",
"499 119 CURVE",
"499 -173 LINE SMOOTH",
"499 -181 OFFCURVE",
"501 -188 OFFCURVE",
"505 -195 CURVE",
"512 -209 OFFCURVE",
"522 -213 OFFCURVE",
"535 -213 CURVE",
"535 -193 LINE",
"524 -193 OFFCURVE",
"519 -186 OFFCURVE",
"519 -173 CURVE SMOOTH",
"519 519 LINE",
"499 519 LINE",
"499 409 LINE",
"479 442 OFFCURVE",
"448 472 OFFCURVE",
"413 493 CURVE SMOOTH",
"377 514 OFFCURVE",
"337 527 OFFCURVE",
"296 527 CURVE SMOOTH",
"227 527 OFFCURVE",
"164 496 OFFCURVE",
"119 446 CURVE SMOOTH",
"74 396 OFFCURVE",
"46 329 OFFCURVE",
"46 258 CURVE SMOOTH",
"46 190 OFFCURVE",
"70 124 OFFCURVE",
"112 74 CURVE SMOOTH",
"154 24 OFFCURVE",
"214 -10 OFFCURVE",
"287 -10 CURVE SMOOTH"
);
},
{
closed = 1;
nodes = (
"223 10 OFFCURVE",
"168 40 OFFCURVE",
"129 85 CURVE SMOOTH",
"89 130 OFFCURVE",
"66 193 OFFCURVE",
"66 258 CURVE SMOOTH",
"66 319 OFFCURVE",
"90 381 OFFCURVE",
"131 429 CURVE SMOOTH",
"171 476 OFFCURVE",
"228 507 OFFCURVE",
"296 507 CURVE SMOOTH",
"340 507 OFFCURVE",
"388 488 OFFCURVE",
"427 459 CURVE SMOOTH",
"466 430 OFFCURVE",
"495 389 OFFCURVE",
"499 348 CURVE",
"499 161 LINE",
"479 121 OFFCURVE",
"451 84 OFFCURVE",
"415 56 CURVE SMOOTH",
"379 28 OFFCURVE",
"336 10 OFFCURVE",
"287 10 CURVE SMOOTH"
);
}
);
width = 603;
}
);
leftKerningGroup = d;
note = q;
rightKerningGroup = g;
unicode = 0071;
},
{
glyphname = r;
lastChange = "2017-05-18 07:11:10 +0000";
layers = (
{
layerId = "2CA66E5A-B467-404E-84AC-20A403DD408D";
paths = (
{
closed = 1;
nodes = (
"298 519 OFFCURVE",
"286 518 OFFCURVE",
"273 517 CURVE",
"205 509 OFFCURVE",
"140 458 OFFCURVE",
"104 385 CURVE",
"104 519 LINE",
"84 519 LINE",
"84 0 LINE",
"104 0 LINE",
"104 328 LINE",
"132 432 OFFCURVE",
"207 495 OFFCURVE",
"306 499 CURVE",
"306 519 LINE"
);
}
);
width = 323;
}
);
leftKerningGroup = m;
note = r;
rightKerningGroup = r;
unicode = 0072;
},
{
glyphname = s;
lastChange = "2017-05-18 07:11:10 +0000";
layers = (
{
layerId = "2CA66E5A-B467-404E-84AC-20A403DD408D";
paths = (
{
closed = 1;
nodes = (
"292 -10 OFFCURVE",
"342 5 OFFCURVE",
"375 31 CURVE SMOOTH",
"408 57 OFFCURVE",
"428 94 OFFCURVE",
"428 139 CURVE SMOOTH",
"428 184 OFFCURVE",
"409 211 OFFCURVE",
"375 231 CURVE SMOOTH",
"341 251 OFFCURVE",
"289 262 OFFCURVE",
"228 277 CURVE SMOOTH",
"177 289 OFFCURVE",
"140 298 OFFCURVE",
"116 313 CURVE SMOOTH",
"92 328 OFFCURVE",
"81 348 OFFCURVE",
"81 383 CURVE SMOOTH",
"81 427 OFFCURVE",
"99 458 OFFCURVE",
"128 478 CURVE SMOOTH",
"157 498 OFFCURVE",
"197 507 OFFCURVE",
"240 507 CURVE SMOOTH",
"307 507 OFFCURVE",
"370 485 OFFCURVE",
"395 444 CURVE",
"413 452 LINE",
"390 495 OFFCURVE",
"328 527 OFFCURVE",
"244 527 CURVE SMOOTH",
"195 527 OFFCURVE",
"149 516 OFFCURVE",
"116 492 CURVE SMOOTH",
"83 468 OFFCURVE",
"61 432 OFFCURVE",
"61 380 CURVE SMOOTH",
"61 339 OFFCURVE",
"75 314 OFFCURVE",
"103 297 CURVE SMOOTH",
"130 280 OFFCURVE",
"171 270 OFFCURVE",
"227 257 CURVE SMOOTH",
"284 244 OFFCURVE",
"330 233 OFFCURVE",
"361 215 CURVE SMOOTH",
"392 197 OFFCURVE",
"408 173 OFFCURVE",
"408 136 CURVE SMOOTH",
"408 56 OFFCURVE",
"338 10 OFFCURVE",
"235 10 CURVE SMOOTH",
"160 10 OFFCURVE",
"105 35 OFFCURVE",
"52 87 CURVE",
"37 74 LINE",
"88 18 OFFCURVE",
"154 -10 OFFCURVE",
"235 -10 CURVE SMOOTH"
);
}
);
width = 471;
}
);
leftKerningGroup = s;
note = s;
rightKerningGroup = s;
unicode = 0073;
},
{
glyphname = t;
lastChange = "2017-05-18 07:11:10 +0000";
layers = (
{
layerId = "2CA66E5A-B467-404E-84AC-20A403DD408D";
paths = (
{
closed = 1;
nodes = (
"274 39 OFFCURVE",
"272 38 OFFCURVE",
"268 35 CURVE",
"263 32 OFFCURVE",
"257 30 OFFCURVE",
"250 27 CURVE",
"234 21 OFFCURVE",
"214 15 OFFCURVE",
"191 15 CURVE SMOOTH",
"156 15 OFFCURVE",
"124 36 OFFCURVE",
"121 75 CURVE",
"121 499 LINE",
"246 499 LINE",
"246 519 LINE",
"121 519 LINE",
"121 700 LINE",
"101 700 LINE",
"101 519 LINE",
"26 519 LINE",
"26 499 LINE",
"101 499 LINE",
"101 75 LINE SMOOTH",
"101 27 OFFCURVE",
"143 -5 OFFCURVE",
"191 -5 CURVE SMOOTH",
"205 -5 OFFCURVE",
"218 -3 OFFCURVE",
"229 0 CURVE SMOOTH",
"252 6 OFFCURVE",
"269 12 OFFCURVE",
"279 19 CURVE",
"284 22 OFFCURVE",
"286 24 OFFCURVE",
"286 24 CURVE",
"275 40 LINE"
);
}
);
width = 295;
}
);
leftKerningGroup = t;
note = t;
rightKerningGroup = t;
unicode = 0074;
},
{
glyphname = u;
lastChange = "2017-05-18 07:11:10 +0000";
layers = (
{
layerId = "2CA66E5A-B467-404E-84AC-20A403DD408D";
paths = (
{
closed = 1;
nodes = (
"338 -10 OFFCURVE",
"426 44 OFFCURVE",
"471 132 CURVE",
"471 40 LINE SMOOTH",
"471 31 OFFCURVE",
"473 24 OFFCURVE",
"477 17 CURVE SMOOTH",
"485 3 OFFCURVE",
"492 0 OFFCURVE",
"507 0 CURVE",
"507 20 LINE",
"496 20 OFFCURVE",
"491 27 OFFCURVE",
"491 40 CURVE SMOOTH",
"491 519 LINE",
"471 519 LINE",
"471 189 LINE",
"455 137 OFFCURVE",
"424 92 OFFCURVE",
"384 61 CURVE SMOOTH",
"344 29 OFFCURVE",
"294 10 OFFCURVE",
"245 10 CURVE SMOOTH",
"147 10 OFFCURVE",
"98 83 OFFCURVE",
"98 228 CURVE SMOOTH",
"98 519 LINE",
"78 519 LINE",
"78 228 LINE SMOOTH",
"78 69 OFFCURVE",
"134 -10 OFFCURVE",
"245 -10 CURVE SMOOTH"
);
}
);
width = 576;
}
);
leftKerningGroup = u;
note = u;
rightKerningGroup = u;
unicode = 0075;
},
{
glyphname = v;
lastChange = "2017-05-18 07:11:10 +0000";
layers = (
{
layerId = "2CA66E5A-B467-404E-84AC-20A403DD408D";
paths = (
{
closed = 1;
nodes = (
"495 519 LINE",
"473 519 LINE",
"260 29 LINE",
"47 519 LINE",
"25 519 LINE",
"251 0 LINE",
"269 0 LINE"
);
}
);
width = 520;
}
);
leftKerningGroup = v;
note = v;
rightKerningGroup = v;
unicode = 0076;
},
{
glyphname = w;
lastChange = "2017-05-18 07:11:10 +0000";
layers = (
{
layerId = "2CA66E5A-B467-404E-84AC-20A403DD408D";
paths = (
{
closed = 1;
nodes = (
"408 316 LINE",
"495 518 LINE",
"474 518 LINE",
"397 342 LINE",
"320 518 LINE",
"299 518 LINE",
"386 316 LINE",
"261 29 LINE",
"47 519 LINE",
"25 519 LINE",
"252 0 LINE",
"270 0 LINE",
"397 291 LINE",
"524 0 LINE",
"542 0 LINE",
"769 519 LINE",
"747 519 LINE",
"533 29 LINE"
);
}
);
width = 794;
}
);
leftKerningGroup = w;
note = w;
rightKerningGroup = w;
unicode = 0077;
},
{
glyphname = x;
lastChange = "2017-05-18 07:11:10 +0000";
layers = (
{
layerId = "2CA66E5A-B467-404E-84AC-20A403DD408D";
paths = (
{
closed = 1;
nodes = (
"228 258 LINE",
"22 0 LINE",
"48 0 LINE",
"233 232 LINE",
"241 244 LINE",
"249 232 LINE",
"434 0 LINE",
"460 0 LINE",
"254 258 LINE",
"462 519 LINE",
"436 519 LINE",
"249 285 LINE",
"241 273 LINE",
"233 285 LINE",
"46 519 LINE",
"20 519 LINE"
);
}
);
width = 482;
}
);
leftKerningGroup = x;
note = x;
rightKerningGroup = x;
unicode = 0078;
},
{
glyphname = y;
lastChange = "2017-05-18 07:11:10 +0000";
layers = (
{
layerId = "2CA66E5A-B467-404E-84AC-20A403DD408D";
paths = (
{
closed = 1;
nodes = (
"156 -223 OFFCURVE",
"186 -221 OFFCURVE",
"202 -186 CURVE SMOOTH",
"511 519 LINE",
"489 519 LINE",
"272 25 LINE",
"43 519 LINE",
"21 519 LINE",
"262 0 LINE",
"245 -39 OFFCURVE",
"231 -71 OFFCURVE",
"220 -95 CURVE SMOOTH",
"209 -120 OFFCURVE",
"201 -139 OFFCURVE",
"195 -152 CURVE SMOOTH",
"189 -166 OFFCURVE",
"185 -176 OFFCURVE",
"182 -181 CURVE",
"179 -187 OFFCURVE",
"177 -191 OFFCURVE",
"175 -193 CURVE",
"168 -202 OFFCURVE",
"151 -203 OFFCURVE",
"128 -203 CURVE",
"128 -223 LINE"
);
}
);
width = 536;
}
);
leftKerningGroup = y;
note = y;
rightKerningGroup = y;
unicode = 0079;
},
{
glyphname = z;
lastChange = "2017-05-18 07:11:10 +0000";
layers = (
{
layerId = "2CA66E5A-B467-404E-84AC-20A403DD408D";
paths = (
{
closed = 1;
nodes = (
"450 0 LINE",
"450 20 LINE",
"59 20 LINE",
"454 499 LINE",
"454 519 LINE",
"38 519 LINE",
"38 499 LINE",
"429 499 LINE",
"33 20 LINE",
"33 0 LINE"
);
}
);
width = 488;
}
);
leftKerningGroup = z;
note = z;
rightKerningGroup = z;
unicode = 007A;
},
{
glyphname = braceleft;
lastChange = "2017-05-18 07:11:10 +0000";
layers = (
{
layerId = "2CA66E5A-B467-404E-84AC-20A403DD408D";
paths = (
{
closed = 1;
nodes = (
"173 740 LINE",
"121 740 LINE SMOOTH",
"118 740 OFFCURVE",
"114 738 OFFCURVE",
"108 735 CURVE",
"101 732 OFFCURVE",
"98 723 OFFCURVE",
"98 710 CURVE SMOOTH",
"98 416 LINE SMOOTH",
"98 412 OFFCURVE",
"97 401 OFFCURVE",
"93 391 CURVE SMOOTH",
"89 381 OFFCURVE",
"81 371 OFFCURVE",
"68 371 CURVE",
"68 351 LINE",
"92 348 OFFCURVE",
"98 324 OFFCURVE",
"98 304 CURVE SMOOTH",
"98 -1 LINE SMOOTH",
"98 -24 OFFCURVE",
"110 -31 OFFCURVE",
"121 -31 CURVE SMOOTH",
"173 -31 LINE",
"173 -11 LINE",
"118 -11 LINE",
"118 304 LINE SMOOTH",
"118 311 OFFCURVE",
"118 341 OFFCURVE",
"97 360 CURVE",
"108 369 OFFCURVE",
"112 381 OFFCURVE",
"115 393 CURVE SMOOTH",
"118 404 OFFCURVE",
"118 412 OFFCURVE",
"118 416 CURVE SMOOTH",
"118 720 LINE",
"173 720 LINE"
);
}
);
width = 229;
}
);
note = braceleft;
rightKerningGroup = braceleft;
unicode = 007B;
},
{
glyphname = bar;
lastChange = "2017-05-18 07:11:10 +0000";
layers = (
{
layerId = "2CA66E5A-B467-404E-84AC-20A403DD408D";
paths = (
{
closed = 1;
nodes = (
"115 775 LINE",
"95 775 LINE",
"95 -130 LINE",
"115 -130 LINE"
);
}
);
width = 210;
}
);
note = bar;
unicode = 007C;
},
{
glyphname = braceright;
lastChange = "2017-05-18 07:11:10 +0000";
layers = (
{
layerId = "2CA66E5A-B467-404E-84AC-20A403DD408D";
paths = (
{
closed = 1;
nodes = (
"111 416 LINE SMOOTH",
"111 412 OFFCURVE",
"111 404 OFFCURVE",
"114 393 CURVE SMOOTH",
"117 381 OFFCURVE",
"121 369 OFFCURVE",
"132 360 CURVE",
"111 341 OFFCURVE",
"111 311 OFFCURVE",
"111 304 CURVE SMOOTH",
"111 -11 LINE",
"56 -11 LINE",
"56 -31 LINE",
"108 -31 LINE SMOOTH",
"119 -31 OFFCURVE",
"131 -24 OFFCURVE",
"131 -1 CURVE SMOOTH",
"131 304 LINE SMOOTH",
"131 324 OFFCURVE",
"137 348 OFFCURVE",
"161 351 CURVE",
"161 371 LINE",
"146 371 OFFCURVE",
"139 381 OFFCURVE",
"135 391 CURVE SMOOTH",
"131 401 OFFCURVE",
"131 412 OFFCURVE",
"131 416 CURVE SMOOTH",
"131 710 LINE SMOOTH",
"131 723 OFFCURVE",
"128 732 OFFCURVE",
"122 735 CURVE",
"115 738 OFFCURVE",
"111 740 OFFCURVE",
"108 740 CURVE SMOOTH",
"56 740 LINE",
"56 720 LINE",
"111 720 LINE"
);
}
);
width = 229;
}
);
leftKerningGroup = braceright;
note = braceright;
unicode = 007D;
},
{
glyphname = asciitilde;
lastChange = "2017-05-18 07:11:10 +0000";
layers = (
{
layerId = "2CA66E5A-B467-404E-84AC-20A403DD408D";
paths = (
{
closed = 1;
nodes = (
"90 251 LINE",
"90 252 OFFCURVE",
"91 255 OFFCURVE",
"94 262 CURVE",
"97 268 OFFCURVE",
"101 275 OFFCURVE",
"107 282 CURVE",
"118 297 OFFCURVE",
"134 312 OFFCURVE",
"154 312 CURVE SMOOTH",
"175 312 OFFCURVE",
"197 297 OFFCURVE",
"221 282 CURVE SMOOTH",
"245 266 OFFCURVE",
"271 251 OFFCURVE",
"303 251 CURVE SMOOTH",
"320 251 OFFCURVE",
"335 255 OFFCURVE",
"346 262 CURVE SMOOTH",
"368 277 OFFCURVE",
"382 296 OFFCURVE",
"393 324 CURVE",
"373 325 LINE",
"373 324 OFFCURVE",
"372 320 OFFCURVE",
"369 315 CURVE",
"366 309 OFFCURVE",
"362 303 OFFCURVE",
"356 296 CURVE",
"344 283 OFFCURVE",
"327 271 OFFCURVE",
"303 271 CURVE SMOOTH",
"276 271 OFFCURVE",
"253 286 OFFCURVE",
"229 302 CURVE SMOOTH",
"205 317 OFFCURVE",
"181 332 OFFCURVE",
"154 332 CURVE SMOOTH",
"139 332 OFFCURVE",
"126 328 OFFCURVE",
"116 320 CURVE SMOOTH",
"95 304 OFFCURVE",
"81 282 OFFCURVE",
"75 265 CURVE SMOOTH",
"72 256 OFFCURVE",
"70 252 OFFCURVE",
"70 251 CURVE"
);
}
);
width = 462;
}
);
note = asciitilde;
unicode = 007E;
},
{
glyphname = exclamdown;
lastChange = "2017-05-18 07:11:10 +0000";
layers = (
{
layerId = "2CA66E5A-B467-404E-84AC-20A403DD408D";
paths = (
{
closed = 1;
nodes = (
"104 0 LINE",
"124 0 LINE",
"124 517 LINE",
"104 517 LINE"
);
},
{
closed = 1;
nodes = (
"104 633 LINE",
"124 633 LINE",
"124 717 LINE",
"104 717 LINE"
);
}
);
width = 228;
}
);
note = exclamdown;
rightKerningGroup = exclamdown;
unicode = 00A1;
},
{
glyphname = cent;
lastChange = "2017-05-18 07:11:10 +0000";
layers = (
{
layerId = "2CA66E5A-B467-404E-84AC-20A403DD408D";
paths = (
{
closed = 1;
nodes = (
"296 -10 LINE",
"333 -10 OFFCURVE",
"378 1 OFFCURVE",
"416 22 CURVE SMOOTH",
"454 42 OFFCURVE",
"485 73 OFFCURVE",
"498 113 CURVE",
"478 119 LINE",
"470 86 OFFCURVE",
"440 59 OFFCURVE",
"405 40 CURVE SMOOTH",
"370 20 OFFCURVE",
"328 10 OFFCURVE",
"296 10 CURVE",
"296 507 LINE",
"371 504 OFFCURVE",
"432 473 OFFCURVE",
"471 404 CURVE",
"490 411 LINE",
"457 478 OFFCURVE",
"400 524 OFFCURVE",
"296 527 CURVE",
"296 645 LINE",
"276 645 LINE",
"276 527 LINE",
"208 523 OFFCURVE",
"150 491 OFFCURVE",
"110 441 CURVE SMOOTH",
"70 391 OFFCURVE",
"46 326 OFFCURVE",
"46 258 CURVE SMOOTH",
"46 194 OFFCURVE",
"70 130 OFFCURVE",
"111 81 CURVE SMOOTH",
"151 32 OFFCURVE",
"208 -4 OFFCURVE",
"276 -9 CURVE",
"276 -120 LINE",
"296 -120 LINE"
);
},
{
closed = 1;
nodes = (
"66 315 OFFCURVE",
"85 376 OFFCURVE",
"121 423 CURVE SMOOTH",
"157 470 OFFCURVE",
"209 503 OFFCURVE",
"276 507 CURVE",
"276 11 LINE",
"216 16 OFFCURVE",
"165 48 OFFCURVE",
"127 93 CURVE SMOOTH",
"89 137 OFFCURVE",
"66 197 OFFCURVE",
"66 258 CURVE SMOOTH"
);
}
);
width = 541;
}
);
note = cent;
unicode = 00A2;
},
{
glyphname = sterling;
lastChange = "2017-05-18 07:11:10 +0000";
layers = (
{
layerId = "2CA66E5A-B467-404E-84AC-20A403DD408D";
paths = (
{
closed = 1;
nodes = (
"167 346 LINE",
"182 315 OFFCURVE",
"192 281 OFFCURVE",
"192 241 CURVE SMOOTH",
"192 206 OFFCURVE",
"185 178 OFFCURVE",
"165 143 CURVE SMOOTH",
"144 108 OFFCURVE",
"109 67 OFFCURVE",
"56 10 CURVE",
"66 -7 LINE",
"94 0 OFFCURVE",
"131 5 OFFCURVE",
"160 5 CURVE SMOOTH",
"189 5 OFFCURVE",
"214 0 OFFCURVE",
"238 -5 CURVE SMOOTH",
"261 -10 OFFCURVE",
"284 -15 OFFCURVE",
"313 -15 CURVE SMOOTH",
"348 -15 OFFCURVE",
"383 -8 OFFCURVE",
"419 7 CURVE",
"413 26 LINE",
"372 11 OFFCURVE",
"342 5 OFFCURVE",
"314 5 CURVE SMOOTH",
"289 5 OFFCURVE",
"267 10 OFFCURVE",
"244 15 CURVE SMOOTH",
"221 20 OFFCURVE",
"197 25 OFFCURVE",
"166 25 CURVE SMOOTH",
"142 25 OFFCURVE",
"118 22 OFFCURVE",
"95 18 CURVE",
"139 66 OFFCURVE",
"168 104 OFFCURVE",
"187 139 CURVE SMOOTH",
"206 174 OFFCURVE",
"213 206 OFFCURVE",
"213 242 CURVE SMOOTH",
"213 281 OFFCURVE",
"203 315 OFFCURVE",
"190 346 CURVE",
"354 346 LINE",
"354 366 LINE",
"181 366 LINE",
"173 383 OFFCURVE",
"164 399 OFFCURVE",
"155 414 CURVE SMOOTH",
"146 429 OFFCURVE",
"137 444 OFFCURVE",
"129 459 CURVE SMOOTH",
"113 489 OFFCURVE",
"101 517 OFFCURVE",
"101 552 CURVE SMOOTH",
"101 592 OFFCURVE",
"117 628 OFFCURVE",
"142 654 CURVE SMOOTH",
"167 680 OFFCURVE",
"201 695 OFFCURVE",
"240 695 CURVE SMOOTH",
"300 695 OFFCURVE",
"355 658 OFFCURVE",
"387 598 CURVE",
"404 610 LINE",
"369 674 OFFCURVE",
"309 715 OFFCURVE",
"242 715 CURVE SMOOTH",
"198 715 OFFCURVE",
"156 697 OFFCURVE",
"127 667 CURVE SMOOTH",
"98 637 OFFCURVE",
"79 595 OFFCURVE",
"79 550 CURVE SMOOTH",
"79 532 OFFCURVE",
"82 515 OFFCURVE",
"87 500 CURVE SMOOTH",
"97 469 OFFCURVE",
"112 440 OFFCURVE",
"131 411 CURVE",
"140 396 OFFCURVE",
"149 381 OFFCURVE",
"157 366 CURVE",
"48 366 LINE",
"48 346 LINE"
);
}
);
width = 467;
}
);
note = sterling;
unicode = 00A3;
},
{
glyphname = currency;
lastChange = "2017-05-18 07:11:10 +0000";
layers = (
{
layerId = "2CA66E5A-B467-404E-84AC-20A403DD408D";
paths = (
{
closed = 1;
nodes = (
"64 520 LINE",
"132 452 LINE",
"105 420 OFFCURVE",
"90 379 OFFCURVE",
"90 335 CURVE SMOOTH",
"90 290 OFFCURVE",
"105 250 OFFCURVE",
"134 217 CURVE",
"64 148 LINE",
"79 134 LINE",
"148 202 LINE",
"179 174 OFFCURVE",
"218 157 OFFCURVE",
"265 157 CURVE SMOOTH",
"312 157 OFFCURVE",
"353 174 OFFCURVE",
"385 205 CURVE",
"457 134 LINE",
"472 148 LINE",
"399 219 LINE",
"426 251 OFFCURVE",
"442 292 OFFCURVE",
"442 335 CURVE SMOOTH",
"442 378 OFFCURVE",
"426 418 OFFCURVE",
"401 450 CURVE",
"472 520 LINE",
"457 534 LINE",
"387 465 LINE",
"356 496 OFFCURVE",
"313 515 OFFCURVE",
"265 515 CURVE SMOOTH",
"218 515 OFFCURVE",
"177 498 OFFCURVE",
"146 467 CURVE",
"79 534 LINE"
);
},
{
closed = 1;
nodes = (
"111 379 OFFCURVE",
"129 420 OFFCURVE",
"157 449 CURVE SMOOTH",
"185 478 OFFCURVE",
"224 496 OFFCURVE",
"265 496 CURVE SMOOTH",
"308 496 OFFCURVE",
"347 478 OFFCURVE",
"375 450 CURVE SMOOTH",
"403 421 OFFCURVE",
"421 380 OFFCURVE",
"421 336 CURVE SMOOTH",
"421 292 OFFCURVE",
"403 252 OFFCURVE",
"375 223 CURVE SMOOTH",
"347 194 OFFCURVE",
"308 175 OFFCURVE",
"265 175 CURVE SMOOTH",
"222 175 OFFCURVE",
"184 193 OFFCURVE",
"156 222 CURVE SMOOTH",
"128 250 OFFCURVE",
"111 290 OFFCURVE",
"111 334 CURVE SMOOTH"
);
}
);
width = 533;
}
);
note = currency;
unicode = 00A4;
},
{
glyphname = yen;
lastChange = "2017-05-18 07:11:10 +0000";
layers = (
{
layerId = "2CA66E5A-B467-404E-84AC-20A403DD408D";
paths = (
{
closed = 1;
nodes = (
"600 710 LINE",
"325 298 LINE",
"51 710 LINE",
"28 710 LINE",
"273 341 LINE",
"179 341 LINE",
"179 321 LINE",
"286 321 LINE",
"315 277 LINE",
"315 251 LINE",
"179 251 LINE",
"179 231 LINE",
"315 231 LINE",
"315 0 LINE",
"335 0 LINE",
"335 231 LINE",
"472 231 LINE",
"472 251 LINE",
"335 251 LINE",
"335 275 LINE",
"366 321 LINE",
"472 321 LINE",
"472 341 LINE",
"379 341 LINE",
"623 710 LINE"
);
}
);
width = 651;
}
);
note = yen;
unicode = 00A5;
},
{
glyphname = brokenbar;
lastChange = "2017-05-18 07:11:10 +0000";
layers = (
{
layerId = "2CA66E5A-B467-404E-84AC-20A403DD408D";
paths = (
{
closed = 1;
nodes = (
"97 -130 LINE",
"117 -130 LINE",
"117 285 LINE",
"97 285 LINE"
);
},
{
closed = 1;
nodes = (
"97 360 LINE",
"117 360 LINE",
"117 775 LINE",
"97 775 LINE"
);
}
);
width = 214;
}
);
note = brokenbar;
unicode = 00A6;
},
{
glyphname = section;
lastChange = "2017-05-18 07:11:10 +0000";
layers = (
{
layerId = "2CA66E5A-B467-404E-84AC-20A403DD408D";
paths = (
{
closed = 1;
nodes = (
"408 204 OFFCURVE",
"422 241 OFFCURVE",
"422 280 CURVE SMOOTH",
"422 332 OFFCURVE",
"398 369 OFFCURVE",
"362 393 CURVE SMOOTH",
"326 416 OFFCURVE",
"279 426 OFFCURVE",
"232 426 CURVE SMOOTH",
"184 426 OFFCURVE",
"142 435 OFFCURVE",
"113 456 CURVE SMOOTH",
"84 476 OFFCURVE",
"66 509 OFFCURVE",
"66 557 CURVE SMOOTH",
"66 600 OFFCURVE",
"87 634 OFFCURVE",
"119 658 CURVE SMOOTH",
"150 682 OFFCURVE",
"191 695 OFFCURVE",
"230 695 CURVE SMOOTH",
"255 695 OFFCURVE",
"286 692 OFFCURVE",
"313 683 CURVE SMOOTH",
"340 674 OFFCURVE",
"364 657 OFFCURVE",
"377 632 CURVE",
"395 640 LINE",
"362 688 OFFCURVE",
"318 715 OFFCURVE",
"230 715 CURVE SMOOTH",
"187 715 OFFCURVE",
"142 701 OFFCURVE",
"107 674 CURVE SMOOTH",
"71 647 OFFCURVE",
"46 608 OFFCURVE",
"46 557 CURVE SMOOTH",
"46 502 OFFCURVE",
"69 458 OFFCURVE",
"105 435 CURVE",
"86 414 OFFCURVE",
"73 376 OFFCURVE",
"73 341 CURVE SMOOTH",
"73 289 OFFCURVE",
"95 251 OFFCURVE",
"129 227 CURVE SMOOTH",
"163 203 OFFCURVE",
"210 191 OFFCURVE",
"259 190 CURVE SMOOTH",
"296 189 OFFCURVE",
"338 184 OFFCURVE",
"368 168 CURVE SMOOTH",
"398 151 OFFCURVE",
"419 122 OFFCURVE",
"419 74 CURVE SMOOTH",
"419 30 OFFCURVE",
"397 -6 OFFCURVE",
"366 -30 CURVE SMOOTH",
"334 -55 OFFCURVE",
"293 -68 OFFCURVE",
"253 -68 CURVE SMOOTH",
"186 -68 OFFCURVE",
"136 -44 OFFCURVE",
"81 7 CURVE",
"66 -6 LINE",
"111 -51 OFFCURVE",
"166 -88 OFFCURVE",
"253 -88 CURVE SMOOTH",
"296 -88 OFFCURVE",
"342 -74 OFFCURVE",
"378 -46 CURVE SMOOTH",
"414 -19 OFFCURVE",
"439 22 OFFCURVE",
"439 74 CURVE SMOOTH",
"439 125 OFFCURVE",
"424 160 OFFCURVE",
"385 181 CURVE"
);
},
{
closed = 1;
nodes = (
"93 373 OFFCURVE",
"105 406 OFFCURVE",
"124 425 CURVE",
"155 412 OFFCURVE",
"193 406 OFFCURVE",
"232 406 CURVE SMOOTH",
"269 406 OFFCURVE",
"312 399 OFFCURVE",
"345 380 CURVE SMOOTH",
"378 360 OFFCURVE",
"402 328 OFFCURVE",
"402 280 CURVE SMOOTH",
"402 245 OFFCURVE",
"388 209 OFFCURVE",
"365 190 CURVE",
"337 201 OFFCURVE",
"297 204 OFFCURVE",
"257 209 CURVE SMOOTH",
"216 213 OFFCURVE",
"176 219 OFFCURVE",
"145 238 CURVE SMOOTH",
"113 257 OFFCURVE",
"93 288 OFFCURVE",
"93 341 CURVE SMOOTH"
);
}
);
width = 481;
}
);
note = section;
unicode = 00A7;
},
{
glyphname = dieresis;
lastChange = "2017-05-18 07:11:10 +0000";
layers = (
{
layerId = "2CA66E5A-B467-404E-84AC-20A403DD408D";
paths = (
{
closed = 1;
nodes = (
"70 730 LINE",
"50 730 LINE",
"50 653 LINE",
"70 653 LINE"
);
},
{
closed = 1;
nodes = (
"186 730 LINE",
"166 730 LINE",
"166 653 LINE",
"186 653 LINE"
);
}
);
width = 236;
}
);
note = dieresis;
unicode = 00A8;
},
{
glyphname = copyright;
lastChange = "2017-05-18 07:11:10 +0000";
layers = (
{
layerId = "2CA66E5A-B467-404E-84AC-20A403DD408D";
paths = (
{
closed = 1;
nodes = (
"516 -7 OFFCURVE",
"606 32 OFFCURVE",
"670 97 CURVE SMOOTH",
"734 161 OFFCURVE",
"773 251 OFFCURVE",
"773 355 CURVE SMOOTH",
"773 458 OFFCURVE",
"734 548 OFFCURVE",
"670 612 CURVE SMOOTH",
"606 676 OFFCURVE",
"516 715 OFFCURVE",
"412 715 CURVE SMOOTH",
"308 715 OFFCURVE",
"218 676 OFFCURVE",
"154 612 CURVE SMOOTH",
"90 548 OFFCURVE",
"51 458 OFFCURVE",
"51 355 CURVE SMOOTH",
"51 251 OFFCURVE",
"90 161 OFFCURVE",
"154 97 CURVE SMOOTH",
"218 32 OFFCURVE",
"308 -7 OFFCURVE",
"412 -7 CURVE SMOOTH"
);
},
{
closed = 1;
nodes = (
"314 13 OFFCURVE",
"229 50 OFFCURVE",
"169 111 CURVE SMOOTH",
"108 171 OFFCURVE",
"72 257 OFFCURVE",
"72 354 CURVE SMOOTH",
"72 451 OFFCURVE",
"108 537 OFFCURVE",
"169 598 CURVE SMOOTH",
"230 659 OFFCURVE",
"314 695 OFFCURVE",
"413 695 CURVE SMOOTH",
"510 695 OFFCURVE",
"595 658 OFFCURVE",
"656 598 CURVE SMOOTH",
"716 537 OFFCURVE",
"752 451 OFFCURVE",
"752 352 CURVE SMOOTH",
"752 252 OFFCURVE",
"715 167 OFFCURVE",
"654 107 CURVE SMOOTH",
"593 47 OFFCURVE",
"509 13 OFFCURVE",
"413 13 CURVE SMOOTH"
);
},
{
closed = 1;
nodes = (
"466 127 OFFCURVE",
"507 145 OFFCURVE",
"537 167 CURVE SMOOTH",
"567 189 OFFCURVE",
"586 216 OFFCURVE",
"591 233 CURVE",
"572 238 LINE",
"560 210 OFFCURVE",
"535 187 OFFCURVE",
"506 172 CURVE SMOOTH",
"477 156 OFFCURVE",
"444 147 OFFCURVE",
"415 147 CURVE SMOOTH",
"372 147 OFFCURVE",
"324 166 OFFCURVE",
"286 202 CURVE SMOOTH",
"248 237 OFFCURVE",
"220 288 OFFCURVE",
"220 355 CURVE SMOOTH",
"220 403 OFFCURVE",
"235 456 OFFCURVE",
"266 497 CURVE SMOOTH",
"297 537 OFFCURVE",
"344 566 OFFCURVE",
"411 566 CURVE SMOOTH",
"432 566 OFFCURVE",
"463 563 OFFCURVE",
"492 551 CURVE",
"520 538 OFFCURVE",
"546 516 OFFCURVE",
"562 480 CURVE",
"581 487 LINE",
"554 555 OFFCURVE",
"486 586 OFFCURVE",
"411 586 CURVE SMOOTH",
"338 586 OFFCURVE",
"285 555 OFFCURVE",
"251 511 CURVE SMOOTH",
"217 466 OFFCURVE",
"200 408 OFFCURVE",
"200 355 CURVE SMOOTH",
"200 283 OFFCURVE",
"230 226 OFFCURVE",
"272 187 CURVE SMOOTH",
"314 147 OFFCURVE",
"368 127 OFFCURVE",
"419 127 CURVE SMOOTH"
);
}
);
width = 824;
}
);
leftKerningGroup = copyright;
note = copyright;
unicode = 00A9;
},
{
glyphname = ordfeminine;
lastChange = "2017-05-18 07:11:10 +0000";
layers = (
{
layerId = "2CA66E5A-B467-404E-84AC-20A403DD408D";
paths = (
{
closed = 1;
nodes = (
"230 351 OFFCURVE",
"286 375 OFFCURVE",
"319 416 CURVE",
"320 387 LINE SMOOTH",
"320 371 OFFCURVE",
"328 361 OFFCURVE",
"343 358 CURVE",
"346 357 OFFCURVE",
"352 357 OFFCURVE",
"361 357 CURVE",
"361 386 LINE",
"352 386 OFFCURVE",
"347 391 OFFCURVE",
"347 402 CURVE SMOOTH",
"347 573 LINE SMOOTH",
"347 658 OFFCURVE",
"294 709 OFFCURVE",
"207 709 CURVE SMOOTH",
"166 709 OFFCURVE",
"123 694 OFFCURVE",
"76 663 CURVE",
"89 643 LINE",
"130 670 OFFCURVE",
"169 684 OFFCURVE",
"205 684 CURVE SMOOTH",
"273 684 OFFCURVE",
"316 641 OFFCURVE",
"316 576 CURVE SMOOTH",
"316 541 LINE",
"284 553 OFFCURVE",
"241 560 OFFCURVE",
"201 560 CURVE SMOOTH",
"157 560 OFFCURVE",
"121 550 OFFCURVE",
"94 532 CURVE SMOOTH",
"67 514 OFFCURVE",
"52 487 OFFCURVE",
"52 458 CURVE SMOOTH",
"52 427 OFFCURVE",
"65 401 OFFCURVE",
"86 382 CURVE SMOOTH",
"107 363 OFFCURVE",
"137 351 OFFCURVE",
"170 351 CURVE SMOOTH"
);
},
{
closed = 1;
nodes = (
"123 377 OFFCURVE",
"82 412 OFFCURVE",
"82 459 CURVE SMOOTH",
"82 507 OFFCURVE",
"132 537 OFFCURVE",
"205 537 CURVE SMOOTH",
"244 537 OFFCURVE",
"281 533 OFFCURVE",
"316 518 CURVE",
"316 457 LINE SMOOTH",
"316 448 OFFCURVE",
"312 439 OFFCURVE",
"305 430 CURVE SMOOTH",
"281 398 OFFCURVE",
"232 377 OFFCURVE",
"176 377 CURVE SMOOTH"
);
}
);
width = 425;
}
);
leftKerningGroup = ordfeminine;
note = ordfeminine;
unicode = 00AA;
},
{
glyphname = guillemotleft;
lastChange = "2017-05-18 07:11:10 +0000";
layers = (
{
layerId = "2CA66E5A-B467-404E-84AC-20A403DD408D";
paths = (
{
closed = 1;
nodes = (
"279 80 LINE",
"279 102 LINE",
"61 259 LINE",
"279 415 LINE",
"279 437 LINE",
"42 268 LINE",
"42 250 LINE"
);
},
{
closed = 1;
nodes = (
"449 80 LINE",
"449 102 LINE",
"231 259 LINE",
"449 415 LINE",
"449 437 LINE",
"212 268 LINE",
"212 250 LINE"
);
}
);
width = 518;
}
);
leftKerningGroup = guillemotleft;
note = guillemotleft;
rightKerningGroup = guillemotleft;
unicode = 00AB;
},
{
glyphname = logicalnot;
lastChange = "2017-05-18 07:11:10 +0000";
layers = (
{
layerId = "2CA66E5A-B467-404E-84AC-20A403DD408D";
paths = (
{
closed = 1;
nodes = (
"87 318 LINE",
"470 318 LINE",
"470 140 LINE",
"490 140 LINE",
"490 338 LINE",
"87 338 LINE"
);
}
);
width = 561;
}
);
note = logicalnot;
unicode = 00AC;
},
{
glyphname = uni00AD;
lastChange = "2017-05-18 07:11:10 +0000";
layers = (
{
layerId = "2CA66E5A-B467-404E-84AC-20A403DD408D";
paths = (
{
closed = 1;
nodes = (
"472 281 LINE",
"69 281 LINE",
"69 261 LINE",
"472 261 LINE"
);
}
);
width = 541;
}
);
leftKerningGroup = hyphen;
note = uni00AD;
rightKerningGroup = hyphen;
unicode = 00AD;
},
{
glyphname = registered;
lastChange = "2017-05-18 07:11:10 +0000";
layers = (
{
layerId = "2CA66E5A-B467-404E-84AC-20A403DD408D";
paths = (
{
closed = 1;
nodes = (
"516 -7 OFFCURVE",
"606 32 OFFCURVE",
"670 97 CURVE SMOOTH",
"734 161 OFFCURVE",
"773 251 OFFCURVE",
"773 355 CURVE SMOOTH",
"773 458 OFFCURVE",
"734 548 OFFCURVE",
"670 612 CURVE SMOOTH",
"606 676 OFFCURVE",
"516 715 OFFCURVE",
"412 715 CURVE SMOOTH",
"308 715 OFFCURVE",
"218 676 OFFCURVE",
"154 612 CURVE SMOOTH",
"90 548 OFFCURVE",
"51 458 OFFCURVE",
"51 355 CURVE SMOOTH",
"51 251 OFFCURVE",
"90 161 OFFCURVE",
"154 97 CURVE SMOOTH",
"218 32 OFFCURVE",
"308 -7 OFFCURVE",
"412 -7 CURVE SMOOTH"
);
},
{
closed = 1;
nodes = (
"313 13 OFFCURVE",
"229 50 OFFCURVE",
"169 111 CURVE SMOOTH",
"108 171 OFFCURVE",
"72 256 OFFCURVE",
"72 355 CURVE SMOOTH",
"72 452 OFFCURVE",
"108 537 OFFCURVE",
"169 598 CURVE SMOOTH",
"229 658 OFFCURVE",
"315 695 OFFCURVE",
"412 695 CURVE SMOOTH",
"509 695 OFFCURVE",
"595 658 OFFCURVE",
"656 598 CURVE SMOOTH",
"716 537 OFFCURVE",
"752 452 OFFCURVE",
"752 355 CURVE SMOOTH",
"752 252 OFFCURVE",
"715 167 OFFCURVE",
"654 107 CURVE SMOOTH",
"593 47 OFFCURVE",
"508 13 OFFCURVE",
"412 13 CURVE SMOOTH"
);
},
{
closed = 1;
nodes = (
"288 121 LINE",
"288 303 LINE",
"444 303 LINE",
"560 121 LINE",
"584 121 LINE",
"467 303 LINE",
"502 306 OFFCURVE",
"532 323 OFFCURVE",
"553 348 CURVE SMOOTH",
"573 373 OFFCURVE",
"585 407 OFFCURVE",
"585 443 CURVE SMOOTH",
"585 478 OFFCURVE",
"572 512 OFFCURVE",
"549 539 CURVE SMOOTH",
"525 566 OFFCURVE",
"492 583 OFFCURVE",
"455 583 CURVE SMOOTH",
"267 583 LINE",
"267 121 LINE"
);
},
{
closed = 1;
nodes = (
"288 562 LINE",
"455 562 LINE SMOOTH",
"487 562 OFFCURVE",
"515 548 OFFCURVE",
"535 527 CURVE SMOOTH",
"554 506 OFFCURVE",
"565 475 OFFCURVE",
"565 443 CURVE SMOOTH",
"565 411 OFFCURVE",
"557 381 OFFCURVE",
"539 359 CURVE SMOOTH",
"521 337 OFFCURVE",
"495 323 OFFCURVE",
"460 323 CURVE SMOOTH",
"288 323 LINE"
);
}
);
width = 824;
}
);
leftKerningGroup = registered;
note = registered;
unicode = 00AE;
},
{
glyphname = macron;
lastChange = "2017-05-18 07:11:10 +0000";
layers = (
{
layerId = "2CA66E5A-B467-404E-84AC-20A403DD408D";
paths = (
{
closed = 1;
nodes = (
"330 706 LINE",
"50 706 LINE",
"50 686 LINE",
"330 686 LINE"
);
}
);
width = 380;
}
);
note = macron;
unicode = 00AF;
},
{
glyphname = degree;
lastChange = "2017-05-18 07:11:10 +0000";
layers = (
{
layerId = "2CA66E5A-B467-404E-84AC-20A403DD408D";
paths = (
{
closed = 1;
nodes = (
"57 616 OFFCURVE",
"87 586 OFFCURVE",
"126 586 CURVE SMOOTH",
"165 586 OFFCURVE",
"195 616 OFFCURVE",
"195 655 CURVE SMOOTH",
"195 694 OFFCURVE",
"165 724 OFFCURVE",
"126 724 CURVE SMOOTH",
"87 724 OFFCURVE",
"57 694 OFFCURVE",
"57 655 CURVE SMOOTH"
);
},
{
closed = 1;
nodes = (
"100 699 OFFCURVE",
"112 704 OFFCURVE",
"126 704 CURVE SMOOTH",
"140 704 OFFCURVE",
"152 699 OFFCURVE",
"161 690 CURVE",
"169 681 OFFCURVE",
"175 670 OFFCURVE",
"175 655 CURVE SMOOTH",
"175 628 OFFCURVE",
"153 606 OFFCURVE",
"126 606 CURVE SMOOTH",
"99 606 OFFCURVE",
"77 626 OFFCURVE",
"77 655 CURVE SMOOTH",
"77 669 OFFCURVE",
"82 681 OFFCURVE",
"91 690 CURVE SMOOTH"
);
}
);
width = 252;
}
);
note = degree;
unicode = 00B0;
},
{
glyphname = plusminus;
lastChange = "2017-05-18 07:11:10 +0000";
layers = (
{
layerId = "2CA66E5A-B467-404E-84AC-20A403DD408D";
paths = (
{
closed = 1;
nodes = (
"385 105 LINE",
"85 105 LINE",
"85 85 LINE",
"385 85 LINE"
);
},
{
closed = 1;
nodes = (
"245 515 LINE",
"225 515 LINE",
"225 365 LINE",
"85 365 LINE",
"85 345 LINE",
"225 345 LINE",
"225 195 LINE",
"245 195 LINE",
"245 345 LINE",
"385 345 LINE",
"385 365 LINE",
"245 365 LINE"
);
}
);
width = 470;
}
);
note = plusminus;
unicode = 00B1;
},
{
glyphname = twosuperior;
lastChange = "2017-05-18 07:11:10 +0000";
layers = (
{
layerId = "2CA66E5A-B467-404E-84AC-20A403DD408D";
paths = (
{
closed = 1;
nodes = (
"325 442 LINE",
"65 442 LINE",
"65 462 OFFCURVE",
"67 489 OFFCURVE",
"82 514 CURVE SMOOTH",
"97 539 OFFCURVE",
"126 564 OFFCURVE",
"178 583 CURVE",
"206 592 OFFCURVE",
"243 603 OFFCURVE",
"272 620 CURVE SMOOTH",
"301 637 OFFCURVE",
"324 662 OFFCURVE",
"324 702 CURVE SMOOTH",
"324 730 OFFCURVE",
"314 758 OFFCURVE",
"292 778 CURVE SMOOTH",
"270 798 OFFCURVE",
"237 811 OFFCURVE",
"192 811 CURVE SMOOTH",
"168 811 OFFCURVE",
"147 808 OFFCURVE",
"129 801 CURVE SMOOTH",
"92 788 OFFCURVE",
"68 771 OFFCURVE",
"56 757 CURVE",
"49 750 OFFCURVE",
"46 745 OFFCURVE",
"45 744 CURVE",
"60 732 LINE",
"68 743 OFFCURVE",
"83 758 OFFCURVE",
"104 770 CURVE SMOOTH",
"125 782 OFFCURVE",
"154 792 OFFCURVE",
"190 792 CURVE SMOOTH",
"229 792 OFFCURVE",
"256 781 OFFCURVE",
"275 765 CURVE SMOOTH",
"294 748 OFFCURVE",
"303 726 OFFCURVE",
"303 703 CURVE SMOOTH",
"303 686 OFFCURVE",
"299 671 OFFCURVE",
"290 660 CURVE SMOOTH",
"272 637 OFFCURVE",
"243 623 OFFCURVE",
"210 612 CURVE",
"193 607 OFFCURVE",
"178 601 OFFCURVE",
"163 596 CURVE SMOOTH",
"87 568 OFFCURVE",
"40 522 OFFCURVE",
"40 423 CURVE",
"325 423 LINE"
);
}
);
width = 369;
}
);
note = twosuperior;
unicode = 00B2;
},
{
glyphname = threesuperior;
lastChange = "2017-05-18 07:11:10 +0000";
layers = (
{
layerId = "2CA66E5A-B467-404E-84AC-20A403DD408D";
paths = (
{
closed = 1;
nodes = (
"231 418 OFFCURVE",
"267 429 OFFCURVE",
"294 447 CURVE SMOOTH",
"321 465 OFFCURVE",
"337 491 OFFCURVE",
"337 520 CURVE SMOOTH",
"337 569 OFFCURVE",
"297 607 OFFCURVE",
"236 618 CURVE",
"295 631 OFFCURVE",
"325 660 OFFCURVE",
"325 705 CURVE SMOOTH",
"325 734 OFFCURVE",
"309 761 OFFCURVE",
"284 781 CURVE SMOOTH",
"259 800 OFFCURVE",
"223 811 OFFCURVE",
"182 811 CURVE SMOOTH",
"121 811 OFFCURVE",
"68 785 OFFCURVE",
"48 745 CURVE",
"63 733 LINE",
"80 768 OFFCURVE",
"126 793 OFFCURVE",
"182 793 CURVE SMOOTH",
"253 793 OFFCURVE",
"304 756 OFFCURVE",
"304 704 CURVE SMOOTH",
"304 653 OFFCURVE",
"256 627 OFFCURVE",
"168 627 CURVE SMOOTH",
"146 627 LINE",
"146 609 LINE",
"168 609 LINE SMOOTH",
"257 609 OFFCURVE",
"317 575 OFFCURVE",
"317 522 CURVE SMOOTH",
"317 498 OFFCURVE",
"304 476 OFFCURVE",
"281 461 CURVE SMOOTH",
"257 446 OFFCURVE",
"226 437 OFFCURVE",
"190 437 CURVE SMOOTH",
"154 437 OFFCURVE",
"121 447 OFFCURVE",
"97 463 CURVE SMOOTH",
"73 478 OFFCURVE",
"58 498 OFFCURVE",
"57 521 CURVE",
"41 514 LINE",
"42 486 OFFCURVE",
"59 462 OFFCURVE",
"86 445 CURVE SMOOTH",
"113 428 OFFCURVE",
"149 418 OFFCURVE",
"190 418 CURVE SMOOTH"
);
}
);
width = 380;
}
);
note = threesuperior;
unicode = 00B3;
},
{
glyphname = acute;
lastChange = "2017-05-18 07:11:10 +0000";
layers = (
{
layerId = "2CA66E5A-B467-404E-84AC-20A403DD408D";
paths = (
{
closed = 1;
nodes = (
"114 730 LINE",
"50 657 LINE",
"66 645 LINE",
"148 730 LINE"
);
}
);
width = 198;
}
);
note = acute;
unicode = 00B4;
},
{
glyphname = mu;
lastChange = "2017-05-18 07:11:10 +0000";
layers = (
{
layerId = "2CA66E5A-B467-404E-84AC-20A403DD408D";
paths = (
{
closed = 1;
nodes = (
"111 -212 LINE",
"111 94 LINE",
"136 25 OFFCURVE",
"185 -10 OFFCURVE",
"258 -10 CURVE SMOOTH",
"351 -10 OFFCURVE",
"439 44 OFFCURVE",
"484 132 CURVE",
"484 40 LINE SMOOTH",
"484 31 OFFCURVE",
"486 24 OFFCURVE",
"490 17 CURVE SMOOTH",
"498 3 OFFCURVE",
"505 0 OFFCURVE",
"520 0 CURVE",
"520 20 LINE",
"509 20 OFFCURVE",
"504 27 OFFCURVE",
"504 40 CURVE SMOOTH",
"504 519 LINE",
"484 519 LINE",
"484 189 LINE",
"468 137 OFFCURVE",
"437 92 OFFCURVE",
"397 61 CURVE SMOOTH",
"357 29 OFFCURVE",
"307 10 OFFCURVE",
"258 10 CURVE SMOOTH",
"160 10 OFFCURVE",
"111 83 OFFCURVE",
"111 228 CURVE SMOOTH",
"111 519 LINE",
"91 519 LINE",
"91 -212 LINE"
);
}
);
width = 602;
}
);
note = mu;
unicode = 00B5;
},
{
glyphname = paragraph;
lastChange = "2017-05-18 07:11:10 +0000";
layers = (
{
layerId = "2CA66E5A-B467-404E-84AC-20A403DD408D";
paths = (
{
closed = 1;
nodes = (
"32 407 OFFCURVE",
"59 350 OFFCURVE",
"108 311 CURVE SMOOTH",
"156 271 OFFCURVE",
"226 249 OFFCURVE",
"314 248 CURVE",
"314 -80 LINE",
"334 -80 LINE",
"334 248 LINE",
"425 248 LINE",
"425 -80 LINE",
"445 -80 LINE",
"445 690 LINE",
"515 690 LINE",
"515 710 LINE",
"314 710 LINE SMOOTH",
"226 710 OFFCURVE",
"155 688 OFFCURVE",
"107 648 CURVE SMOOTH",
"58 608 OFFCURVE",
"32 551 OFFCURVE",
"32 479 CURVE SMOOTH"
);
},
{
closed = 1;
nodes = (
"52 612 OFFCURVE",
"143 690 OFFCURVE",
"314 690 CURVE",
"314 268 LINE",
"243 271 OFFCURVE",
"178 287 OFFCURVE",
"130 321 CURVE SMOOTH",
"82 355 OFFCURVE",
"52 406 OFFCURVE",
"52 479 CURVE SMOOTH"
);
},
{
closed = 1;
nodes = (
"334 268 LINE",
"334 690 LINE",
"425 690 LINE",
"425 268 LINE"
);
}
);
width = 565;
}
);
note = paragraph;
unicode = 00B6;
},
{
glyphname = periodcentered;
lastChange = "2017-05-18 07:11:10 +0000";
layers = (
{
layerId = "2CA66E5A-B467-404E-84AC-20A403DD408D";
paths = (
{
closed = 1;
nodes = (
"89 333 LINE",
"69 333 LINE",
"69 250 LINE",
"89 250 LINE"
);
}
);
width = 158;
}
);
leftKerningGroup = periodcentered;
note = periodcentered;
rightKerningGroup = periodcentered;
unicode = 00B7;
},
{
glyphname = cedilla;
lastChange = "2017-05-18 07:11:10 +0000";
layers = (
{
layerId = "2CA66E5A-B467-404E-84AC-20A403DD408D";
paths = (
{
closed = 1;
nodes = (
"48 -154 OFFCURVE",
"82 -162 OFFCURVE",
"117 -162 CURVE SMOOTH",
"168 -162 OFFCURVE",
"198 -145 OFFCURVE",
"198 -105 CURVE SMOOTH",
"198 -69 OFFCURVE",
"175 -51 OFFCURVE",
"130 -51 CURVE SMOOTH",
"119 -51 OFFCURVE",
"101 -52 OFFCURVE",
"88 -57 CURVE",
"121 0 LINE",
"103 11 LINE",
"49 -83 LINE",
"68 -76 OFFCURVE",
"102 -67 OFFCURVE",
"130 -67 CURVE SMOOTH",
"158 -67 OFFCURVE",
"178 -77 OFFCURVE",
"178 -105 CURVE SMOOTH",
"178 -130 OFFCURVE",
"159 -143 OFFCURVE",
"120 -143 CURVE SMOOTH",
"85 -143 OFFCURVE",
"53 -134 OFFCURVE",
"33 -125 CURVE",
"23 -143 LINE"
);
}
);
width = 252;
}
);
note = cedilla;
unicode = 00B8;
},
{
glyphname = onesuperior;
lastChange = "2017-05-18 07:11:10 +0000";
layers = (
{
layerId = "2CA66E5A-B467-404E-84AC-20A403DD408D";
paths = (
{
closed = 1;
nodes = (
"152 811 LINE",
"132 811 LINE",
"131 810 OFFCURVE",
"128 807 OFFCURVE",
"122 802 CURVE",
"116 796 OFFCURVE",
"108 790 OFFCURVE",
"99 783 CURVE",
"80 770 OFFCURVE",
"56 757 OFFCURVE",
"35 757 CURVE",
"35 738 LINE",
"51 738 OFFCURVE",
"73 746 OFFCURVE",
"91 755 CURVE SMOOTH",
"109 764 OFFCURVE",
"125 777 OFFCURVE",
"132 785 CURVE",
"132 441 LINE",
"49 441 LINE",
"49 422 LINE",
"230 422 LINE",
"230 441 LINE",
"152 441 LINE"
);
}
);
width = 252;
}
);
note = onesuperior;
unicode = 00B9;
},
{
glyphname = ordmasculine;
lastChange = "2017-05-18 07:11:10 +0000";
layers = (
{
layerId = "2CA66E5A-B467-404E-84AC-20A403DD408D";
paths = (
{
closed = 1;
nodes = (
"273 351 OFFCURVE",
"318 372 OFFCURVE",
"350 405 CURVE SMOOTH",
"382 437 OFFCURVE",
"401 481 OFFCURVE",
"401 529 CURVE SMOOTH",
"401 578 OFFCURVE",
"382 623 OFFCURVE",
"350 656 CURVE SMOOTH",
"318 688 OFFCURVE",
"273 709 OFFCURVE",
"224 709 CURVE SMOOTH",
"175 709 OFFCURVE",
"131 688 OFFCURVE",
"100 656 CURVE SMOOTH",
"68 623 OFFCURVE",
"49 578 OFFCURVE",
"49 529 CURVE SMOOTH",
"49 481 OFFCURVE",
"68 437 OFFCURVE",
"100 405 CURVE SMOOTH",
"131 372 OFFCURVE",
"175 351 OFFCURVE",
"224 351 CURVE SMOOTH"
);
},
{
closed = 1;
nodes = (
"71 572 OFFCURVE",
"88 613 OFFCURVE",
"116 642 CURVE SMOOTH",
"144 671 OFFCURVE",
"183 689 OFFCURVE",
"224 689 CURVE SMOOTH",
"267 689 OFFCURVE",
"305 671 OFFCURVE",
"333 643 CURVE SMOOTH",
"361 614 OFFCURVE",
"379 574 OFFCURVE",
"379 530 CURVE SMOOTH",
"379 486 OFFCURVE",
"361 446 OFFCURVE",
"333 418 CURVE SMOOTH",
"305 389 OFFCURVE",
"267 370 OFFCURVE",
"224 370 CURVE SMOOTH",
"181 370 OFFCURVE",
"144 388 OFFCURVE",
"116 417 CURVE SMOOTH",
"88 445 OFFCURVE",
"71 484 OFFCURVE",
"71 528 CURVE SMOOTH"
);
}
);
width = 450;
}
);
leftKerningGroup = ordmasculine;
note = ordmasculine;
unicode = 00BA;
},
{
glyphname = guillemotright;
lastChange = "2017-05-18 07:11:10 +0000";
layers = (
{
layerId = "2CA66E5A-B467-404E-84AC-20A403DD408D";
paths = (
{
closed = 1;
nodes = (
"239 437 LINE",
"239 415 LINE",
"457 259 LINE",
"239 102 LINE",
"239 80 LINE",
"476 250 LINE",
"476 268 LINE"
);
},
{
closed = 1;
nodes = (
"69 437 LINE",
"69 415 LINE",
"287 259 LINE",
"69 102 LINE",
"69 80 LINE",
"306 250 LINE",
"306 268 LINE"
);
}
);
width = 518;
}
);
leftKerningGroup = guillemotright;
note = guillemotright;
rightKerningGroup = guillemotright;
unicode = 00BB;
},
{
glyphname = onequarter;
lastChange = "2017-05-18 07:11:10 +0000";
layers = (
{
layerId = "2CA66E5A-B467-404E-84AC-20A403DD408D";
paths = (
{
closed = 1;
nodes = (
"672 699 LINE",
"656 711 LINE",
"98 11 LINE",
"114 -1 LINE"
);
},
{
closed = 1;
nodes = (
"163 731 LINE",
"143 731 LINE",
"142 730 OFFCURVE",
"139 727 OFFCURVE",
"133 722 CURVE",
"127 716 OFFCURVE",
"119 710 OFFCURVE",
"110 703 CURVE",
"91 690 OFFCURVE",
"67 677 OFFCURVE",
"46 677 CURVE",
"46 658 LINE",
"62 658 OFFCURVE",
"84 666 OFFCURVE",
"102 675 CURVE SMOOTH",
"120 684 OFFCURVE",
"136 697 OFFCURVE",
"143 705 CURVE",
"143 361 LINE",
"60 361 LINE",
"60 342 LINE",
"241 342 LINE",
"241 361 LINE",
"163 361 LINE"
);
},
{
closed = 1;
nodes = (
"654 110 LINE",
"709 110 LINE",
"709 129 LINE",
"654 129 LINE",
"654 383 LINE",
"640 383 LINE",
"401 127 LINE",
"401 110 LINE",
"634 110 LINE",
"634 0 LINE",
"654 0 LINE"
);
},
{
closed = 1;
nodes = (
"634 129 LINE",
"429 129 LINE",
"634 348 LINE"
);
}
);
width = 745;
}
);
note = onequarter;
unicode = 00BC;
},
{
glyphname = onehalf;
lastChange = "2017-05-18 07:11:10 +0000";
layers = (
{
layerId = "2CA66E5A-B467-404E-84AC-20A403DD408D";
paths = (
{
closed = 1;
nodes = (
"645 699 LINE",
"629 711 LINE",
"71 11 LINE",
"87 -1 LINE"
);
},
{
closed = 1;
nodes = (
"167 731 LINE",
"147 731 LINE",
"146 730 OFFCURVE",
"143 727 OFFCURVE",
"137 722 CURVE",
"131 716 OFFCURVE",
"123 710 OFFCURVE",
"114 703 CURVE",
"95 690 OFFCURVE",
"71 677 OFFCURVE",
"50 677 CURVE",
"50 658 LINE",
"66 658 OFFCURVE",
"88 666 OFFCURVE",
"106 675 CURVE SMOOTH",
"124 684 OFFCURVE",
"140 697 OFFCURVE",
"147 705 CURVE",
"147 361 LINE",
"64 361 LINE",
"64 342 LINE",
"245 342 LINE",
"245 361 LINE",
"167 361 LINE"
);
},
{
closed = 1;
nodes = (
"752 19 LINE",
"492 19 LINE",
"492 39 OFFCURVE",
"494 66 OFFCURVE",
"509 91 CURVE SMOOTH",
"524 116 OFFCURVE",
"553 141 OFFCURVE",
"605 160 CURVE",
"633 169 OFFCURVE",
"670 180 OFFCURVE",
"699 197 CURVE SMOOTH",
"728 214 OFFCURVE",
"751 239 OFFCURVE",
"751 279 CURVE SMOOTH",
"751 307 OFFCURVE",
"741 335 OFFCURVE",
"719 355 CURVE SMOOTH",
"697 375 OFFCURVE",
"664 388 OFFCURVE",
"619 388 CURVE SMOOTH",
"595 388 OFFCURVE",
"574 385 OFFCURVE",
"556 378 CURVE SMOOTH",
"519 365 OFFCURVE",
"495 348 OFFCURVE",
"483 334 CURVE",
"476 327 OFFCURVE",
"473 322 OFFCURVE",
"472 321 CURVE",
"487 309 LINE",
"495 320 OFFCURVE",
"510 335 OFFCURVE",
"531 347 CURVE SMOOTH",
"552 359 OFFCURVE",
"581 369 OFFCURVE",
"617 369 CURVE SMOOTH",
"656 369 OFFCURVE",
"683 358 OFFCURVE",
"702 342 CURVE SMOOTH",
"721 325 OFFCURVE",
"730 303 OFFCURVE",
"730 280 CURVE SMOOTH",
"730 263 OFFCURVE",
"726 248 OFFCURVE",
"717 237 CURVE SMOOTH",
"699 214 OFFCURVE",
"670 200 OFFCURVE",
"637 189 CURVE",
"620 184 OFFCURVE",
"605 178 OFFCURVE",
"590 173 CURVE SMOOTH",
"514 145 OFFCURVE",
"467 99 OFFCURVE",
"467 0 CURVE",
"752 0 LINE"
);
}
);
width = 796;
}
);
note = onehalf;
unicode = 00BD;
},
{
glyphname = threequarters;
lastChange = "2017-05-18 07:11:10 +0000";
layers = (
{
layerId = "2CA66E5A-B467-404E-84AC-20A403DD408D";
paths = (
{
closed = 1;
nodes = (
"711 699 LINE",
"695 711 LINE",
"137 11 LINE",
"153 -1 LINE"
);
},
{
closed = 1;
nodes = (
"669 110 LINE",
"724 110 LINE",
"724 129 LINE",
"669 129 LINE",
"669 383 LINE",
"655 383 LINE",
"416 127 LINE",
"416 110 LINE",
"649 110 LINE",
"649 0 LINE",
"669 0 LINE"
);
},
{
closed = 1;
nodes = (
"649 129 LINE",
"444 129 LINE",
"649 348 LINE"
);
},
{
closed = 1;
nodes = (
"235 338 OFFCURVE",
"271 349 OFFCURVE",
"298 367 CURVE SMOOTH",
"325 385 OFFCURVE",
"341 411 OFFCURVE",
"341 440 CURVE SMOOTH",
"341 489 OFFCURVE",
"301 527 OFFCURVE",
"240 538 CURVE",
"299 551 OFFCURVE",
"329 580 OFFCURVE",
"329 625 CURVE SMOOTH",
"329 654 OFFCURVE",
"313 681 OFFCURVE",
"288 701 CURVE SMOOTH",
"263 720 OFFCURVE",
"227 731 OFFCURVE",
"186 731 CURVE SMOOTH",
"125 731 OFFCURVE",
"72 705 OFFCURVE",
"52 665 CURVE",
"67 653 LINE",
"84 688 OFFCURVE",
"130 713 OFFCURVE",
"186 713 CURVE SMOOTH",
"257 713 OFFCURVE",
"308 676 OFFCURVE",
"308 624 CURVE SMOOTH",
"308 573 OFFCURVE",
"260 547 OFFCURVE",
"172 547 CURVE SMOOTH",
"150 547 LINE",
"150 529 LINE",
"172 529 LINE SMOOTH",
"261 529 OFFCURVE",
"321 495 OFFCURVE",
"321 442 CURVE SMOOTH",
"321 418 OFFCURVE",
"308 396 OFFCURVE",
"285 381 CURVE SMOOTH",
"261 366 OFFCURVE",
"230 357 OFFCURVE",
"194 357 CURVE SMOOTH",
"158 357 OFFCURVE",
"125 367 OFFCURVE",
"101 383 CURVE SMOOTH",
"77 398 OFFCURVE",
"62 418 OFFCURVE",
"61 441 CURVE",
"45 434 LINE",
"46 406 OFFCURVE",
"63 382 OFFCURVE",
"90 365 CURVE SMOOTH",
"117 348 OFFCURVE",
"153 338 OFFCURVE",
"194 338 CURVE SMOOTH"
);
}
);
width = 766;
}
);
note = threequarters;
unicode = 00BE;
},
{
glyphname = questiondown;
lastChange = "2017-05-18 07:11:10 +0000";
layers = (
{
layerId = "2CA66E5A-B467-404E-84AC-20A403DD408D";
paths = (
{
closed = 1;
nodes = (
"266 268 OFFCURVE",
"258 232 OFFCURVE",
"245 208 CURVE SMOOTH",
"232 183 OFFCURVE",
"213 171 OFFCURVE",
"192 159 CURVE SMOOTH",
"174 149 OFFCURVE",
"156 140 OFFCURVE",
"137 131 CURVE SMOOTH",
"118 122 OFFCURVE",
"101 111 OFFCURVE",
"86 98 CURVE SMOOTH",
"55 72 OFFCURVE",
"34 34 OFFCURVE",
"34 -26 CURVE SMOOTH",
"34 -87 OFFCURVE",
"56 -134 OFFCURVE",
"91 -165 CURVE SMOOTH",
"126 -197 OFFCURVE",
"173 -213 OFFCURVE",
"221 -213 CURVE SMOOTH",
"262 -213 OFFCURVE",
"305 -201 OFFCURVE",
"342 -179 CURVE SMOOTH",
"379 -157 OFFCURVE",
"410 -125 OFFCURVE",
"429 -84 CURVE",
"411 -76 LINE",
"394 -112 OFFCURVE",
"366 -141 OFFCURVE",
"333 -161 CURVE SMOOTH",
"300 -182 OFFCURVE",
"260 -193 OFFCURVE",
"220 -193 CURVE SMOOTH",
"177 -193 OFFCURVE",
"137 -181 OFFCURVE",
"106 -154 CURVE SMOOTH",
"74 -127 OFFCURVE",
"54 -86 OFFCURVE",
"54 -29 CURVE SMOOTH",
"54 0 OFFCURVE",
"59 23 OFFCURVE",
"68 41 CURVE SMOOTH",
"87 77 OFFCURVE",
"117 100 OFFCURVE",
"151 116 CURVE SMOOTH",
"168 124 OFFCURVE",
"184 132 OFFCURVE",
"200 140 CURVE SMOOTH",
"224 152 OFFCURVE",
"246 167 OFFCURVE",
"262 195 CURVE SMOOTH",
"277 223 OFFCURVE",
"286 263 OFFCURVE",
"286 327 CURVE",
"266 327 LINE"
);
},
{
closed = 1;
nodes = (
"266 422 LINE",
"286 422 LINE",
"286 506 LINE",
"266 506 LINE"
);
}
);
width = 461;
}
);
note = questiondown;
rightKerningGroup = questiondown;
unicode = 00BF;
},
{
glyphname = Agrave;
lastChange = "2017-05-18 07:11:10 +0000";
layers = (
{
layerId = "2CA66E5A-B467-404E-84AC-20A403DD408D";
paths = (
{
closed = 1;
nodes = (
"40 0 LINE",
"151 254 LINE",
"522 254 LINE",
"633 0 LINE",
"655 0 LINE",
"346 710 LINE",
"328 710 LINE",
"18 0 LINE"
);
},
{
closed = 1;
nodes = (
"337 681 LINE",
"513 274 LINE",
"159 274 LINE"
);
},
{
closed = 1;
nodes = (
"367 845 LINE",
"302 918 LINE",
"269 918 LINE",
"351 833 LINE"
);
}
);
width = 674;
}
);
leftKerningGroup = A;
note = Agrave;
rightKerningGroup = A;
unicode = 00C0;
},
{
glyphname = Aacute;
lastChange = "2017-05-18 07:11:10 +0000";
layers = (
{
layerId = "2CA66E5A-B467-404E-84AC-20A403DD408D";
paths = (
{
closed = 1;
nodes = (
"40 0 LINE",
"151 254 LINE",
"522 254 LINE",
"633 0 LINE",
"655 0 LINE",
"346 710 LINE",
"328 710 LINE",
"18 0 LINE"
);
},
{
closed = 1;
nodes = (
"337 681 LINE",
"513 274 LINE",
"159 274 LINE"
);
},
{
closed = 1;
nodes = (
"371 918 LINE",
"307 845 LINE",
"323 833 LINE",
"405 918 LINE"
);
}
);
width = 674;
}
);
leftKerningGroup = A;
note = Aacute;
rightKerningGroup = A;
unicode = 00C1;
},
{
glyphname = Acircumflex;
lastChange = "2017-05-18 07:11:10 +0000";
layers = (
{
layerId = "2CA66E5A-B467-404E-84AC-20A403DD408D";
paths = (
{
closed = 1;
nodes = (
"40 0 LINE",
"151 254 LINE",
"522 254 LINE",
"633 0 LINE",
"655 0 LINE",
"346 710 LINE",
"328 710 LINE",
"18 0 LINE"
);
},
{
closed = 1;
nodes = (
"337 681 LINE",
"513 274 LINE",
"159 274 LINE"
);
},
{
closed = 1;
nodes = (
"337 895 LINE",
"422 832 LINE",
"438 844 LINE",
"345 918 LINE",
"329 918 LINE",
"236 844 LINE",
"252 832 LINE"
);
}
);
width = 674;
}
);
leftKerningGroup = A;
note = Acircumflex;
rightKerningGroup = A;
unicode = 00C2;
},
{
glyphname = Atilde;
lastChange = "2017-05-18 07:11:10 +0000";
layers = (
{
layerId = "2CA66E5A-B467-404E-84AC-20A403DD408D";
paths = (
{
closed = 1;
nodes = (
"40 0 LINE",
"151 254 LINE",
"522 254 LINE",
"633 0 LINE",
"655 0 LINE",
"346 710 LINE",
"328 710 LINE",
"18 0 LINE"
);
},
{
closed = 1;
nodes = (
"337 681 LINE",
"513 274 LINE",
"159 274 LINE"
);
},
{
closed = 1;
nodes = (
"416 851 OFFCURVE",
"431 854 OFFCURVE",
"442 860 CURVE SMOOTH",
"464 872 OFFCURVE",
"473 889 OFFCURVE",
"477 904 CURVE",
"478 911 OFFCURVE",
"479 916 OFFCURVE",
"479 918 CURVE",
"459 918 LINE",
"459 917 OFFCURVE",
"459 914 OFFCURVE",
"458 909 CURVE SMOOTH",
"457 904 OFFCURVE",
"454 898 OFFCURVE",
"450 893 CURVE",
"442 881 OFFCURVE",
"428 870 OFFCURVE",
"400 870 CURVE SMOOTH",
"375 870 OFFCURVE",
"357 880 OFFCURVE",
"338 889 CURVE SMOOTH",
"319 898 OFFCURVE",
"300 908 OFFCURVE",
"275 908 CURVE SMOOTH",
"258 908 OFFCURVE",
"245 905 OFFCURVE",
"236 899 CURVE SMOOTH",
"216 886 OFFCURVE",
"207 869 OFFCURVE",
"204 854 CURVE",
"203 847 OFFCURVE",
"202 842 OFFCURVE",
"202 841 CURVE",
"222 841 LINE",
"222 842 OFFCURVE",
"223 846 OFFCURVE",
"224 851 CURVE SMOOTH",
"225 856 OFFCURVE",
"228 862 OFFCURVE",
"232 868 CURVE SMOOTH",
"239 879 OFFCURVE",
"252 889 OFFCURVE",
"273 889 CURVE SMOOTH",
"293 889 OFFCURVE",
"310 879 OFFCURVE",
"329 870 CURVE SMOOTH",
"348 861 OFFCURVE",
"369 851 OFFCURVE",
"398 851 CURVE SMOOTH"
);
}
);
width = 674;
}
);
leftKerningGroup = A;
note = Atilde;
rightKerningGroup = A;
unicode = 00C3;
},
{
glyphname = Adieresis;
lastChange = "2017-05-18 07:11:10 +0000";
layers = (
{
layerId = "2CA66E5A-B467-404E-84AC-20A403DD408D";
paths = (
{
closed = 1;
nodes = (
"40 0 LINE",
"151 254 LINE",
"522 254 LINE",
"633 0 LINE",
"655 0 LINE",
"346 710 LINE",
"328 710 LINE",
"18 0 LINE"
);
},
{
closed = 1;
nodes = (
"337 681 LINE",
"513 274 LINE",
"159 274 LINE"
);
},
{
closed = 1;
nodes = (
"289 918 LINE",
"269 918 LINE",
"269 841 LINE",
"289 841 LINE"
);
},
{
closed = 1;
nodes = (
"405 918 LINE",
"385 918 LINE",
"385 841 LINE",
"405 841 LINE"
);
}
);
width = 674;
}
);
leftKerningGroup = A;
note = Adieresis;
rightKerningGroup = A;
unicode = 00C4;
},
{
glyphname = Aring;
lastChange = "2017-05-18 07:11:10 +0000";
layers = (
{
layerId = "2CA66E5A-B467-404E-84AC-20A403DD408D";
paths = (
{
closed = 1;
nodes = (
"40 0 LINE",
"151 254 LINE",
"522 254 LINE",
"633 0 LINE",
"655 0 LINE",
"346 710 LINE",
"328 710 LINE",
"18 0 LINE"
);
},
{
closed = 1;
nodes = (
"337 681 LINE",
"513 274 LINE",
"159 274 LINE"
);
},
{
closed = 1;
nodes = (
"280 829 OFFCURVE",
"305 804 OFFCURVE",
"337 804 CURVE SMOOTH",
"369 804 OFFCURVE",
"394 829 OFFCURVE",
"394 861 CURVE SMOOTH",
"394 893 OFFCURVE",
"369 918 OFFCURVE",
"337 918 CURVE SMOOTH",
"305 918 OFFCURVE",
"280 893 OFFCURVE",
"280 861 CURVE SMOOTH"
);
},
{
closed = 1;
nodes = (
"360 902 OFFCURVE",
"378 886 OFFCURVE",
"378 861 CURVE SMOOTH",
"378 837 OFFCURVE",
"357 820 OFFCURVE",
"337 820 CURVE SMOOTH",
"314 820 OFFCURVE",
"296 838 OFFCURVE",
"296 861 CURVE SMOOTH",
"296 886 OFFCURVE",
"314 902 OFFCURVE",
"337 902 CURVE SMOOTH"
);
}
);
width = 674;
}
);
leftKerningGroup = A;
note = Aring;
rightKerningGroup = A;
unicode = 00C5;
},
{
glyphname = AE;
lastChange = "2017-05-18 07:11:10 +0000";
layers = (
{
layerId = "2CA66E5A-B467-404E-84AC-20A403DD408D";
paths = (
{
closed = 1;
nodes = (
"-4 0 LINE",
"163 254 LINE",
"444 254 LINE",
"444 0 LINE",
"910 0 LINE",
"910 20 LINE",
"464 20 LINE",
"464 353 LINE",
"847 353 LINE",
"847 373 LINE",
"464 373 LINE",
"464 690 LINE",
"901 690 LINE",
"901 710 LINE",
"439 710 LINE",
"-29 0 LINE"
);
},
{
closed = 1;
nodes = (
"444 678 LINE",
"444 274 LINE",
"175 274 LINE"
);
}
);
width = 962;
}
);
leftKerningGroup = AE;
note = AE;
rightKerningGroup = E;
unicode = 00C6;
},
{
glyphname = Ccedilla;
lastChange = "2017-05-18 07:11:10 +0000";
layers = (
{
layerId = "2CA66E5A-B467-404E-84AC-20A403DD408D";
paths = (
{
closed = 1;
nodes = (
"321 -154 OFFCURVE",
"355 -162 OFFCURVE",
"390 -162 CURVE SMOOTH",
"441 -162 OFFCURVE",
"471 -145 OFFCURVE",
"471 -105 CURVE SMOOTH",
"471 -69 OFFCURVE",
"448 -51 OFFCURVE",
"403 -51 CURVE SMOOTH",
"392 -51 OFFCURVE",
"374 -52 OFFCURVE",
"361 -57 CURVE",
"391 -5 LINE",
"443 -2 OFFCURVE",
"497 13 OFFCURVE",
"545 41 CURVE SMOOTH",
"592 68 OFFCURVE",
"631 108 OFFCURVE",
"655 159 CURVE",
"636 164 LINE",
"608 112 OFFCURVE",
"568 74 OFFCURVE",
"522 50 CURVE SMOOTH",
"476 26 OFFCURVE",
"425 14 OFFCURVE",
"378 14 CURVE SMOOTH",
"290 14 OFFCURVE",
"212 54 OFFCURVE",
"156 118 CURVE SMOOTH",
"99 181 OFFCURVE",
"64 266 OFFCURVE",
"64 357 CURVE SMOOTH",
"64 438 OFFCURVE",
"92 523 OFFCURVE",
"145 587 CURVE SMOOTH",
"198 651 OFFCURVE",
"276 694 OFFCURVE",
"375 694 CURVE SMOOTH",
"420 694 OFFCURVE",
"467 685 OFFCURVE",
"511 663 CURVE SMOOTH",
"554 641 OFFCURVE",
"591 605 OFFCURVE",
"619 553 CURVE",
"638 559 LINE",
"595 650 OFFCURVE",
"506 714 OFFCURVE",
"379 714 CURVE SMOOTH",
"272 714 OFFCURVE",
"188 668 OFFCURVE",
"132 601 CURVE SMOOTH",
"75 533 OFFCURVE",
"44 445 OFFCURVE",
"44 360 CURVE SMOOTH",
"44 271 OFFCURVE",
"77 181 OFFCURVE",
"134 113 CURVE SMOOTH",
"191 44 OFFCURVE",
"271 -4 OFFCURVE",
"366 -5 CURVE",
"322 -83 LINE",
"341 -76 OFFCURVE",
"375 -67 OFFCURVE",
"403 -67 CURVE SMOOTH",
"431 -67 OFFCURVE",
"451 -77 OFFCURVE",
"451 -105 CURVE SMOOTH",
"451 -130 OFFCURVE",
"432 -143 OFFCURVE",
"393 -143 CURVE SMOOTH",
"358 -143 OFFCURVE",
"326 -134 OFFCURVE",
"306 -125 CURVE",
"296 -143 LINE"
);
}
);
width = 693;
}
);
leftKerningGroup = C;
note = Ccedilla;
rightKerningGroup = C;
unicode = 00C7;
},
{
glyphname = Egrave;
lastChange = "2017-05-18 07:11:10 +0000";
layers = (
{
layerId = "2CA66E5A-B467-404E-84AC-20A403DD408D";
paths = (
{
closed = 1;
nodes = (
"119 353 LINE",
"502 353 LINE",
"502 373 LINE",
"119 373 LINE",
"119 690 LINE",
"556 690 LINE",
"556 710 LINE",
"99 710 LINE",
"99 0 LINE",
"565 0 LINE",
"565 20 LINE",
"119 20 LINE"
);
},
{
closed = 1;
nodes = (
"374 845 LINE",
"309 918 LINE",
"276 918 LINE",
"358 833 LINE"
);
}
);
width = 617;
}
);
leftKerningGroup = B;
note = Egrave;
rightKerningGroup = E;
unicode = 00C8;
},
{
glyphname = Eacute;
lastChange = "2017-05-18 07:11:10 +0000";
layers = (
{
layerId = "2CA66E5A-B467-404E-84AC-20A403DD408D";
paths = (
{
closed = 1;
nodes = (
"119 353 LINE",
"502 353 LINE",
"502 373 LINE",
"119 373 LINE",
"119 690 LINE",
"556 690 LINE",
"556 710 LINE",
"99 710 LINE",
"99 0 LINE",
"565 0 LINE",
"565 20 LINE",
"119 20 LINE"
);
},
{
closed = 1;
nodes = (
"378 918 LINE",
"314 845 LINE",
"330 833 LINE",
"412 918 LINE"
);
}
);
width = 617;
}
);
leftKerningGroup = B;
note = Eacute;
rightKerningGroup = E;
unicode = 00C9;
},
{
glyphname = Ecircumflex;
lastChange = "2017-05-18 07:11:10 +0000";
layers = (
{
layerId = "2CA66E5A-B467-404E-84AC-20A403DD408D";
paths = (
{
closed = 1;
nodes = (
"119 353 LINE",
"502 353 LINE",
"502 373 LINE",
"119 373 LINE",
"119 690 LINE",
"556 690 LINE",
"556 710 LINE",
"99 710 LINE",
"99 0 LINE",
"565 0 LINE",
"565 20 LINE",
"119 20 LINE"
);
},
{
closed = 1;
nodes = (
"344 895 LINE",
"429 832 LINE",
"445 844 LINE",
"352 918 LINE",
"336 918 LINE",
"243 844 LINE",
"259 832 LINE"
);
}
);
width = 617;
}
);
leftKerningGroup = B;
note = Ecircumflex;
rightKerningGroup = E;
unicode = 00CA;
},
{
glyphname = Edieresis;
lastChange = "2017-05-18 07:11:10 +0000";
layers = (
{
layerId = "2CA66E5A-B467-404E-84AC-20A403DD408D";
paths = (
{
closed = 1;
nodes = (
"119 353 LINE",
"502 353 LINE",
"502 373 LINE",
"119 373 LINE",
"119 690 LINE",
"556 690 LINE",
"556 710 LINE",
"99 710 LINE",
"99 0 LINE",
"565 0 LINE",
"565 20 LINE",
"119 20 LINE"
);
},
{
closed = 1;
nodes = (
"296 918 LINE",
"276 918 LINE",
"276 841 LINE",
"296 841 LINE"
);
},
{
closed = 1;
nodes = (
"412 918 LINE",
"392 918 LINE",
"392 841 LINE",
"412 841 LINE"
);
}
);
width = 617;
}
);
leftKerningGroup = B;
note = Edieresis;
rightKerningGroup = E;
unicode = 00CB;
},
{
glyphname = Igrave;
lastChange = "2017-05-18 07:11:10 +0000";
layers = (
{
layerId = "2CA66E5A-B467-404E-84AC-20A403DD408D";
paths = (
{
closed = 1;
nodes = (
"119 710 LINE",
"99 710 LINE",
"99 0 LINE",
"119 0 LINE"
);
},
{
closed = 1;
nodes = (
"139 845 LINE",
"74 918 LINE",
"41 918 LINE",
"123 833 LINE"
);
}
);
width = 218;
}
);
leftKerningGroup = B;
note = Igrave;
rightKerningGroup = H;
unicode = 00CC;
},
{
glyphname = Iacute;
lastChange = "2017-05-18 07:11:10 +0000";
layers = (
{
layerId = "2CA66E5A-B467-404E-84AC-20A403DD408D";
paths = (
{
closed = 1;
nodes = (
"119 710 LINE",
"99 710 LINE",
"99 0 LINE",
"119 0 LINE"
);
},
{
closed = 1;
nodes = (
"143 918 LINE",
"79 845 LINE",
"95 833 LINE",
"177 918 LINE"
);
}
);
width = 218;
}
);
leftKerningGroup = B;
note = Iacute;
rightKerningGroup = H;
unicode = 00CD;
},
{
glyphname = Icircumflex;
lastChange = "2017-05-18 07:11:10 +0000";
layers = (
{
layerId = "2CA66E5A-B467-404E-84AC-20A403DD408D";
paths = (
{
closed = 1;
nodes = (
"119 710 LINE",
"99 710 LINE",
"99 0 LINE",
"119 0 LINE"
);
},
{
closed = 1;
nodes = (
"109 895 LINE",
"194 832 LINE",
"210 844 LINE",
"117 918 LINE",
"101 918 LINE",
"8 844 LINE",
"24 832 LINE"
);
}
);
width = 218;
}
);
leftKerningGroup = B;
note = Icircumflex;
rightKerningGroup = H;
unicode = 00CE;
},
{
glyphname = Idieresis;
lastChange = "2017-05-18 07:11:10 +0000";
layers = (
{
layerId = "2CA66E5A-B467-404E-84AC-20A403DD408D";
paths = (
{
closed = 1;
nodes = (
"119 710 LINE",
"99 710 LINE",
"99 0 LINE",
"119 0 LINE"
);
},
{
closed = 1;
nodes = (
"61 918 LINE",
"41 918 LINE",
"41 841 LINE",
"61 841 LINE"
);
},
{
closed = 1;
nodes = (
"177 918 LINE",
"157 918 LINE",
"157 841 LINE",
"177 841 LINE"
);
}
);
width = 218;
}
);
leftKerningGroup = B;
note = Idieresis;
rightKerningGroup = H;
unicode = 00CF;
},
{
glyphname = Eth;
lastChange = "2017-05-18 07:11:10 +0000";
layers = (
{
layerId = "2CA66E5A-B467-404E-84AC-20A403DD408D";
paths = (
{
closed = 1;
nodes = (
"435 0 OFFCURVE",
"520 36 OFFCURVE",
"577 98 CURVE SMOOTH",
"634 160 OFFCURVE",
"667 248 OFFCURVE",
"667 356 CURVE SMOOTH",
"667 453 OFFCURVE",
"640 542 OFFCURVE",
"585 606 CURVE SMOOTH",
"529 670 OFFCURVE",
"446 710 OFFCURVE",
"334 710 CURVE SMOOTH",
"106 710 LINE",
"106 367 LINE",
"35 367 LINE",
"35 347 LINE",
"106 347 LINE",
"106 0 LINE",
"334 0 LINE SMOOTH"
);
},
{
closed = 1;
nodes = (
"647 260 OFFCURVE",
"620 176 OFFCURVE",
"568 116 CURVE SMOOTH",
"515 56 OFFCURVE",
"437 20 OFFCURVE",
"334 20 CURVE SMOOTH",
"126 20 LINE",
"126 347 LINE",
"318 347 LINE",
"318 367 LINE",
"126 367 LINE",
"126 690 LINE",
"334 690 LINE SMOOTH",
"434 690 OFFCURVE",
"513 655 OFFCURVE",
"566 596 CURVE SMOOTH",
"619 536 OFFCURVE",
"647 453 OFFCURVE",
"647 356 CURVE SMOOTH"
);
}
);
width = 718;
}
);
leftKerningGroup = B;
note = Eth;
rightKerningGroup = D;
unicode = 00D0;
},
{
glyphname = Ntilde;
lastChange = "2017-05-18 07:11:10 +0000";
layers = (
{
layerId = "2CA66E5A-B467-404E-84AC-20A403DD408D";
paths = (
{
closed = 1;
nodes = (
"677 0 LINE",
"677 710 LINE",
"657 710 LINE",
"657 29 LINE",
"114 710 LINE",
"99 710 LINE",
"99 0 LINE",
"119 0 LINE",
"119 671 LINE",
"654 0 LINE"
);
},
{
closed = 1;
nodes = (
"472 851 OFFCURVE",
"487 854 OFFCURVE",
"498 860 CURVE SMOOTH",
"520 872 OFFCURVE",
"529 889 OFFCURVE",
"533 904 CURVE",
"534 911 OFFCURVE",
"535 916 OFFCURVE",
"535 918 CURVE",
"515 918 LINE",
"515 917 OFFCURVE",
"515 914 OFFCURVE",
"514 909 CURVE SMOOTH",
"513 904 OFFCURVE",
"510 898 OFFCURVE",
"506 893 CURVE",
"498 881 OFFCURVE",
"484 870 OFFCURVE",
"456 870 CURVE SMOOTH",
"431 870 OFFCURVE",
"413 880 OFFCURVE",
"394 889 CURVE SMOOTH",
"375 898 OFFCURVE",
"356 908 OFFCURVE",
"331 908 CURVE SMOOTH",
"314 908 OFFCURVE",
"301 905 OFFCURVE",
"292 899 CURVE SMOOTH",
"272 886 OFFCURVE",
"263 869 OFFCURVE",
"260 854 CURVE",
"259 847 OFFCURVE",
"258 842 OFFCURVE",
"258 841 CURVE",
"278 841 LINE",
"278 842 OFFCURVE",
"279 846 OFFCURVE",
"280 851 CURVE SMOOTH",
"281 856 OFFCURVE",
"284 862 OFFCURVE",
"288 868 CURVE SMOOTH",
"295 879 OFFCURVE",
"308 889 OFFCURVE",
"329 889 CURVE SMOOTH",
"349 889 OFFCURVE",
"366 879 OFFCURVE",
"385 870 CURVE SMOOTH",
"404 861 OFFCURVE",
"425 851 OFFCURVE",
"454 851 CURVE SMOOTH"
);
}
);
width = 776;
}
);
leftKerningGroup = B;
note = Ntilde;
rightKerningGroup = H;
unicode = 00D1;
},
{
glyphname = Ograve;
lastChange = "2017-05-18 07:11:10 +0000";
layers = (
{
layerId = "2CA66E5A-B467-404E-84AC-20A403DD408D";
paths = (
{
closed = 1;
nodes = (
"472 -5 OFFCURVE",
"554 38 OFFCURVE",
"614 104 CURVE SMOOTH",
"673 170 OFFCURVE",
"709 259 OFFCURVE",
"709 355 CURVE SMOOTH",
"709 443 OFFCURVE",
"676 533 OFFCURVE",
"618 601 CURVE SMOOTH",
"560 669 OFFCURVE",
"476 715 OFFCURVE",
"379 715 CURVE SMOOTH",
"286 715 OFFCURVE",
"203 673 OFFCURVE",
"144 606 CURVE SMOOTH",
"84 539 OFFCURVE",
"48 450 OFFCURVE",
"48 355 CURVE SMOOTH",
"48 264 OFFCURVE",
"81 174 OFFCURVE",
"140 107 CURVE SMOOTH",
"199 40 OFFCURVE",
"280 -5 OFFCURVE",
"379 -5 CURVE SMOOTH"
);
},
{
closed = 1;
nodes = (
"68 439 OFFCURVE",
"99 524 OFFCURVE",
"154 588 CURVE SMOOTH",
"209 652 OFFCURVE",
"287 695 OFFCURVE",
"379 695 CURVE SMOOTH",
"467 695 OFFCURVE",
"544 655 OFFCURVE",
"600 592 CURVE SMOOTH",
"656 528 OFFCURVE",
"689 443 OFFCURVE",
"689 355 CURVE SMOOTH",
"689 271 OFFCURVE",
"658 186 OFFCURVE",
"604 122 CURVE SMOOTH",
"550 58 OFFCURVE",
"471 15 OFFCURVE",
"379 15 CURVE SMOOTH",
"288 15 OFFCURVE",
"211 55 OFFCURVE",
"156 119 CURVE SMOOTH",
"101 182 OFFCURVE",
"68 267 OFFCURVE",
"68 355 CURVE SMOOTH"
);
},
{
closed = 1;
nodes = (
"409 845 LINE",
"344 918 LINE",
"311 918 LINE",
"393 833 LINE"
);
}
);
width = 757;
}
);
leftKerningGroup = C;
note = Ograve;
rightKerningGroup = O;
unicode = 00D2;
},
{
glyphname = Oacute;
lastChange = "2017-05-18 07:11:10 +0000";
layers = (
{
layerId = "2CA66E5A-B467-404E-84AC-20A403DD408D";
paths = (
{
closed = 1;
nodes = (
"472 -5 OFFCURVE",
"554 38 OFFCURVE",
"614 104 CURVE SMOOTH",
"673 170 OFFCURVE",
"709 259 OFFCURVE",
"709 355 CURVE SMOOTH",
"709 443 OFFCURVE",
"676 533 OFFCURVE",
"618 601 CURVE SMOOTH",
"560 669 OFFCURVE",
"476 715 OFFCURVE",
"379 715 CURVE SMOOTH",
"286 715 OFFCURVE",
"203 673 OFFCURVE",
"144 606 CURVE SMOOTH",
"84 539 OFFCURVE",
"48 450 OFFCURVE",
"48 355 CURVE SMOOTH",
"48 264 OFFCURVE",
"81 174 OFFCURVE",
"140 107 CURVE SMOOTH",
"199 40 OFFCURVE",
"280 -5 OFFCURVE",
"379 -5 CURVE SMOOTH"
);
},
{
closed = 1;
nodes = (
"68 439 OFFCURVE",
"99 524 OFFCURVE",
"154 588 CURVE SMOOTH",
"209 652 OFFCURVE",
"287 695 OFFCURVE",
"379 695 CURVE SMOOTH",
"467 695 OFFCURVE",
"544 655 OFFCURVE",
"600 592 CURVE SMOOTH",
"656 528 OFFCURVE",
"689 443 OFFCURVE",
"689 355 CURVE SMOOTH",
"689 271 OFFCURVE",
"658 186 OFFCURVE",
"604 122 CURVE SMOOTH",
"550 58 OFFCURVE",
"471 15 OFFCURVE",
"379 15 CURVE SMOOTH",
"288 15 OFFCURVE",
"211 55 OFFCURVE",
"156 119 CURVE SMOOTH",
"101 182 OFFCURVE",
"68 267 OFFCURVE",
"68 355 CURVE SMOOTH"
);
},
{
closed = 1;
nodes = (
"413 918 LINE",
"349 845 LINE",
"365 833 LINE",
"447 918 LINE"
);
}
);
width = 757;
}
);
leftKerningGroup = C;
note = Oacute;
rightKerningGroup = O;
unicode = 00D3;
},
{
glyphname = Ocircumflex;
lastChange = "2017-05-18 07:11:10 +0000";
layers = (
{
layerId = "2CA66E5A-B467-404E-84AC-20A403DD408D";
paths = (
{
closed = 1;
nodes = (
"472 -5 OFFCURVE",
"554 38 OFFCURVE",
"614 104 CURVE SMOOTH",
"673 170 OFFCURVE",
"709 259 OFFCURVE",
"709 355 CURVE SMOOTH",
"709 443 OFFCURVE",
"676 533 OFFCURVE",
"618 601 CURVE SMOOTH",
"560 669 OFFCURVE",
"476 715 OFFCURVE",
"379 715 CURVE SMOOTH",
"286 715 OFFCURVE",
"203 673 OFFCURVE",
"144 606 CURVE SMOOTH",
"84 539 OFFCURVE",
"48 450 OFFCURVE",
"48 355 CURVE SMOOTH",
"48 264 OFFCURVE",
"81 174 OFFCURVE",
"140 107 CURVE SMOOTH",
"199 40 OFFCURVE",
"280 -5 OFFCURVE",
"379 -5 CURVE SMOOTH"
);
},
{
closed = 1;
nodes = (
"68 439 OFFCURVE",
"99 524 OFFCURVE",
"154 588 CURVE SMOOTH",
"209 652 OFFCURVE",
"287 695 OFFCURVE",
"379 695 CURVE SMOOTH",
"467 695 OFFCURVE",
"544 655 OFFCURVE",
"600 592 CURVE SMOOTH",
"656 528 OFFCURVE",
"689 443 OFFCURVE",
"689 355 CURVE SMOOTH",
"689 271 OFFCURVE",
"658 186 OFFCURVE",
"604 122 CURVE SMOOTH",
"550 58 OFFCURVE",
"471 15 OFFCURVE",
"379 15 CURVE SMOOTH",
"288 15 OFFCURVE",
"211 55 OFFCURVE",
"156 119 CURVE SMOOTH",
"101 182 OFFCURVE",
"68 267 OFFCURVE",
"68 355 CURVE SMOOTH"
);
},
{
closed = 1;
nodes = (
"379 895 LINE",
"464 832 LINE",
"480 844 LINE",
"387 918 LINE",
"371 918 LINE",
"278 844 LINE",
"294 832 LINE"
);
}
);
width = 757;
}
);
leftKerningGroup = C;
note = Ocircumflex;
rightKerningGroup = O;
unicode = 00D4;
},
{
glyphname = Otilde;
lastChange = "2017-05-18 07:11:10 +0000";
layers = (
{
layerId = "2CA66E5A-B467-404E-84AC-20A403DD408D";
paths = (
{
closed = 1;
nodes = (
"472 -5 OFFCURVE",
"554 38 OFFCURVE",
"614 104 CURVE SMOOTH",
"673 170 OFFCURVE",
"709 259 OFFCURVE",
"709 355 CURVE SMOOTH",
"709 443 OFFCURVE",
"676 533 OFFCURVE",
"618 601 CURVE SMOOTH",
"560 669 OFFCURVE",
"476 715 OFFCURVE",
"379 715 CURVE SMOOTH",
"286 715 OFFCURVE",
"203 673 OFFCURVE",
"144 606 CURVE SMOOTH",
"84 539 OFFCURVE",
"48 450 OFFCURVE",
"48 355 CURVE SMOOTH",
"48 264 OFFCURVE",
"81 174 OFFCURVE",
"140 107 CURVE SMOOTH",
"199 40 OFFCURVE",
"280 -5 OFFCURVE",
"379 -5 CURVE SMOOTH"
);
},
{
closed = 1;
nodes = (
"68 439 OFFCURVE",
"99 524 OFFCURVE",
"154 588 CURVE SMOOTH",
"209 652 OFFCURVE",
"287 695 OFFCURVE",
"379 695 CURVE SMOOTH",
"467 695 OFFCURVE",
"544 655 OFFCURVE",
"600 592 CURVE SMOOTH",
"656 528 OFFCURVE",
"689 443 OFFCURVE",
"689 355 CURVE SMOOTH",
"689 271 OFFCURVE",
"658 186 OFFCURVE",
"604 122 CURVE SMOOTH",
"550 58 OFFCURVE",
"471 15 OFFCURVE",
"379 15 CURVE SMOOTH",
"288 15 OFFCURVE",
"211 55 OFFCURVE",
"156 119 CURVE SMOOTH",
"101 182 OFFCURVE",
"68 267 OFFCURVE",
"68 355 CURVE SMOOTH"
);
},
{
closed = 1;
nodes = (
"458 851 OFFCURVE",
"473 854 OFFCURVE",
"484 860 CURVE SMOOTH",
"506 872 OFFCURVE",
"515 889 OFFCURVE",
"519 904 CURVE",
"520 911 OFFCURVE",
"521 916 OFFCURVE",
"521 918 CURVE",
"501 918 LINE",
"501 917 OFFCURVE",
"501 914 OFFCURVE",
"500 909 CURVE SMOOTH",
"499 904 OFFCURVE",
"496 898 OFFCURVE",
"492 893 CURVE",
"484 881 OFFCURVE",
"470 870 OFFCURVE",
"442 870 CURVE SMOOTH",
"417 870 OFFCURVE",
"399 880 OFFCURVE",
"380 889 CURVE SMOOTH",
"361 898 OFFCURVE",
"342 908 OFFCURVE",
"317 908 CURVE SMOOTH",
"300 908 OFFCURVE",
"287 905 OFFCURVE",
"278 899 CURVE SMOOTH",
"258 886 OFFCURVE",
"249 869 OFFCURVE",
"246 854 CURVE",
"245 847 OFFCURVE",
"244 842 OFFCURVE",
"244 841 CURVE",
"264 841 LINE",
"264 842 OFFCURVE",
"265 846 OFFCURVE",
"266 851 CURVE SMOOTH",
"267 856 OFFCURVE",
"270 862 OFFCURVE",
"274 868 CURVE SMOOTH",
"281 879 OFFCURVE",
"294 889 OFFCURVE",
"315 889 CURVE SMOOTH",
"335 889 OFFCURVE",
"352 879 OFFCURVE",
"371 870 CURVE SMOOTH",
"390 861 OFFCURVE",
"411 851 OFFCURVE",
"440 851 CURVE SMOOTH"
);
}
);
width = 757;
}
);
leftKerningGroup = C;
note = Otilde;
rightKerningGroup = O;
unicode = 00D5;
},
{
glyphname = Odieresis;
lastChange = "2017-05-18 07:11:10 +0000";
layers = (
{
layerId = "2CA66E5A-B467-404E-84AC-20A403DD408D";
paths = (
{
closed = 1;
nodes = (
"472 -5 OFFCURVE",
"554 38 OFFCURVE",
"614 104 CURVE SMOOTH",
"673 170 OFFCURVE",
"709 259 OFFCURVE",
"709 355 CURVE SMOOTH",
"709 443 OFFCURVE",
"676 533 OFFCURVE",
"618 601 CURVE SMOOTH",
"560 669 OFFCURVE",
"476 715 OFFCURVE",
"379 715 CURVE SMOOTH",
"286 715 OFFCURVE",
"203 673 OFFCURVE",
"144 606 CURVE SMOOTH",
"84 539 OFFCURVE",
"48 450 OFFCURVE",
"48 355 CURVE SMOOTH",
"48 264 OFFCURVE",
"81 174 OFFCURVE",
"140 107 CURVE SMOOTH",
"199 40 OFFCURVE",
"280 -5 OFFCURVE",
"379 -5 CURVE SMOOTH"
);
},
{
closed = 1;
nodes = (
"68 439 OFFCURVE",
"99 524 OFFCURVE",
"154 588 CURVE SMOOTH",
"209 652 OFFCURVE",
"287 695 OFFCURVE",
"379 695 CURVE SMOOTH",
"467 695 OFFCURVE",
"544 655 OFFCURVE",
"600 592 CURVE SMOOTH",
"656 528 OFFCURVE",
"689 443 OFFCURVE",
"689 355 CURVE SMOOTH",
"689 271 OFFCURVE",
"658 186 OFFCURVE",
"604 122 CURVE SMOOTH",
"550 58 OFFCURVE",
"471 15 OFFCURVE",
"379 15 CURVE SMOOTH",
"288 15 OFFCURVE",
"211 55 OFFCURVE",
"156 119 CURVE SMOOTH",
"101 182 OFFCURVE",
"68 267 OFFCURVE",
"68 355 CURVE SMOOTH"
);
},
{
closed = 1;
nodes = (
"331 918 LINE",
"311 918 LINE",
"311 841 LINE",
"331 841 LINE"
);
},
{
closed = 1;
nodes = (
"447 918 LINE",
"427 918 LINE",
"427 841 LINE",
"447 841 LINE"
);
}
);
width = 757;
}
);
leftKerningGroup = C;
note = Odieresis;
rightKerningGroup = O;
unicode = 00D6;
},
{
glyphname = multiply;
lastChange = "2017-05-18 07:11:10 +0000";
layers = (
{
layerId = "2CA66E5A-B467-404E-84AC-20A403DD408D";
paths = (
{
closed = 1;
nodes = (
"370 406 LINE",
"356 421 LINE",
"220 285 LINE",
"85 420 LINE",
"70 406 LINE",
"205 270 LINE",
"71 136 LINE",
"85 121 LINE",
"220 256 LINE",
"355 121 LINE",
"370 135 LINE",
"234 270 LINE"
);
}
);
width = 440;
}
);
note = multiply;
unicode = 00D7;
},
{
glyphname = Oslash;
lastChange = "2017-05-18 07:11:10 +0000";
layers = (
{
layerId = "2CA66E5A-B467-404E-84AC-20A403DD408D";
paths = (
{
closed = 1;
nodes = (
"558 656 LINE",
"507 693 OFFCURVE",
"447 715 OFFCURVE",
"379 715 CURVE SMOOTH",
"286 715 OFFCURVE",
"203 673 OFFCURVE",
"144 606 CURVE SMOOTH",
"84 539 OFFCURVE",
"48 450 OFFCURVE",
"48 355 CURVE SMOOTH",
"48 243 OFFCURVE",
"97 135 OFFCURVE",
"181 67 CURVE",
"138 0 LINE",
"163 0 LINE",
"198 54 LINE",
"249 18 OFFCURVE",
"310 -4 OFFCURVE",
"379 -5 CURVE SMOOTH",
"472 -5 OFFCURVE",
"554 38 OFFCURVE",
"614 104 CURVE SMOOTH",
"673 170 OFFCURVE",
"709 259 OFFCURVE",
"709 355 CURVE SMOOTH",
"709 408 OFFCURVE",
"697 464 OFFCURVE",
"674 513 CURVE SMOOTH",
"650 562 OFFCURVE",
"617 607 OFFCURVE",
"576 642 CURVE",
"619 710 LINE",
"593 710 LINE"
);
},
{
closed = 1;
nodes = (
"689 271 OFFCURVE",
"658 186 OFFCURVE",
"604 122 CURVE SMOOTH",
"550 58 OFFCURVE",
"471 15 OFFCURVE",
"379 15 CURVE SMOOTH",
"314 15 OFFCURVE",
"256 36 OFFCURVE",
"208 71 CURVE",
"565 625 LINE",
"641 561 OFFCURVE",
"689 460 OFFCURVE",
"689 355 CURVE SMOOTH"
);
},
{
closed = 1;
nodes = (
"68 439 OFFCURVE",
"99 524 OFFCURVE",
"154 588 CURVE SMOOTH",
"209 652 OFFCURVE",
"287 695 OFFCURVE",
"379 695 CURVE SMOOTH",
"443 695 OFFCURVE",
"499 674 OFFCURVE",
"547 639 CURVE",
"191 84 LINE",
"115 148 OFFCURVE",
"68 248 OFFCURVE",
"68 355 CURVE SMOOTH"
);
}
);
width = 757;
}
);
leftKerningGroup = C;
note = Oslash;
rightKerningGroup = O;
unicode = 00D8;
},
{
glyphname = Ugrave;
lastChange = "2017-05-18 07:11:10 +0000";
layers = (
{
layerId = "2CA66E5A-B467-404E-84AC-20A403DD408D";
paths = (
{
closed = 1;
nodes = (
"273 15 OFFCURVE",
"205 57 OFFCURVE",
"164 121 CURVE SMOOTH",
"123 185 OFFCURVE",
"108 270 OFFCURVE",
"108 355 CURVE SMOOTH",
"108 710 LINE",
"88 710 LINE",
"88 355 LINE SMOOTH",
"88 266 OFFCURVE",
"105 176 OFFCURVE",
"150 108 CURVE SMOOTH",
"194 40 OFFCURVE",
"267 -5 OFFCURVE",
"379 -5 CURVE SMOOTH",
"488 -5 OFFCURVE",
"561 39 OFFCURVE",
"606 105 CURVE SMOOTH",
"651 171 OFFCURVE",
"669 260 OFFCURVE",
"669 355 CURVE SMOOTH",
"669 710 LINE",
"649 710 LINE",
"649 355 LINE SMOOTH",
"649 272 OFFCURVE",
"634 187 OFFCURVE",
"594 123 CURVE SMOOTH",
"553 59 OFFCURVE",
"485 15 OFFCURVE",
"378 15 CURVE SMOOTH"
);
},
{
closed = 1;
nodes = (
"409 845 LINE",
"344 918 LINE",
"311 918 LINE",
"393 833 LINE"
);
}
);
width = 756;
}
);
leftKerningGroup = U;
note = Ugrave;
rightKerningGroup = U;
unicode = 00D9;
},
{
glyphname = Uacute;
lastChange = "2017-05-18 07:11:10 +0000";
layers = (
{
layerId = "2CA66E5A-B467-404E-84AC-20A403DD408D";
paths = (
{
closed = 1;
nodes = (
"273 15 OFFCURVE",
"205 57 OFFCURVE",
"164 121 CURVE SMOOTH",
"123 185 OFFCURVE",
"108 270 OFFCURVE",
"108 355 CURVE SMOOTH",
"108 710 LINE",
"88 710 LINE",
"88 355 LINE SMOOTH",
"88 266 OFFCURVE",
"105 176 OFFCURVE",
"150 108 CURVE SMOOTH",
"194 40 OFFCURVE",
"267 -5 OFFCURVE",
"379 -5 CURVE SMOOTH",
"488 -5 OFFCURVE",
"561 39 OFFCURVE",
"606 105 CURVE SMOOTH",
"651 171 OFFCURVE",
"669 260 OFFCURVE",
"669 355 CURVE SMOOTH",
"669 710 LINE",
"649 710 LINE",
"649 355 LINE SMOOTH",
"649 272 OFFCURVE",
"634 187 OFFCURVE",
"594 123 CURVE SMOOTH",
"553 59 OFFCURVE",
"485 15 OFFCURVE",
"378 15 CURVE SMOOTH"
);
},
{
closed = 1;
nodes = (
"413 918 LINE",
"349 845 LINE",
"365 833 LINE",
"447 918 LINE"
);
}
);
width = 756;
}
);
leftKerningGroup = U;
note = Uacute;
rightKerningGroup = U;
unicode = 00DA;
},
{
glyphname = Ucircumflex;
lastChange = "2017-05-18 07:11:10 +0000";
layers = (
{
layerId = "2CA66E5A-B467-404E-84AC-20A403DD408D";
paths = (
{
closed = 1;
nodes = (
"273 15 OFFCURVE",
"205 57 OFFCURVE",
"164 121 CURVE SMOOTH",
"123 185 OFFCURVE",
"108 270 OFFCURVE",
"108 355 CURVE SMOOTH",
"108 710 LINE",
"88 710 LINE",
"88 355 LINE SMOOTH",
"88 266 OFFCURVE",
"105 176 OFFCURVE",
"150 108 CURVE SMOOTH",
"194 40 OFFCURVE",
"267 -5 OFFCURVE",
"379 -5 CURVE SMOOTH",
"488 -5 OFFCURVE",
"561 39 OFFCURVE",
"606 105 CURVE SMOOTH",
"651 171 OFFCURVE",
"669 260 OFFCURVE",
"669 355 CURVE SMOOTH",
"669 710 LINE",
"649 710 LINE",
"649 355 LINE SMOOTH",
"649 272 OFFCURVE",
"634 187 OFFCURVE",
"594 123 CURVE SMOOTH",
"553 59 OFFCURVE",
"485 15 OFFCURVE",
"378 15 CURVE SMOOTH"
);
},
{
closed = 1;
nodes = (
"379 895 LINE",
"464 832 LINE",
"480 844 LINE",
"387 918 LINE",
"371 918 LINE",
"278 844 LINE",
"294 832 LINE"
);
}
);
width = 756;
}
);
leftKerningGroup = U;
note = Ucircumflex;
rightKerningGroup = U;
unicode = 00DB;
},
{
glyphname = Udieresis;
lastChange = "2017-05-18 07:11:10 +0000";
layers = (
{
layerId = "2CA66E5A-B467-404E-84AC-20A403DD408D";
paths = (
{
closed = 1;
nodes = (
"273 15 OFFCURVE",
"205 57 OFFCURVE",
"164 121 CURVE SMOOTH",
"123 185 OFFCURVE",
"108 270 OFFCURVE",
"108 355 CURVE SMOOTH",
"108 710 LINE",
"88 710 LINE",
"88 355 LINE SMOOTH",
"88 266 OFFCURVE",
"105 176 OFFCURVE",
"150 108 CURVE SMOOTH",
"194 40 OFFCURVE",
"267 -5 OFFCURVE",
"379 -5 CURVE SMOOTH",
"488 -5 OFFCURVE",
"561 39 OFFCURVE",
"606 105 CURVE SMOOTH",
"651 171 OFFCURVE",
"669 260 OFFCURVE",
"669 355 CURVE SMOOTH",
"669 710 LINE",
"649 710 LINE",
"649 355 LINE SMOOTH",
"649 272 OFFCURVE",
"634 187 OFFCURVE",
"594 123 CURVE SMOOTH",
"553 59 OFFCURVE",
"485 15 OFFCURVE",
"378 15 CURVE SMOOTH"
);
},
{
closed = 1;
nodes = (
"331 918 LINE",
"311 918 LINE",
"311 841 LINE",
"331 841 LINE"
);
},
{
closed = 1;
nodes = (
"447 918 LINE",
"427 918 LINE",
"427 841 LINE",
"447 841 LINE"
);
}
);
width = 756;
}
);
leftKerningGroup = U;
note = Udieresis;
rightKerningGroup = U;
unicode = 00DC;
},
{
glyphname = Yacute;
lastChange = "2017-05-18 07:11:10 +0000";
layers = (
{
layerId = "2CA66E5A-B467-404E-84AC-20A403DD408D";
paths = (
{
closed = 1;
nodes = (
"310 277 LINE",
"310 0 LINE",
"330 0 LINE",
"330 275 LINE",
"618 710 LINE",
"595 710 LINE",
"320 298 LINE",
"46 710 LINE",
"23 710 LINE"
);
},
{
closed = 1;
nodes = (
"354 918 LINE",
"290 845 LINE",
"306 833 LINE",
"388 918 LINE"
);
}
);
width = 641;
}
);
leftKerningGroup = Y;
note = Yacute;
rightKerningGroup = Y;
unicode = 00DD;
},
{
glyphname = Thorn;
lastChange = "2017-05-18 07:11:10 +0000";
layers = (
{
layerId = "2CA66E5A-B467-404E-84AC-20A403DD408D";
paths = (
{
closed = 1;
nodes = (
"119 710 LINE",
"99 710 LINE",
"99 0 LINE",
"119 0 LINE",
"119 129 LINE",
"375 129 LINE SMOOTH",
"432 129 OFFCURVE",
"481 155 OFFCURVE",
"515 195 CURVE SMOOTH",
"549 235 OFFCURVE",
"568 289 OFFCURVE",
"568 345 CURVE SMOOTH",
"568 398 OFFCURVE",
"547 452 OFFCURVE",
"512 493 CURVE SMOOTH",
"476 533 OFFCURVE",
"425 560 OFFCURVE",
"368 560 CURVE SMOOTH",
"119 560 LINE"
);
},
{
closed = 1;
nodes = (
"119 540 LINE",
"368 540 LINE SMOOTH",
"417 540 OFFCURVE",
"463 516 OFFCURVE",
"496 480 CURVE SMOOTH",
"528 444 OFFCURVE",
"548 396 OFFCURVE",
"548 345 CURVE SMOOTH",
"548 297 OFFCURVE",
"531 248 OFFCURVE",
"502 211 CURVE SMOOTH",
"473 174 OFFCURVE",
"428 149 OFFCURVE",
"375 149 CURVE SMOOTH",
"119 149 LINE"
);
}
);
width = 599;
}
);
leftKerningGroup = B;
note = Thorn;
rightKerningGroup = Thorn;
unicode = 00DE;
},
{
glyphname = germandbls;
lastChange = "2017-05-18 07:11:10 +0000";
layers = (
{
layerId = "2CA66E5A-B467-404E-84AC-20A403DD408D";
paths = (
{
closed = 1;
nodes = (
"406 1 OFFCURVE",
"500 74 OFFCURVE",
"500 203 CURVE SMOOTH",
"500 308 OFFCURVE",
"439 381 OFFCURVE",
"328 404 CURVE",
"361 411 OFFCURVE",
"392 430 OFFCURVE",
"413 458 CURVE SMOOTH",
"434 486 OFFCURVE",
"448 521 OFFCURVE",
"448 557 CURVE SMOOTH",
"448 601 OFFCURVE",
"428 641 OFFCURVE",
"396 669 CURVE SMOOTH",
"364 697 OFFCURVE",
"319 714 OFFCURVE",
"268 714 CURVE SMOOTH",
"213 714 OFFCURVE",
"167 694 OFFCURVE",
"135 658 CURVE SMOOTH",
"103 622 OFFCURVE",
"84 570 OFFCURVE",
"84 509 CURVE SMOOTH",
"84 0 LINE",
"104 0 LINE",
"104 509 LINE SMOOTH",
"104 622 OFFCURVE",
"167 694 OFFCURVE",
"267 694 CURVE SMOOTH",
"312 694 OFFCURVE",
"353 678 OFFCURVE",
"382 653 CURVE SMOOTH",
"410 628 OFFCURVE",
"428 592 OFFCURVE",
"428 552 CURVE SMOOTH",
"428 512 OFFCURVE",
"412 478 OFFCURVE",
"384 453 CURVE SMOOTH",
"356 428 OFFCURVE",
"318 413 OFFCURVE",
"274 413 CURVE SMOOTH",
"258 413 LINE",
"258 393 LINE",
"275 393 LINE SMOOTH",
"336 393 OFFCURVE",
"387 373 OFFCURVE",
"423 340 CURVE SMOOTH",
"459 307 OFFCURVE",
"480 259 OFFCURVE",
"480 202 CURVE SMOOTH",
"480 83 OFFCURVE",
"391 16 OFFCURVE",
"230 13 CURVE",
"230 -6 LINE"
);
}
);
width = 546;
}
);
leftKerningGroup = b;
note = germandbls;
rightKerningGroup = germandbls;
unicode = 00DF;
},
{
glyphname = agrave;
lastChange = "2017-05-18 07:11:10 +0000";
layers = (
{
layerId = "2CA66E5A-B467-404E-84AC-20A403DD408D";
paths = (
{
closed = 1;
nodes = (
"298 -10 OFFCURVE",
"379 25 OFFCURVE",
"427 88 CURVE",
"427 40 LINE SMOOTH",
"427 31 OFFCURVE",
"429 24 OFFCURVE",
"433 17 CURVE SMOOTH",
"441 3 OFFCURVE",
"448 0 OFFCURVE",
"463 0 CURVE",
"463 20 LINE",
"452 20 OFFCURVE",
"447 27 OFFCURVE",
"447 40 CURVE SMOOTH",
"447 327 LINE SMOOTH",
"447 388 OFFCURVE",
"428 438 OFFCURVE",
"396 473 CURVE SMOOTH",
"363 508 OFFCURVE",
"314 527 OFFCURVE",
"257 527 CURVE SMOOTH",
"204 527 OFFCURVE",
"144 504 OFFCURVE",
"77 459 CURVE",
"89 443 LINE",
"148 484 OFFCURVE",
"206 507 OFFCURVE",
"257 507 CURVE SMOOTH",
"308 507 OFFCURVE",
"351 489 OFFCURVE",
"381 458 CURVE SMOOTH",
"411 426 OFFCURVE",
"427 380 OFFCURVE",
"427 327 CURVE SMOOTH",
"427 268 LINE",
"378 287 OFFCURVE",
"313 297 OFFCURVE",
"253 297 CURVE SMOOTH",
"190 297 OFFCURVE",
"137 282 OFFCURVE",
"99 256 CURVE SMOOTH",
"61 230 OFFCURVE",
"39 193 OFFCURVE",
"39 149 CURVE SMOOTH",
"39 105 OFFCURVE",
"58 65 OFFCURVE",
"88 37 CURVE SMOOTH",
"118 8 OFFCURVE",
"160 -10 OFFCURVE",
"207 -10 CURVE SMOOTH"
);
},
{
closed = 1;
nodes = (
"166 10 OFFCURVE",
"129 25 OFFCURVE",
"102 50 CURVE SMOOTH",
"75 75 OFFCURVE",
"59 110 OFFCURVE",
"59 149 CURVE SMOOTH",
"59 188 OFFCURVE",
"79 219 OFFCURVE",
"113 242 CURVE SMOOTH",
"147 265 OFFCURVE",
"194 277 OFFCURVE",
"253 277 CURVE SMOOTH",
"316 277 OFFCURVE",
"374 267 OFFCURVE",
"427 246 CURVE",
"427 143 LINE SMOOTH",
"427 130 OFFCURVE",
"422 116 OFFCURVE",
"412 102 CURVE",
"376 46 OFFCURVE",
"296 10 OFFCURVE",
"207 10 CURVE SMOOTH"
);
},
{
closed = 1;
nodes = (
"287 657 LINE",
"222 730 LINE",
"189 730 LINE",
"271 645 LINE"
);
}
);
width = 524;
}
);
leftKerningGroup = a;
note = agrave;
rightKerningGroup = a;
unicode = 00E0;
},
{
glyphname = aacute;
lastChange = "2017-05-18 07:11:10 +0000";
layers = (
{
layerId = "2CA66E5A-B467-404E-84AC-20A403DD408D";
paths = (
{
closed = 1;
nodes = (
"298 -10 OFFCURVE",
"379 25 OFFCURVE",
"427 88 CURVE",
"427 40 LINE SMOOTH",
"427 31 OFFCURVE",
"429 24 OFFCURVE",
"433 17 CURVE SMOOTH",
"441 3 OFFCURVE",
"448 0 OFFCURVE",
"463 0 CURVE",
"463 20 LINE",
"452 20 OFFCURVE",
"447 27 OFFCURVE",
"447 40 CURVE SMOOTH",
"447 327 LINE SMOOTH",
"447 388 OFFCURVE",
"428 438 OFFCURVE",
"396 473 CURVE SMOOTH",
"363 508 OFFCURVE",
"314 527 OFFCURVE",
"257 527 CURVE SMOOTH",
"204 527 OFFCURVE",
"144 504 OFFCURVE",
"77 459 CURVE",
"89 443 LINE",
"148 484 OFFCURVE",
"206 507 OFFCURVE",
"257 507 CURVE SMOOTH",
"308 507 OFFCURVE",
"351 489 OFFCURVE",
"381 458 CURVE SMOOTH",
"411 426 OFFCURVE",
"427 380 OFFCURVE",
"427 327 CURVE SMOOTH",
"427 268 LINE",
"378 287 OFFCURVE",
"313 297 OFFCURVE",
"253 297 CURVE SMOOTH",
"190 297 OFFCURVE",
"137 282 OFFCURVE",
"99 256 CURVE SMOOTH",
"61 230 OFFCURVE",
"39 193 OFFCURVE",
"39 149 CURVE SMOOTH",
"39 105 OFFCURVE",
"58 65 OFFCURVE",
"88 37 CURVE SMOOTH",
"118 8 OFFCURVE",
"160 -10 OFFCURVE",
"207 -10 CURVE SMOOTH"
);
},
{
closed = 1;
nodes = (
"166 10 OFFCURVE",
"129 25 OFFCURVE",
"102 50 CURVE SMOOTH",
"75 75 OFFCURVE",
"59 110 OFFCURVE",
"59 149 CURVE SMOOTH",
"59 188 OFFCURVE",
"79 219 OFFCURVE",
"113 242 CURVE SMOOTH",
"147 265 OFFCURVE",
"194 277 OFFCURVE",
"253 277 CURVE SMOOTH",
"316 277 OFFCURVE",
"374 267 OFFCURVE",
"427 246 CURVE",
"427 143 LINE SMOOTH",
"427 130 OFFCURVE",
"422 116 OFFCURVE",
"412 102 CURVE",
"376 46 OFFCURVE",
"296 10 OFFCURVE",
"207 10 CURVE SMOOTH"
);
},
{
closed = 1;
nodes = (
"291 730 LINE",
"227 657 LINE",
"243 645 LINE",
"325 730 LINE"
);
}
);
width = 524;
}
);
leftKerningGroup = a;
note = aacute;
rightKerningGroup = a;
unicode = 00E1;
},
{
glyphname = acircumflex;
lastChange = "2017-05-18 07:11:10 +0000";
layers = (
{
layerId = "2CA66E5A-B467-404E-84AC-20A403DD408D";
paths = (
{
closed = 1;
nodes = (
"298 -10 OFFCURVE",
"379 25 OFFCURVE",
"427 88 CURVE",
"427 40 LINE SMOOTH",
"427 31 OFFCURVE",
"429 24 OFFCURVE",
"433 17 CURVE SMOOTH",
"441 3 OFFCURVE",
"448 0 OFFCURVE",
"463 0 CURVE",
"463 20 LINE",
"452 20 OFFCURVE",
"447 27 OFFCURVE",
"447 40 CURVE SMOOTH",
"447 327 LINE SMOOTH",
"447 388 OFFCURVE",
"428 438 OFFCURVE",
"396 473 CURVE SMOOTH",
"363 508 OFFCURVE",
"314 527 OFFCURVE",
"257 527 CURVE SMOOTH",
"204 527 OFFCURVE",
"144 504 OFFCURVE",
"77 459 CURVE",
"89 443 LINE",
"148 484 OFFCURVE",
"206 507 OFFCURVE",
"257 507 CURVE SMOOTH",
"308 507 OFFCURVE",
"351 489 OFFCURVE",
"381 458 CURVE SMOOTH",
"411 426 OFFCURVE",
"427 380 OFFCURVE",
"427 327 CURVE SMOOTH",
"427 268 LINE",
"378 287 OFFCURVE",
"313 297 OFFCURVE",
"253 297 CURVE SMOOTH",
"190 297 OFFCURVE",
"137 282 OFFCURVE",
"99 256 CURVE SMOOTH",
"61 230 OFFCURVE",
"39 193 OFFCURVE",
"39 149 CURVE SMOOTH",
"39 105 OFFCURVE",
"58 65 OFFCURVE",
"88 37 CURVE SMOOTH",
"118 8 OFFCURVE",
"160 -10 OFFCURVE",
"207 -10 CURVE SMOOTH"
);
},
{
closed = 1;
nodes = (
"166 10 OFFCURVE",
"129 25 OFFCURVE",
"102 50 CURVE SMOOTH",
"75 75 OFFCURVE",
"59 110 OFFCURVE",
"59 149 CURVE SMOOTH",
"59 188 OFFCURVE",
"79 219 OFFCURVE",
"113 242 CURVE SMOOTH",
"147 265 OFFCURVE",
"194 277 OFFCURVE",
"253 277 CURVE SMOOTH",
"316 277 OFFCURVE",
"374 267 OFFCURVE",
"427 246 CURVE",
"427 143 LINE SMOOTH",
"427 130 OFFCURVE",
"422 116 OFFCURVE",
"412 102 CURVE",
"376 46 OFFCURVE",
"296 10 OFFCURVE",
"207 10 CURVE SMOOTH"
);
},
{
closed = 1;
nodes = (
"257 707 LINE",
"342 644 LINE",
"358 656 LINE",
"265 730 LINE",
"249 730 LINE",
"156 656 LINE",
"172 644 LINE"
);
}
);
width = 524;
}
);
leftKerningGroup = a;
note = acircumflex;
rightKerningGroup = a;
unicode = 00E2;
},
{
glyphname = atilde;
lastChange = "2017-05-18 07:11:10 +0000";
layers = (
{
layerId = "2CA66E5A-B467-404E-84AC-20A403DD408D";
paths = (
{
closed = 1;
nodes = (
"298 -10 OFFCURVE",
"379 25 OFFCURVE",
"427 88 CURVE",
"427 40 LINE SMOOTH",
"427 31 OFFCURVE",
"429 24 OFFCURVE",
"433 17 CURVE SMOOTH",
"441 3 OFFCURVE",
"448 0 OFFCURVE",
"463 0 CURVE",
"463 20 LINE",
"452 20 OFFCURVE",
"447 27 OFFCURVE",
"447 40 CURVE SMOOTH",
"447 327 LINE SMOOTH",
"447 388 OFFCURVE",
"428 438 OFFCURVE",
"396 473 CURVE SMOOTH",
"363 508 OFFCURVE",
"314 527 OFFCURVE",
"257 527 CURVE SMOOTH",
"204 527 OFFCURVE",
"144 504 OFFCURVE",
"77 459 CURVE",
"89 443 LINE",
"148 484 OFFCURVE",
"206 507 OFFCURVE",
"257 507 CURVE SMOOTH",
"308 507 OFFCURVE",
"351 489 OFFCURVE",
"381 458 CURVE SMOOTH",
"411 426 OFFCURVE",
"427 380 OFFCURVE",
"427 327 CURVE SMOOTH",
"427 268 LINE",
"378 287 OFFCURVE",
"313 297 OFFCURVE",
"253 297 CURVE SMOOTH",
"190 297 OFFCURVE",
"137 282 OFFCURVE",
"99 256 CURVE SMOOTH",
"61 230 OFFCURVE",
"39 193 OFFCURVE",
"39 149 CURVE SMOOTH",
"39 105 OFFCURVE",
"58 65 OFFCURVE",
"88 37 CURVE SMOOTH",
"118 8 OFFCURVE",
"160 -10 OFFCURVE",
"207 -10 CURVE SMOOTH"
);
},
{
closed = 1;
nodes = (
"166 10 OFFCURVE",
"129 25 OFFCURVE",
"102 50 CURVE SMOOTH",
"75 75 OFFCURVE",
"59 110 OFFCURVE",
"59 149 CURVE SMOOTH",
"59 188 OFFCURVE",
"79 219 OFFCURVE",
"113 242 CURVE SMOOTH",
"147 265 OFFCURVE",
"194 277 OFFCURVE",
"253 277 CURVE SMOOTH",
"316 277 OFFCURVE",
"374 267 OFFCURVE",
"427 246 CURVE",
"427 143 LINE SMOOTH",
"427 130 OFFCURVE",
"422 116 OFFCURVE",
"412 102 CURVE",
"376 46 OFFCURVE",
"296 10 OFFCURVE",
"207 10 CURVE SMOOTH"
);
},
{
closed = 1;
nodes = (
"336 663 OFFCURVE",
"351 666 OFFCURVE",
"362 672 CURVE SMOOTH",
"384 684 OFFCURVE",
"393 701 OFFCURVE",
"397 716 CURVE",
"398 723 OFFCURVE",
"399 728 OFFCURVE",
"399 730 CURVE",
"379 730 LINE",
"379 729 OFFCURVE",
"379 726 OFFCURVE",
"378 721 CURVE SMOOTH",
"377 716 OFFCURVE",
"374 710 OFFCURVE",
"370 705 CURVE",
"362 693 OFFCURVE",
"348 682 OFFCURVE",
"320 682 CURVE SMOOTH",
"295 682 OFFCURVE",
"277 692 OFFCURVE",
"258 701 CURVE SMOOTH",
"239 710 OFFCURVE",
"220 720 OFFCURVE",
"195 720 CURVE SMOOTH",
"178 720 OFFCURVE",
"165 717 OFFCURVE",
"156 711 CURVE SMOOTH",
"136 698 OFFCURVE",
"127 681 OFFCURVE",
"124 666 CURVE",
"123 659 OFFCURVE",
"122 654 OFFCURVE",
"122 653 CURVE",
"142 653 LINE",
"142 654 OFFCURVE",
"143 658 OFFCURVE",
"144 663 CURVE SMOOTH",
"145 668 OFFCURVE",
"148 674 OFFCURVE",
"152 680 CURVE SMOOTH",
"159 691 OFFCURVE",
"172 701 OFFCURVE",
"193 701 CURVE SMOOTH",
"213 701 OFFCURVE",
"230 691 OFFCURVE",
"249 682 CURVE SMOOTH",
"268 673 OFFCURVE",
"289 663 OFFCURVE",
"318 663 CURVE SMOOTH"
);
}
);
width = 524;
}
);
leftKerningGroup = a;
note = atilde;
rightKerningGroup = a;
unicode = 00E3;
},
{
glyphname = adieresis;
lastChange = "2017-05-18 07:11:10 +0000";
layers = (
{
layerId = "2CA66E5A-B467-404E-84AC-20A403DD408D";
paths = (
{
closed = 1;
nodes = (
"298 -10 OFFCURVE",
"379 25 OFFCURVE",
"427 88 CURVE",
"427 40 LINE SMOOTH",
"427 31 OFFCURVE",
"429 24 OFFCURVE",
"433 17 CURVE SMOOTH",
"441 3 OFFCURVE",
"448 0 OFFCURVE",
"463 0 CURVE",
"463 20 LINE",
"452 20 OFFCURVE",
"447 27 OFFCURVE",
"447 40 CURVE SMOOTH",
"447 327 LINE SMOOTH",
"447 388 OFFCURVE",
"428 438 OFFCURVE",
"396 473 CURVE SMOOTH",
"363 508 OFFCURVE",
"314 527 OFFCURVE",
"257 527 CURVE SMOOTH",
"204 527 OFFCURVE",
"144 504 OFFCURVE",
"77 459 CURVE",
"89 443 LINE",
"148 484 OFFCURVE",
"206 507 OFFCURVE",
"257 507 CURVE SMOOTH",
"308 507 OFFCURVE",
"351 489 OFFCURVE",
"381 458 CURVE SMOOTH",
"411 426 OFFCURVE",
"427 380 OFFCURVE",
"427 327 CURVE SMOOTH",
"427 268 LINE",
"378 287 OFFCURVE",
"313 297 OFFCURVE",
"253 297 CURVE SMOOTH",
"190 297 OFFCURVE",
"137 282 OFFCURVE",
"99 256 CURVE SMOOTH",
"61 230 OFFCURVE",
"39 193 OFFCURVE",
"39 149 CURVE SMOOTH",
"39 105 OFFCURVE",
"58 65 OFFCURVE",
"88 37 CURVE SMOOTH",
"118 8 OFFCURVE",
"160 -10 OFFCURVE",
"207 -10 CURVE SMOOTH"
);
},
{
closed = 1;
nodes = (
"166 10 OFFCURVE",
"129 25 OFFCURVE",
"102 50 CURVE SMOOTH",
"75 75 OFFCURVE",
"59 110 OFFCURVE",
"59 149 CURVE SMOOTH",
"59 188 OFFCURVE",
"79 219 OFFCURVE",
"113 242 CURVE SMOOTH",
"147 265 OFFCURVE",
"194 277 OFFCURVE",
"253 277 CURVE SMOOTH",
"316 277 OFFCURVE",
"374 267 OFFCURVE",
"427 246 CURVE",
"427 143 LINE SMOOTH",
"427 130 OFFCURVE",
"422 116 OFFCURVE",
"412 102 CURVE",
"376 46 OFFCURVE",
"296 10 OFFCURVE",
"207 10 CURVE SMOOTH"
);
},
{
closed = 1;
nodes = (
"209 730 LINE",
"189 730 LINE",
"189 653 LINE",
"209 653 LINE"
);
},
{
closed = 1;
nodes = (
"325 730 LINE",
"305 730 LINE",
"305 653 LINE",
"325 653 LINE"
);
}
);
width = 524;
}
);
leftKerningGroup = a;
note = adieresis;
rightKerningGroup = a;
unicode = 00E4;
},
{
glyphname = aring;
lastChange = "2017-05-18 07:11:10 +0000";
layers = (
{
layerId = "2CA66E5A-B467-404E-84AC-20A403DD408D";
paths = (
{
closed = 1;
nodes = (
"298 -10 OFFCURVE",
"379 25 OFFCURVE",
"427 88 CURVE",
"427 40 LINE SMOOTH",
"427 31 OFFCURVE",
"429 24 OFFCURVE",
"433 17 CURVE SMOOTH",
"441 3 OFFCURVE",
"448 0 OFFCURVE",
"463 0 CURVE",
"463 20 LINE",
"452 20 OFFCURVE",
"447 27 OFFCURVE",
"447 40 CURVE SMOOTH",
"447 327 LINE SMOOTH",
"447 388 OFFCURVE",
"428 438 OFFCURVE",
"396 473 CURVE SMOOTH",
"363 508 OFFCURVE",
"314 527 OFFCURVE",
"257 527 CURVE SMOOTH",
"204 527 OFFCURVE",
"144 504 OFFCURVE",
"77 459 CURVE",
"89 443 LINE",
"148 484 OFFCURVE",
"206 507 OFFCURVE",
"257 507 CURVE SMOOTH",
"308 507 OFFCURVE",
"351 489 OFFCURVE",
"381 458 CURVE SMOOTH",
"411 426 OFFCURVE",
"427 380 OFFCURVE",
"427 327 CURVE SMOOTH",
"427 268 LINE",
"378 287 OFFCURVE",
"313 297 OFFCURVE",
"253 297 CURVE SMOOTH",
"190 297 OFFCURVE",
"137 282 OFFCURVE",
"99 256 CURVE SMOOTH",
"61 230 OFFCURVE",
"39 193 OFFCURVE",
"39 149 CURVE SMOOTH",
"39 105 OFFCURVE",
"58 65 OFFCURVE",
"88 37 CURVE SMOOTH",
"118 8 OFFCURVE",
"160 -10 OFFCURVE",
"207 -10 CURVE SMOOTH"
);
},
{
closed = 1;
nodes = (
"166 10 OFFCURVE",
"129 25 OFFCURVE",
"102 50 CURVE SMOOTH",
"75 75 OFFCURVE",
"59 110 OFFCURVE",
"59 149 CURVE SMOOTH",
"59 188 OFFCURVE",
"79 219 OFFCURVE",
"113 242 CURVE SMOOTH",
"147 265 OFFCURVE",
"194 277 OFFCURVE",
"253 277 CURVE SMOOTH",
"316 277 OFFCURVE",
"374 267 OFFCURVE",
"427 246 CURVE",
"427 143 LINE SMOOTH",
"427 130 OFFCURVE",
"422 116 OFFCURVE",
"412 102 CURVE",
"376 46 OFFCURVE",
"296 10 OFFCURVE",
"207 10 CURVE SMOOTH"
);
},
{
closed = 1;
nodes = (
"200 641 OFFCURVE",
"225 616 OFFCURVE",
"257 616 CURVE SMOOTH",
"289 616 OFFCURVE",
"314 641 OFFCURVE",
"314 673 CURVE SMOOTH",
"314 705 OFFCURVE",
"289 730 OFFCURVE",
"257 730 CURVE SMOOTH",
"225 730 OFFCURVE",
"200 705 OFFCURVE",
"200 673 CURVE SMOOTH"
);
},
{
closed = 1;
nodes = (
"280 714 OFFCURVE",
"298 698 OFFCURVE",
"298 673 CURVE SMOOTH",
"298 649 OFFCURVE",
"277 632 OFFCURVE",
"257 632 CURVE SMOOTH",
"234 632 OFFCURVE",
"216 650 OFFCURVE",
"216 673 CURVE SMOOTH",
"216 698 OFFCURVE",
"234 714 OFFCURVE",
"257 714 CURVE SMOOTH"
);
}
);
width = 524;
}
);
leftKerningGroup = a;
note = aring;
rightKerningGroup = a;
unicode = 00E5;
},
{
glyphname = ae;
lastChange = "2017-05-18 07:11:10 +0000";
layers = (
{
layerId = "2CA66E5A-B467-404E-84AC-20A403DD408D";
paths = (
{
closed = 1;
nodes = (
"250 -10 OFFCURVE",
"297 -1 OFFCURVE",
"340 19 CURVE SMOOTH",
"383 38 OFFCURVE",
"420 68 OFFCURVE",
"441 111 CURVE",
"486 38 OFFCURVE",
"561 -10 OFFCURVE",
"648 -10 CURVE SMOOTH",
"693 -10 OFFCURVE",
"738 4 OFFCURVE",
"775 26 CURVE SMOOTH",
"811 48 OFFCURVE",
"839 78 OFFCURVE",
"854 114 CURVE",
"835 119 LINE",
"820 87 OFFCURVE",
"794 60 OFFCURVE",
"761 41 CURVE SMOOTH",
"728 21 OFFCURVE",
"689 10 OFFCURVE",
"649 10 CURVE SMOOTH",
"589 10 OFFCURVE",
"533 36 OFFCURVE",
"492 79 CURVE SMOOTH",
"451 122 OFFCURVE",
"423 181 OFFCURVE",
"418 248 CURVE",
"893 248 LINE",
"893 259 LINE SMOOTH",
"893 334 OFFCURVE",
"864 401 OFFCURVE",
"820 449 CURVE SMOOTH",
"775 497 OFFCURVE",
"712 527 OFFCURVE",
"643 527 CURVE SMOOTH",
"555 527 OFFCURVE",
"478 478 OFFCURVE",
"435 403 CURVE",
"410 482 OFFCURVE",
"346 527 OFFCURVE",
"257 527 CURVE SMOOTH",
"204 527 OFFCURVE",
"144 504 OFFCURVE",
"77 459 CURVE",
"89 443 LINE",
"148 484 OFFCURVE",
"206 507 OFFCURVE",
"257 507 CURVE SMOOTH",
"342 507 OFFCURVE",
"404 456 OFFCURVE",
"421 376 CURVE",
"408 344 OFFCURVE",
"400 311 OFFCURVE",
"398 277 CURVE",
"354 289 OFFCURVE",
"301 297 OFFCURVE",
"253 297 CURVE SMOOTH",
"190 297 OFFCURVE",
"137 282 OFFCURVE",
"99 256 CURVE SMOOTH",
"61 230 OFFCURVE",
"39 193 OFFCURVE",
"39 149 CURVE SMOOTH",
"39 105 OFFCURVE",
"58 65 OFFCURVE",
"88 37 CURVE SMOOTH",
"118 8 OFFCURVE",
"160 -10 OFFCURVE",
"207 -10 CURVE SMOOTH"
);
},
{
closed = 1;
nodes = (
"166 10 OFFCURVE",
"129 25 OFFCURVE",
"102 50 CURVE SMOOTH",
"75 75 OFFCURVE",
"59 110 OFFCURVE",
"59 149 CURVE SMOOTH",
"59 188 OFFCURVE",
"79 219 OFFCURVE",
"113 242 CURVE SMOOTH",
"147 265 OFFCURVE",
"194 277 OFFCURVE",
"253 277 CURVE SMOOTH",
"304 277 OFFCURVE",
"352 270 OFFCURVE",
"398 256 CURVE",
"399 213 OFFCURVE",
"408 174 OFFCURVE",
"427 137 CURVE",
"425 126 OFFCURVE",
"420 114 OFFCURVE",
"412 102 CURVE SMOOTH",
"376 46 OFFCURVE",
"296 10 OFFCURVE",
"207 10 CURVE SMOOTH"
);
},
{
closed = 1;
nodes = (
"422 336 OFFCURVE",
"447 396 OFFCURVE",
"488 439 CURVE SMOOTH",
"528 482 OFFCURVE",
"583 507 OFFCURVE",
"644 507 CURVE SMOOTH",
"705 507 OFFCURVE",
"760 482 OFFCURVE",
"801 440 CURVE SMOOTH",
"841 398 OFFCURVE",
"868 337 OFFCURVE",
"872 268 CURVE",
"418 268 LINE"
);
}
);
width = 928;
}
);
leftKerningGroup = a;
note = ae;
rightKerningGroup = e;
unicode = 00E6;
},
{
glyphname = ccedilla;
lastChange = "2017-05-18 07:11:10 +0000";
layers = (
{
layerId = "2CA66E5A-B467-404E-84AC-20A403DD408D";
paths = (
{
closed = 1;
nodes = (
"46 190 OFFCURVE",
"73 125 OFFCURVE",
"115 77 CURVE SMOOTH",
"157 28 OFFCURVE",
"215 -5 OFFCURVE",
"279 -9 CURVE",
"237 -83 LINE",
"256 -76 OFFCURVE",
"290 -67 OFFCURVE",
"318 -67 CURVE SMOOTH",
"346 -67 OFFCURVE",
"366 -77 OFFCURVE",
"366 -105 CURVE SMOOTH",
"366 -130 OFFCURVE",
"347 -143 OFFCURVE",
"308 -143 CURVE SMOOTH",
"273 -143 OFFCURVE",
"241 -134 OFFCURVE",
"221 -125 CURVE",
"211 -143 LINE",
"236 -154 OFFCURVE",
"270 -162 OFFCURVE",
"305 -162 CURVE SMOOTH",
"356 -162 OFFCURVE",
"386 -145 OFFCURVE",
"386 -105 CURVE SMOOTH",
"386 -69 OFFCURVE",
"363 -51 OFFCURVE",
"318 -51 CURVE SMOOTH",
"307 -51 OFFCURVE",
"289 -52 OFFCURVE",
"276 -57 CURVE",
"303 -10 LINE",
"347 -9 OFFCURVE",
"390 5 OFFCURVE",
"425 27 CURVE SMOOTH",
"460 49 OFFCURVE",
"486 78 OFFCURVE",
"498 113 CURVE",
"478 119 LINE",
"470 91 OFFCURVE",
"445 63 OFFCURVE",
"411 43 CURVE SMOOTH",
"377 23 OFFCURVE",
"334 10 OFFCURVE",
"294 10 CURVE SMOOTH",
"231 10 OFFCURVE",
"176 39 OFFCURVE",
"134 85 CURVE SMOOTH",
"92 131 OFFCURVE",
"66 194 OFFCURVE",
"66 262 CURVE SMOOTH",
"66 330 OFFCURVE",
"91 392 OFFCURVE",
"132 436 CURVE SMOOTH",
"173 480 OFFCURVE",
"229 507 OFFCURVE",
"293 507 CURVE SMOOTH",
"369 507 OFFCURVE",
"436 468 OFFCURVE",
"471 404 CURVE",
"491 411 LINE",
"456 484 OFFCURVE",
"384 527 OFFCURVE",
"296 527 CURVE SMOOTH",
"225 527 OFFCURVE",
"163 498 OFFCURVE",
"118 451 CURVE SMOOTH",
"73 403 OFFCURVE",
"46 337 OFFCURVE",
"46 262 CURVE SMOOTH"
);
}
);
width = 538;
}
);
leftKerningGroup = c;
note = ccedilla;
rightKerningGroup = c;
unicode = 00E7;
},
{
glyphname = egrave;
lastChange = "2017-05-18 07:11:10 +0000";
layers = (
{
layerId = "2CA66E5A-B467-404E-84AC-20A403DD408D";
paths = (
{
closed = 1;
nodes = (
"341 -10 OFFCURVE",
"386 4 OFFCURVE",
"423 26 CURVE SMOOTH",
"459 48 OFFCURVE",
"487 78 OFFCURVE",
"502 114 CURVE",
"483 119 LINE",
"468 87 OFFCURVE",
"442 60 OFFCURVE",
"409 41 CURVE SMOOTH",
"376 21 OFFCURVE",
"337 10 OFFCURVE",
"297 10 CURVE SMOOTH",
"237 10 OFFCURVE",
"181 36 OFFCURVE",
"140 79 CURVE SMOOTH",
"99 122 OFFCURVE",
"71 181 OFFCURVE",
"66 248 CURVE",
"541 248 LINE",
"541 259 LINE SMOOTH",
"541 334 OFFCURVE",
"512 401 OFFCURVE",
"468 449 CURVE SMOOTH",
"423 497 OFFCURVE",
"360 527 OFFCURVE",
"291 527 CURVE SMOOTH",
"223 527 OFFCURVE",
"162 498 OFFCURVE",
"118 450 CURVE SMOOTH",
"73 402 OFFCURVE",
"46 336 OFFCURVE",
"46 263 CURVE SMOOTH",
"46 188 OFFCURVE",
"75 121 OFFCURVE",
"120 71 CURVE SMOOTH",
"165 21 OFFCURVE",
"228 -10 OFFCURVE",
"296 -10 CURVE SMOOTH"
);
},
{
closed = 1;
nodes = (
"70 336 OFFCURVE",
"95 396 OFFCURVE",
"136 439 CURVE SMOOTH",
"176 482 OFFCURVE",
"231 507 OFFCURVE",
"292 507 CURVE SMOOTH",
"353 507 OFFCURVE",
"408 482 OFFCURVE",
"449 440 CURVE SMOOTH",
"489 398 OFFCURVE",
"516 337 OFFCURVE",
"520 268 CURVE",
"66 268 LINE"
);
},
{
closed = 1;
nodes = (
"322 657 LINE",
"257 730 LINE",
"224 730 LINE",
"306 645 LINE"
);
}
);
width = 576;
}
);
leftKerningGroup = c;
note = egrave;
rightKerningGroup = e;
unicode = 00E8;
},
{
glyphname = eacute;
lastChange = "2017-05-18 07:11:10 +0000";
layers = (
{
layerId = "2CA66E5A-B467-404E-84AC-20A403DD408D";
paths = (
{
closed = 1;
nodes = (
"341 -10 OFFCURVE",
"386 4 OFFCURVE",
"423 26 CURVE SMOOTH",
"459 48 OFFCURVE",
"487 78 OFFCURVE",
"502 114 CURVE",
"483 119 LINE",
"468 87 OFFCURVE",
"442 60 OFFCURVE",
"409 41 CURVE SMOOTH",
"376 21 OFFCURVE",
"337 10 OFFCURVE",
"297 10 CURVE SMOOTH",
"237 10 OFFCURVE",
"181 36 OFFCURVE",
"140 79 CURVE SMOOTH",
"99 122 OFFCURVE",
"71 181 OFFCURVE",
"66 248 CURVE",
"541 248 LINE",
"541 259 LINE SMOOTH",
"541 334 OFFCURVE",
"512 401 OFFCURVE",
"468 449 CURVE SMOOTH",
"423 497 OFFCURVE",
"360 527 OFFCURVE",
"291 527 CURVE SMOOTH",
"223 527 OFFCURVE",
"162 498 OFFCURVE",
"118 450 CURVE SMOOTH",
"73 402 OFFCURVE",
"46 336 OFFCURVE",
"46 263 CURVE SMOOTH",
"46 188 OFFCURVE",
"75 121 OFFCURVE",
"120 71 CURVE SMOOTH",
"165 21 OFFCURVE",
"228 -10 OFFCURVE",
"296 -10 CURVE SMOOTH"
);
},
{
closed = 1;
nodes = (
"70 336 OFFCURVE",
"95 396 OFFCURVE",
"136 439 CURVE SMOOTH",
"176 482 OFFCURVE",
"231 507 OFFCURVE",
"292 507 CURVE SMOOTH",
"353 507 OFFCURVE",
"408 482 OFFCURVE",
"449 440 CURVE SMOOTH",
"489 398 OFFCURVE",
"516 337 OFFCURVE",
"520 268 CURVE",
"66 268 LINE"
);
},
{
closed = 1;
nodes = (
"326 730 LINE",
"262 657 LINE",
"278 645 LINE",
"360 730 LINE"
);
}
);
width = 576;
}
);
leftKerningGroup = c;
note = eacute;
rightKerningGroup = e;
unicode = 00E9;
},
{
glyphname = ecircumflex;
lastChange = "2017-05-18 07:11:10 +0000";
layers = (
{
layerId = "2CA66E5A-B467-404E-84AC-20A403DD408D";
paths = (
{
closed = 1;
nodes = (
"341 -10 OFFCURVE",
"386 4 OFFCURVE",
"423 26 CURVE SMOOTH",
"459 48 OFFCURVE",
"487 78 OFFCURVE",
"502 114 CURVE",
"483 119 LINE",
"468 87 OFFCURVE",
"442 60 OFFCURVE",
"409 41 CURVE SMOOTH",
"376 21 OFFCURVE",
"337 10 OFFCURVE",
"297 10 CURVE SMOOTH",
"237 10 OFFCURVE",
"181 36 OFFCURVE",
"140 79 CURVE SMOOTH",
"99 122 OFFCURVE",
"71 181 OFFCURVE",
"66 248 CURVE",
"541 248 LINE",
"541 259 LINE SMOOTH",
"541 334 OFFCURVE",
"512 401 OFFCURVE",
"468 449 CURVE SMOOTH",
"423 497 OFFCURVE",
"360 527 OFFCURVE",
"291 527 CURVE SMOOTH",
"223 527 OFFCURVE",
"162 498 OFFCURVE",
"118 450 CURVE SMOOTH",
"73 402 OFFCURVE",
"46 336 OFFCURVE",
"46 263 CURVE SMOOTH",
"46 188 OFFCURVE",
"75 121 OFFCURVE",
"120 71 CURVE SMOOTH",
"165 21 OFFCURVE",
"228 -10 OFFCURVE",
"296 -10 CURVE SMOOTH"
);
},
{
closed = 1;
nodes = (
"70 336 OFFCURVE",
"95 396 OFFCURVE",
"136 439 CURVE SMOOTH",
"176 482 OFFCURVE",
"231 507 OFFCURVE",
"292 507 CURVE SMOOTH",
"353 507 OFFCURVE",
"408 482 OFFCURVE",
"449 440 CURVE SMOOTH",
"489 398 OFFCURVE",
"516 337 OFFCURVE",
"520 268 CURVE",
"66 268 LINE"
);
},
{
closed = 1;
nodes = (
"292 707 LINE",
"377 644 LINE",
"393 656 LINE",
"300 730 LINE",
"284 730 LINE",
"191 656 LINE",
"207 644 LINE"
);
}
);
width = 576;
}
);
leftKerningGroup = c;
note = ecircumflex;
rightKerningGroup = e;
unicode = 00EA;
},
{
glyphname = edieresis;
lastChange = "2017-05-18 07:11:10 +0000";
layers = (
{
layerId = "2CA66E5A-B467-404E-84AC-20A403DD408D";
paths = (
{
closed = 1;
nodes = (
"341 -10 OFFCURVE",
"386 4 OFFCURVE",
"423 26 CURVE SMOOTH",
"459 48 OFFCURVE",
"487 78 OFFCURVE",
"502 114 CURVE",
"483 119 LINE",
"468 87 OFFCURVE",
"442 60 OFFCURVE",
"409 41 CURVE SMOOTH",
"376 21 OFFCURVE",
"337 10 OFFCURVE",
"297 10 CURVE SMOOTH",
"237 10 OFFCURVE",
"181 36 OFFCURVE",
"140 79 CURVE SMOOTH",
"99 122 OFFCURVE",
"71 181 OFFCURVE",
"66 248 CURVE",
"541 248 LINE",
"541 259 LINE SMOOTH",
"541 334 OFFCURVE",
"512 401 OFFCURVE",
"468 449 CURVE SMOOTH",
"423 497 OFFCURVE",
"360 527 OFFCURVE",
"291 527 CURVE SMOOTH",
"223 527 OFFCURVE",
"162 498 OFFCURVE",
"118 450 CURVE SMOOTH",
"73 402 OFFCURVE",
"46 336 OFFCURVE",
"46 263 CURVE SMOOTH",
"46 188 OFFCURVE",
"75 121 OFFCURVE",
"120 71 CURVE SMOOTH",
"165 21 OFFCURVE",
"228 -10 OFFCURVE",
"296 -10 CURVE SMOOTH"
);
},
{
closed = 1;
nodes = (
"70 336 OFFCURVE",
"95 396 OFFCURVE",
"136 439 CURVE SMOOTH",
"176 482 OFFCURVE",
"231 507 OFFCURVE",
"292 507 CURVE SMOOTH",
"353 507 OFFCURVE",
"408 482 OFFCURVE",
"449 440 CURVE SMOOTH",
"489 398 OFFCURVE",
"516 337 OFFCURVE",
"520 268 CURVE",
"66 268 LINE"
);
},
{
closed = 1;
nodes = (
"244 730 LINE",
"224 730 LINE",
"224 653 LINE",
"244 653 LINE"
);
},
{
closed = 1;
nodes = (
"360 730 LINE",
"340 730 LINE",
"340 653 LINE",
"360 653 LINE"
);
}
);
width = 576;
}
);
leftKerningGroup = c;
note = edieresis;
rightKerningGroup = e;
unicode = 00EB;
},
{
glyphname = igrave;
lastChange = "2017-05-18 07:11:10 +0000";
layers = (
{
layerId = "2CA66E5A-B467-404E-84AC-20A403DD408D";
paths = (
{
closed = 1;
nodes = (
"104 519 LINE",
"84 519 LINE",
"84 0 LINE",
"104 0 LINE"
);
},
{
closed = 1;
nodes = (
"124 657 LINE",
"59 730 LINE",
"26 730 LINE",
"108 645 LINE"
);
}
);
width = 188;
}
);
leftKerningGroup = i;
note = igrave;
rightKerningGroup = i;
unicode = 00EC;
},
{
glyphname = iacute;
lastChange = "2017-05-18 07:11:10 +0000";
layers = (
{
layerId = "2CA66E5A-B467-404E-84AC-20A403DD408D";
paths = (
{
closed = 1;
nodes = (
"104 519 LINE",
"84 519 LINE",
"84 0 LINE",
"104 0 LINE"
);
},
{
closed = 1;
nodes = (
"128 730 LINE",
"64 657 LINE",
"80 645 LINE",
"162 730 LINE"
);
}
);
width = 188;
}
);
leftKerningGroup = i;
note = iacute;
rightKerningGroup = i;
unicode = 00ED;
},
{
glyphname = icircumflex;
lastChange = "2017-05-18 07:11:10 +0000";
layers = (
{
layerId = "2CA66E5A-B467-404E-84AC-20A403DD408D";
paths = (
{
closed = 1;
nodes = (
"104 519 LINE",
"84 519 LINE",
"84 0 LINE",
"104 0 LINE"
);
},
{
closed = 1;
nodes = (
"94 707 LINE",
"179 644 LINE",
"195 656 LINE",
"102 730 LINE",
"86 730 LINE",
"-7 656 LINE",
"9 644 LINE"
);
}
);
width = 188;
}
);
leftKerningGroup = i;
note = icircumflex;
rightKerningGroup = i;
unicode = 00EE;
},
{
glyphname = idieresis;
lastChange = "2017-05-18 07:11:10 +0000";
layers = (
{
layerId = "2CA66E5A-B467-404E-84AC-20A403DD408D";
paths = (
{
closed = 1;
nodes = (
"104 519 LINE",
"84 519 LINE",
"84 0 LINE",
"104 0 LINE"
);
},
{
closed = 1;
nodes = (
"46 730 LINE",
"26 730 LINE",
"26 653 LINE",
"46 653 LINE"
);
},
{
closed = 1;
nodes = (
"162 730 LINE",
"142 730 LINE",
"142 653 LINE",
"162 653 LINE"
);
}
);
width = 188;
}
);
leftKerningGroup = i;
note = idieresis;
rightKerningGroup = i;
unicode = 00EF;
},
{
glyphname = eth;
lastChange = "2017-05-18 07:11:10 +0000";
layers = (
{
layerId = "2CA66E5A-B467-404E-84AC-20A403DD408D";
paths = (
{
closed = 1;
nodes = (
"364 649 LINE",
"331 677 OFFCURVE",
"293 704 OFFCURVE",
"249 730 CURVE",
"220 730 LINE",
"271 701 OFFCURVE",
"314 671 OFFCURVE",
"350 640 CURVE",
"230 561 LINE",
"240 547 LINE",
"364 629 LINE",
"421 577 OFFCURVE",
"459 527 OFFCURVE",
"483 477 CURVE SMOOTH",
"507 427 OFFCURVE",
"517 378 OFFCURVE",
"522 330 CURVE",
"505 373 OFFCURVE",
"474 409 OFFCURVE",
"435 435 CURVE SMOOTH",
"395 461 OFFCURVE",
"347 475 OFFCURVE",
"295 475 CURVE SMOOTH",
"228 475 OFFCURVE",
"166 447 OFFCURVE",
"121 403 CURVE SMOOTH",
"76 359 OFFCURVE",
"48 297 OFFCURVE",
"48 232 CURVE SMOOTH",
"48 167 OFFCURVE",
"76 106 OFFCURVE",
"121 62 CURVE SMOOTH",
"165 18 OFFCURVE",
"227 -10 OFFCURVE",
"295 -10 CURVE SMOOTH",
"363 -10 OFFCURVE",
"425 19 OFFCURVE",
"470 66 CURVE SMOOTH",
"514 113 OFFCURVE",
"542 177 OFFCURVE",
"542 246 CURVE SMOOTH",
"542 315 OFFCURVE",
"537 382 OFFCURVE",
"514 447 CURVE SMOOTH",
"490 512 OFFCURVE",
"450 575 OFFCURVE",
"378 638 CURVE",
"471 699 LINE",
"461 713 LINE"
);
},
{
closed = 1;
nodes = (
"68 291 OFFCURVE",
"94 347 OFFCURVE",
"135 388 CURVE SMOOTH",
"176 429 OFFCURVE",
"234 455 OFFCURVE",
"295 455 CURVE SMOOTH",
"356 455 OFFCURVE",
"414 432 OFFCURVE",
"455 394 CURVE SMOOTH",
"496 356 OFFCURVE",
"522 303 OFFCURVE",
"522 247 CURVE SMOOTH",
"522 183 OFFCURVE",
"497 124 OFFCURVE",
"455 81 CURVE SMOOTH",
"413 37 OFFCURVE",
"355 10 OFFCURVE",
"294 10 CURVE SMOOTH",
"231 10 OFFCURVE",
"175 35 OFFCURVE",
"135 75 CURVE SMOOTH",
"94 115 OFFCURVE",
"68 170 OFFCURVE",
"68 230 CURVE SMOOTH"
);
}
);
width = 593;
}
);
leftKerningGroup = eth;
note = eth;
rightKerningGroup = eth;
unicode = 00F0;
},
{
glyphname = ntilde;
lastChange = "2017-05-18 07:11:10 +0000";
layers = (
{
layerId = "2CA66E5A-B467-404E-84AC-20A403DD408D";
paths = (
{
closed = 1;
nodes = (
"487 453 OFFCURVE",
"440 527 OFFCURVE",
"333 527 CURVE SMOOTH",
"286 527 OFFCURVE",
"240 512 OFFCURVE",
"200 488 CURVE SMOOTH",
"160 463 OFFCURVE",
"125 426 OFFCURVE",
"104 385 CURVE",
"104 519 LINE",
"84 519 LINE",
"84 0 LINE",
"104 0 LINE",
"104 328 LINE",
"119 379 OFFCURVE",
"151 424 OFFCURVE",
"192 456 CURVE SMOOTH",
"233 488 OFFCURVE",
"283 507 OFFCURVE",
"334 507 CURVE SMOOTH",
"427 507 OFFCURVE",
"467 441 OFFCURVE",
"467 289 CURVE SMOOTH",
"467 0 LINE",
"487 0 LINE",
"487 289 LINE SMOOTH"
);
},
{
closed = 1;
nodes = (
"359 663 OFFCURVE",
"374 666 OFFCURVE",
"385 672 CURVE SMOOTH",
"407 684 OFFCURVE",
"416 701 OFFCURVE",
"420 716 CURVE",
"421 723 OFFCURVE",
"422 728 OFFCURVE",
"422 730 CURVE",
"402 730 LINE",
"402 729 OFFCURVE",
"402 726 OFFCURVE",
"401 721 CURVE SMOOTH",
"400 716 OFFCURVE",
"397 710 OFFCURVE",
"393 705 CURVE",
"385 693 OFFCURVE",
"371 682 OFFCURVE",
"343 682 CURVE SMOOTH",
"318 682 OFFCURVE",
"300 692 OFFCURVE",
"281 701 CURVE SMOOTH",
"262 710 OFFCURVE",
"243 720 OFFCURVE",
"218 720 CURVE SMOOTH",
"201 720 OFFCURVE",
"188 717 OFFCURVE",
"179 711 CURVE SMOOTH",
"159 698 OFFCURVE",
"150 681 OFFCURVE",
"147 666 CURVE",
"146 659 OFFCURVE",
"145 654 OFFCURVE",
"145 653 CURVE",
"165 653 LINE",
"165 654 OFFCURVE",
"166 658 OFFCURVE",
"167 663 CURVE SMOOTH",
"168 668 OFFCURVE",
"171 674 OFFCURVE",
"175 680 CURVE SMOOTH",
"182 691 OFFCURVE",
"195 701 OFFCURVE",
"216 701 CURVE SMOOTH",
"236 701 OFFCURVE",
"253 691 OFFCURVE",
"272 682 CURVE SMOOTH",
"291 673 OFFCURVE",
"312 663 OFFCURVE",
"341 663 CURVE SMOOTH"
);
}
);
width = 565;
}
);
leftKerningGroup = m;
note = ntilde;
rightKerningGroup = m;
unicode = 00F1;
},
{
glyphname = ograve;
lastChange = "2017-05-18 07:11:10 +0000";
layers = (
{
layerId = "2CA66E5A-B467-404E-84AC-20A403DD408D";
paths = (
{
closed = 1;
nodes = (
"361 -10 OFFCURVE",
"423 21 OFFCURVE",
"468 70 CURVE SMOOTH",
"512 118 OFFCURVE",
"540 186 OFFCURVE",
"540 258 CURVE SMOOTH",
"540 331 OFFCURVE",
"511 398 OFFCURVE",
"467 447 CURVE SMOOTH",
"422 496 OFFCURVE",
"360 527 OFFCURVE",
"293 527 CURVE SMOOTH",
"226 527 OFFCURVE",
"164 496 OFFCURVE",
"119 447 CURVE SMOOTH",
"74 398 OFFCURVE",
"46 331 OFFCURVE",
"46 258 CURVE SMOOTH",
"46 186 OFFCURVE",
"74 118 OFFCURVE",
"119 70 CURVE SMOOTH",
"163 21 OFFCURVE",
"225 -10 OFFCURVE",
"293 -10 CURVE SMOOTH"
);
},
{
closed = 1;
nodes = (
"66 324 OFFCURVE",
"92 387 OFFCURVE",
"133 433 CURVE SMOOTH",
"174 479 OFFCURVE",
"232 507 OFFCURVE",
"293 507 CURVE SMOOTH",
"354 507 OFFCURVE",
"412 478 OFFCURVE",
"453 433 CURVE SMOOTH",
"494 388 OFFCURVE",
"520 326 OFFCURVE",
"520 259 CURVE SMOOTH",
"520 191 OFFCURVE",
"495 129 OFFCURVE",
"453 84 CURVE SMOOTH",
"411 39 OFFCURVE",
"353 10 OFFCURVE",
"292 10 CURVE SMOOTH",
"229 10 OFFCURVE",
"173 38 OFFCURVE",
"133 83 CURVE SMOOTH",
"92 127 OFFCURVE",
"66 189 OFFCURVE",
"66 256 CURVE SMOOTH"
);
},
{
closed = 1;
nodes = (
"323 657 LINE",
"258 730 LINE",
"225 730 LINE",
"307 645 LINE"
);
}
);
width = 586;
}
);
leftKerningGroup = c;
note = ograve;
rightKerningGroup = o;
unicode = 00F2;
},
{
glyphname = oacute;
lastChange = "2017-05-18 07:11:10 +0000";
layers = (
{
layerId = "2CA66E5A-B467-404E-84AC-20A403DD408D";
paths = (
{
closed = 1;
nodes = (
"361 -10 OFFCURVE",
"423 21 OFFCURVE",
"468 70 CURVE SMOOTH",
"512 118 OFFCURVE",
"540 186 OFFCURVE",
"540 258 CURVE SMOOTH",
"540 331 OFFCURVE",
"511 398 OFFCURVE",
"467 447 CURVE SMOOTH",
"422 496 OFFCURVE",
"360 527 OFFCURVE",
"293 527 CURVE SMOOTH",
"226 527 OFFCURVE",
"164 496 OFFCURVE",
"119 447 CURVE SMOOTH",
"74 398 OFFCURVE",
"46 331 OFFCURVE",
"46 258 CURVE SMOOTH",
"46 186 OFFCURVE",
"74 118 OFFCURVE",
"119 70 CURVE SMOOTH",
"163 21 OFFCURVE",
"225 -10 OFFCURVE",
"293 -10 CURVE SMOOTH"
);
},
{
closed = 1;
nodes = (
"66 324 OFFCURVE",
"92 387 OFFCURVE",
"133 433 CURVE SMOOTH",
"174 479 OFFCURVE",
"232 507 OFFCURVE",
"293 507 CURVE SMOOTH",
"354 507 OFFCURVE",
"412 478 OFFCURVE",
"453 433 CURVE SMOOTH",
"494 388 OFFCURVE",
"520 326 OFFCURVE",
"520 259 CURVE SMOOTH",
"520 191 OFFCURVE",
"495 129 OFFCURVE",
"453 84 CURVE SMOOTH",
"411 39 OFFCURVE",
"353 10 OFFCURVE",
"292 10 CURVE SMOOTH",
"229 10 OFFCURVE",
"173 38 OFFCURVE",
"133 83 CURVE SMOOTH",
"92 127 OFFCURVE",
"66 189 OFFCURVE",
"66 256 CURVE SMOOTH"
);
},
{
closed = 1;
nodes = (
"327 730 LINE",
"263 657 LINE",
"279 645 LINE",
"361 730 LINE"
);
}
);
width = 586;
}
);
leftKerningGroup = c;
note = oacute;
rightKerningGroup = o;
unicode = 00F3;
},
{
glyphname = ocircumflex;
lastChange = "2017-05-18 07:11:10 +0000";
layers = (
{
layerId = "2CA66E5A-B467-404E-84AC-20A403DD408D";
paths = (
{
closed = 1;
nodes = (
"361 -10 OFFCURVE",
"423 21 OFFCURVE",
"468 70 CURVE SMOOTH",
"512 118 OFFCURVE",
"540 186 OFFCURVE",
"540 258 CURVE SMOOTH",
"540 331 OFFCURVE",
"511 398 OFFCURVE",
"467 447 CURVE SMOOTH",
"422 496 OFFCURVE",
"360 527 OFFCURVE",
"293 527 CURVE SMOOTH",
"226 527 OFFCURVE",
"164 496 OFFCURVE",
"119 447 CURVE SMOOTH",
"74 398 OFFCURVE",
"46 331 OFFCURVE",
"46 258 CURVE SMOOTH",
"46 186 OFFCURVE",
"74 118 OFFCURVE",
"119 70 CURVE SMOOTH",
"163 21 OFFCURVE",
"225 -10 OFFCURVE",
"293 -10 CURVE SMOOTH"
);
},
{
closed = 1;
nodes = (
"66 324 OFFCURVE",
"92 387 OFFCURVE",
"133 433 CURVE SMOOTH",
"174 479 OFFCURVE",
"232 507 OFFCURVE",
"293 507 CURVE SMOOTH",
"354 507 OFFCURVE",
"412 478 OFFCURVE",
"453 433 CURVE SMOOTH",
"494 388 OFFCURVE",
"520 326 OFFCURVE",
"520 259 CURVE SMOOTH",
"520 191 OFFCURVE",
"495 129 OFFCURVE",
"453 84 CURVE SMOOTH",
"411 39 OFFCURVE",
"353 10 OFFCURVE",
"292 10 CURVE SMOOTH",
"229 10 OFFCURVE",
"173 38 OFFCURVE",
"133 83 CURVE SMOOTH",
"92 127 OFFCURVE",
"66 189 OFFCURVE",
"66 256 CURVE SMOOTH"
);
},
{
closed = 1;
nodes = (
"293 707 LINE",
"378 644 LINE",
"394 656 LINE",
"301 730 LINE",
"285 730 LINE",
"192 656 LINE",
"208 644 LINE"
);
}
);
width = 586;
}
);
leftKerningGroup = c;
note = ocircumflex;
rightKerningGroup = o;
unicode = 00F4;
},
{
glyphname = otilde;
lastChange = "2017-05-18 07:11:10 +0000";
layers = (
{
layerId = "2CA66E5A-B467-404E-84AC-20A403DD408D";
paths = (
{
closed = 1;
nodes = (
"361 -10 OFFCURVE",
"423 21 OFFCURVE",
"468 70 CURVE SMOOTH",
"512 118 OFFCURVE",
"540 186 OFFCURVE",
"540 258 CURVE SMOOTH",
"540 331 OFFCURVE",
"511 398 OFFCURVE",
"467 447 CURVE SMOOTH",
"422 496 OFFCURVE",
"360 527 OFFCURVE",
"293 527 CURVE SMOOTH",
"226 527 OFFCURVE",
"164 496 OFFCURVE",
"119 447 CURVE SMOOTH",
"74 398 OFFCURVE",
"46 331 OFFCURVE",
"46 258 CURVE SMOOTH",
"46 186 OFFCURVE",
"74 118 OFFCURVE",
"119 70 CURVE SMOOTH",
"163 21 OFFCURVE",
"225 -10 OFFCURVE",
"293 -10 CURVE SMOOTH"
);
},
{
closed = 1;
nodes = (
"66 324 OFFCURVE",
"92 387 OFFCURVE",
"133 433 CURVE SMOOTH",
"174 479 OFFCURVE",
"232 507 OFFCURVE",
"293 507 CURVE SMOOTH",
"354 507 OFFCURVE",
"412 478 OFFCURVE",
"453 433 CURVE SMOOTH",
"494 388 OFFCURVE",
"520 326 OFFCURVE",
"520 259 CURVE SMOOTH",
"520 191 OFFCURVE",
"495 129 OFFCURVE",
"453 84 CURVE SMOOTH",
"411 39 OFFCURVE",
"353 10 OFFCURVE",
"292 10 CURVE SMOOTH",
"229 10 OFFCURVE",
"173 38 OFFCURVE",
"133 83 CURVE SMOOTH",
"92 127 OFFCURVE",
"66 189 OFFCURVE",
"66 256 CURVE SMOOTH"
);
},
{
closed = 1;
nodes = (
"372 663 OFFCURVE",
"387 666 OFFCURVE",
"398 672 CURVE SMOOTH",
"420 684 OFFCURVE",
"429 701 OFFCURVE",
"433 716 CURVE",
"434 723 OFFCURVE",
"435 728 OFFCURVE",
"435 730 CURVE",
"415 730 LINE",
"415 729 OFFCURVE",
"415 726 OFFCURVE",
"414 721 CURVE SMOOTH",
"413 716 OFFCURVE",
"410 710 OFFCURVE",
"406 705 CURVE",
"398 693 OFFCURVE",
"384 682 OFFCURVE",
"356 682 CURVE SMOOTH",
"331 682 OFFCURVE",
"313 692 OFFCURVE",
"294 701 CURVE SMOOTH",
"275 710 OFFCURVE",
"256 720 OFFCURVE",
"231 720 CURVE SMOOTH",
"214 720 OFFCURVE",
"201 717 OFFCURVE",
"192 711 CURVE SMOOTH",
"172 698 OFFCURVE",
"163 681 OFFCURVE",
"160 666 CURVE",
"159 659 OFFCURVE",
"158 654 OFFCURVE",
"158 653 CURVE",
"178 653 LINE",
"178 654 OFFCURVE",
"179 658 OFFCURVE",
"180 663 CURVE SMOOTH",
"181 668 OFFCURVE",
"184 674 OFFCURVE",
"188 680 CURVE SMOOTH",
"195 691 OFFCURVE",
"208 701 OFFCURVE",
"229 701 CURVE SMOOTH",
"249 701 OFFCURVE",
"266 691 OFFCURVE",
"285 682 CURVE SMOOTH",
"304 673 OFFCURVE",
"325 663 OFFCURVE",
"354 663 CURVE SMOOTH"
);
}
);
width = 586;
}
);
leftKerningGroup = c;
note = otilde;
rightKerningGroup = o;
unicode = 00F5;
},
{
glyphname = odieresis;
lastChange = "2017-05-18 07:11:10 +0000";
layers = (
{
layerId = "2CA66E5A-B467-404E-84AC-20A403DD408D";
paths = (
{
closed = 1;
nodes = (
"361 -10 OFFCURVE",
"423 21 OFFCURVE",
"468 70 CURVE SMOOTH",
"512 118 OFFCURVE",
"540 186 OFFCURVE",
"540 258 CURVE SMOOTH",
"540 331 OFFCURVE",
"511 398 OFFCURVE",
"467 447 CURVE SMOOTH",
"422 496 OFFCURVE",
"360 527 OFFCURVE",
"293 527 CURVE SMOOTH",
"226 527 OFFCURVE",
"164 496 OFFCURVE",
"119 447 CURVE SMOOTH",
"74 398 OFFCURVE",
"46 331 OFFCURVE",
"46 258 CURVE SMOOTH",
"46 186 OFFCURVE",
"74 118 OFFCURVE",
"119 70 CURVE SMOOTH",
"163 21 OFFCURVE",
"225 -10 OFFCURVE",
"293 -10 CURVE SMOOTH"
);
},
{
closed = 1;
nodes = (
"66 324 OFFCURVE",
"92 387 OFFCURVE",
"133 433 CURVE SMOOTH",
"174 479 OFFCURVE",
"232 507 OFFCURVE",
"293 507 CURVE SMOOTH",
"354 507 OFFCURVE",
"412 478 OFFCURVE",
"453 433 CURVE SMOOTH",
"494 388 OFFCURVE",
"520 326 OFFCURVE",
"520 259 CURVE SMOOTH",
"520 191 OFFCURVE",
"495 129 OFFCURVE",
"453 84 CURVE SMOOTH",
"411 39 OFFCURVE",
"353 10 OFFCURVE",
"292 10 CURVE SMOOTH",
"229 10 OFFCURVE",
"173 38 OFFCURVE",
"133 83 CURVE SMOOTH",
"92 127 OFFCURVE",
"66 189 OFFCURVE",
"66 256 CURVE SMOOTH"
);
},
{
closed = 1;
nodes = (
"245 730 LINE",
"225 730 LINE",
"225 653 LINE",
"245 653 LINE"
);
},
{
closed = 1;
nodes = (
"361 730 LINE",
"341 730 LINE",
"341 653 LINE",
"361 653 LINE"
);
}
);
width = 586;
}
);
leftKerningGroup = c;
note = odieresis;
rightKerningGroup = o;
unicode = 00F6;
},
{
glyphname = divide;
lastChange = "2017-05-18 07:11:10 +0000";
layers = (
{
layerId = "2CA66E5A-B467-404E-84AC-20A403DD408D";
paths = (
{
closed = 1;
nodes = (
"283 449 LINE",
"263 449 LINE",
"263 385 LINE",
"283 385 LINE"
);
},
{
closed = 1;
nodes = (
"283 156 LINE",
"263 156 LINE",
"263 92 LINE",
"283 92 LINE"
);
},
{
closed = 1;
nodes = (
"475 281 LINE",
"72 281 LINE",
"72 261 LINE",
"475 261 LINE"
);
}
);
width = 546;
}
);
note = divide;
unicode = 00F7;
},
{
glyphname = oslash;
lastChange = "2017-05-18 07:11:10 +0000";
layers = (
{
layerId = "2CA66E5A-B467-404E-84AC-20A403DD408D";
paths = (
{
closed = 1;
nodes = (
"165 29 LINE",
"202 4 OFFCURVE",
"246 -10 OFFCURVE",
"293 -10 CURVE SMOOTH",
"361 -10 OFFCURVE",
"423 21 OFFCURVE",
"468 70 CURVE SMOOTH",
"512 118 OFFCURVE",
"540 186 OFFCURVE",
"540 258 CURVE SMOOTH",
"540 346 OFFCURVE",
"499 423 OFFCURVE",
"438 474 CURVE",
"466 519 LINE",
"440 519 LINE",
"420 487 LINE",
"383 512 OFFCURVE",
"340 527 OFFCURVE",
"293 527 CURVE SMOOTH",
"226 527 OFFCURVE",
"164 496 OFFCURVE",
"119 447 CURVE SMOOTH",
"74 398 OFFCURVE",
"46 331 OFFCURVE",
"46 258 CURVE SMOOTH",
"46 170 OFFCURVE",
"85 92 OFFCURVE",
"148 41 CURVE",
"123 0 LINE",
"148 0 LINE"
);
},
{
closed = 1;
nodes = (
"66 324 OFFCURVE",
"92 387 OFFCURVE",
"133 433 CURVE SMOOTH",
"174 479 OFFCURVE",
"232 507 OFFCURVE",
"293 507 CURVE SMOOTH",
"336 507 OFFCURVE",
"375 493 OFFCURVE",
"410 470 CURVE",
"158 58 LINE",
"102 103 OFFCURVE",
"66 176 OFFCURVE",
"66 256 CURVE SMOOTH"
);
},
{
closed = 1;
nodes = (
"250 10 OFFCURVE",
"211 22 OFFCURVE",
"176 46 CURVE",
"428 456 LINE",
"484 409 OFFCURVE",
"520 339 OFFCURVE",
"520 259 CURVE SMOOTH",
"520 191 OFFCURVE",
"495 129 OFFCURVE",
"453 84 CURVE SMOOTH",
"411 39 OFFCURVE",
"353 10 OFFCURVE",
"292 10 CURVE SMOOTH"
);
}
);
width = 586;
}
);
leftKerningGroup = c;
note = oslash;
rightKerningGroup = o;
unicode = 00F8;
},
{
glyphname = ugrave;
lastChange = "2017-05-18 07:11:10 +0000";
layers = (
{
layerId = "2CA66E5A-B467-404E-84AC-20A403DD408D";
paths = (
{
closed = 1;
nodes = (
"338 -10 OFFCURVE",
"426 44 OFFCURVE",
"471 132 CURVE",
"471 40 LINE SMOOTH",
"471 31 OFFCURVE",
"473 24 OFFCURVE",
"477 17 CURVE SMOOTH",
"485 3 OFFCURVE",
"492 0 OFFCURVE",
"507 0 CURVE",
"507 20 LINE",
"496 20 OFFCURVE",
"491 27 OFFCURVE",
"491 40 CURVE SMOOTH",
"491 519 LINE",
"471 519 LINE",
"471 189 LINE",
"455 137 OFFCURVE",
"424 92 OFFCURVE",
"384 61 CURVE SMOOTH",
"344 29 OFFCURVE",
"294 10 OFFCURVE",
"245 10 CURVE SMOOTH",
"147 10 OFFCURVE",
"98 83 OFFCURVE",
"98 228 CURVE SMOOTH",
"98 519 LINE",
"78 519 LINE",
"78 228 LINE SMOOTH",
"78 69 OFFCURVE",
"134 -10 OFFCURVE",
"245 -10 CURVE SMOOTH"
);
},
{
closed = 1;
nodes = (
"312 657 LINE",
"247 730 LINE",
"214 730 LINE",
"296 645 LINE"
);
}
);
width = 576;
}
);
leftKerningGroup = u;
note = ugrave;
rightKerningGroup = u;
unicode = 00F9;
},
{
glyphname = uacute;
lastChange = "2017-05-18 07:11:10 +0000";
layers = (
{
layerId = "2CA66E5A-B467-404E-84AC-20A403DD408D";
paths = (
{
closed = 1;
nodes = (
"338 -10 OFFCURVE",
"426 44 OFFCURVE",
"471 132 CURVE",
"471 40 LINE SMOOTH",
"471 31 OFFCURVE",
"473 24 OFFCURVE",
"477 17 CURVE SMOOTH",
"485 3 OFFCURVE",
"492 0 OFFCURVE",
"507 0 CURVE",
"507 20 LINE",
"496 20 OFFCURVE",
"491 27 OFFCURVE",
"491 40 CURVE SMOOTH",
"491 519 LINE",
"471 519 LINE",
"471 189 LINE",
"455 137 OFFCURVE",
"424 92 OFFCURVE",
"384 61 CURVE SMOOTH",
"344 29 OFFCURVE",
"294 10 OFFCURVE",
"245 10 CURVE SMOOTH",
"147 10 OFFCURVE",
"98 83 OFFCURVE",
"98 228 CURVE SMOOTH",
"98 519 LINE",
"78 519 LINE",
"78 228 LINE SMOOTH",
"78 69 OFFCURVE",
"134 -10 OFFCURVE",
"245 -10 CURVE SMOOTH"
);
},
{
closed = 1;
nodes = (
"316 730 LINE",
"252 657 LINE",
"268 645 LINE",
"350 730 LINE"
);
}
);
width = 576;
}
);
leftKerningGroup = u;
note = uacute;
rightKerningGroup = u;
unicode = 00FA;
},
{
glyphname = ucircumflex;
lastChange = "2017-05-18 07:11:10 +0000";
layers = (
{
layerId = "2CA66E5A-B467-404E-84AC-20A403DD408D";
paths = (
{
closed = 1;
nodes = (
"338 -10 OFFCURVE",
"426 44 OFFCURVE",
"471 132 CURVE",
"471 40 LINE SMOOTH",
"471 31 OFFCURVE",
"473 24 OFFCURVE",
"477 17 CURVE SMOOTH",
"485 3 OFFCURVE",
"492 0 OFFCURVE",
"507 0 CURVE",
"507 20 LINE",
"496 20 OFFCURVE",
"491 27 OFFCURVE",
"491 40 CURVE SMOOTH",
"491 519 LINE",
"471 519 LINE",
"471 189 LINE",
"455 137 OFFCURVE",
"424 92 OFFCURVE",
"384 61 CURVE SMOOTH",
"344 29 OFFCURVE",
"294 10 OFFCURVE",
"245 10 CURVE SMOOTH",
"147 10 OFFCURVE",
"98 83 OFFCURVE",
"98 228 CURVE SMOOTH",
"98 519 LINE",
"78 519 LINE",
"78 228 LINE SMOOTH",
"78 69 OFFCURVE",
"134 -10 OFFCURVE",
"245 -10 CURVE SMOOTH"
);
},
{
closed = 1;
nodes = (
"282 707 LINE",
"367 644 LINE",
"383 656 LINE",
"290 730 LINE",
"274 730 LINE",
"181 656 LINE",
"197 644 LINE"
);
}
);
width = 576;
}
);
leftKerningGroup = u;
note = ucircumflex;
rightKerningGroup = u;
unicode = 00FB;
},
{
glyphname = udieresis;
lastChange = "2017-05-18 07:11:10 +0000";
layers = (
{
layerId = "2CA66E5A-B467-404E-84AC-20A403DD408D";
paths = (
{
closed = 1;
nodes = (
"338 -10 OFFCURVE",
"426 44 OFFCURVE",
"471 132 CURVE",
"471 40 LINE SMOOTH",
"471 31 OFFCURVE",
"473 24 OFFCURVE",
"477 17 CURVE SMOOTH",
"485 3 OFFCURVE",
"492 0 OFFCURVE",
"507 0 CURVE",
"507 20 LINE",
"496 20 OFFCURVE",
"491 27 OFFCURVE",
"491 40 CURVE SMOOTH",
"491 519 LINE",
"471 519 LINE",
"471 189 LINE",
"455 137 OFFCURVE",
"424 92 OFFCURVE",
"384 61 CURVE SMOOTH",
"344 29 OFFCURVE",
"294 10 OFFCURVE",
"245 10 CURVE SMOOTH",
"147 10 OFFCURVE",
"98 83 OFFCURVE",
"98 228 CURVE SMOOTH",
"98 519 LINE",
"78 519 LINE",
"78 228 LINE SMOOTH",
"78 69 OFFCURVE",
"134 -10 OFFCURVE",
"245 -10 CURVE SMOOTH"
);
},
{
closed = 1;
nodes = (
"234 730 LINE",
"214 730 LINE",
"214 653 LINE",
"234 653 LINE"
);
},
{
closed = 1;
nodes = (
"350 730 LINE",
"330 730 LINE",
"330 653 LINE",
"350 653 LINE"
);
}
);
width = 576;
}
);
leftKerningGroup = u;
note = udieresis;
rightKerningGroup = u;
unicode = 00FC;
},
{
glyphname = yacute;
lastChange = "2017-05-18 07:11:10 +0000";
layers = (
{
layerId = "2CA66E5A-B467-404E-84AC-20A403DD408D";
paths = (
{
closed = 1;
nodes = (
"156 -223 OFFCURVE",
"186 -221 OFFCURVE",
"202 -186 CURVE SMOOTH",
"511 519 LINE",
"489 519 LINE",
"272 25 LINE",
"43 519 LINE",
"21 519 LINE",
"262 0 LINE",
"245 -39 OFFCURVE",
"231 -71 OFFCURVE",
"220 -95 CURVE SMOOTH",
"209 -120 OFFCURVE",
"201 -139 OFFCURVE",
"195 -152 CURVE SMOOTH",
"189 -166 OFFCURVE",
"185 -176 OFFCURVE",
"182 -181 CURVE",
"179 -187 OFFCURVE",
"177 -191 OFFCURVE",
"175 -193 CURVE",
"168 -202 OFFCURVE",
"151 -203 OFFCURVE",
"128 -203 CURVE",
"128 -223 LINE"
);
},
{
closed = 1;
nodes = (
"306 730 LINE",
"242 657 LINE",
"258 645 LINE",
"340 730 LINE"
);
}
);
width = 536;
}
);
leftKerningGroup = y;
note = yacute;
rightKerningGroup = y;
unicode = 00FD;
},
{
glyphname = thorn;
lastChange = "2017-05-18 07:11:10 +0000";
layers = (
{
layerId = "2CA66E5A-B467-404E-84AC-20A403DD408D";
paths = (
{
closed = 1;
nodes = (
"557 322 OFFCURVE",
"534 389 OFFCURVE",
"494 441 CURVE SMOOTH",
"453 492 OFFCURVE",
"392 527 OFFCURVE",
"316 527 CURVE SMOOTH",
"225 527 OFFCURVE",
"157 473 OFFCURVE",
"104 398 CURVE",
"104 710 LINE",
"84 710 LINE",
"84 -213 LINE",
"104 -213 LINE",
"104 108 LINE",
"124 75 OFFCURVE",
"155 45 OFFCURVE",
"191 24 CURVE SMOOTH",
"226 3 OFFCURVE",
"266 -10 OFFCURVE",
"307 -10 CURVE SMOOTH",
"378 -10 OFFCURVE",
"439 22 OFFCURVE",
"484 71 CURVE SMOOTH",
"528 120 OFFCURVE",
"554 187 OFFCURVE",
"557 258 CURVE"
);
},
{
closed = 1;
nodes = (
"537 197 OFFCURVE",
"513 135 OFFCURVE",
"473 88 CURVE SMOOTH",
"432 41 OFFCURVE",
"374 10 OFFCURVE",
"307 10 CURVE SMOOTH",
"267 10 OFFCURVE",
"216 29 OFFCURVE",
"176 58 CURVE SMOOTH",
"135 86 OFFCURVE",
"104 126 OFFCURVE",
"104 169 CURVE SMOOTH",
"104 356 LINE",
"124 396 OFFCURVE",
"152 433 OFFCURVE",
"188 461 CURVE SMOOTH",
"223 489 OFFCURVE",
"267 507 OFFCURVE",
"316 507 CURVE SMOOTH",
"381 507 OFFCURVE",
"436 477 OFFCURVE",
"476 431 CURVE SMOOTH",
"515 385 OFFCURVE",
"537 322 OFFCURVE",
"537 258 CURVE SMOOTH"
);
}
);
width = 603;
}
);
leftKerningGroup = b;
note = thorn;
rightKerningGroup = b;
unicode = 00FE;
},
{
glyphname = ydieresis;
lastChange = "2017-05-18 07:11:10 +0000";
layers = (
{
layerId = "2CA66E5A-B467-404E-84AC-20A403DD408D";
paths = (
{
closed = 1;
nodes = (
"156 -223 OFFCURVE",
"186 -221 OFFCURVE",
"202 -186 CURVE SMOOTH",
"511 519 LINE",
"489 519 LINE",
"272 25 LINE",
"43 519 LINE",
"21 519 LINE",
"262 0 LINE",
"245 -39 OFFCURVE",
"231 -71 OFFCURVE",
"220 -95 CURVE SMOOTH",
"209 -120 OFFCURVE",
"201 -139 OFFCURVE",
"195 -152 CURVE SMOOTH",
"189 -166 OFFCURVE",
"185 -176 OFFCURVE",
"182 -181 CURVE",
"179 -187 OFFCURVE",
"177 -191 OFFCURVE",
"175 -193 CURVE",
"168 -202 OFFCURVE",
"151 -203 OFFCURVE",
"128 -203 CURVE",
"128 -223 LINE"
);
},
{
closed = 1;
nodes = (
"224 730 LINE",
"204 730 LINE",
"204 653 LINE",
"224 653 LINE"
);
},
{
closed = 1;
nodes = (
"340 730 LINE",
"320 730 LINE",
"320 653 LINE",
"340 653 LINE"
);
}
);
width = 536;
}
);
leftKerningGroup = y;
note = ydieresis;
rightKerningGroup = y;
unicode = 00FF;
},
{
glyphname = Amacron;
lastChange = "2017-05-18 07:11:10 +0000";
layers = (
{
layerId = "2CA66E5A-B467-404E-84AC-20A403DD408D";
paths = (
{
closed = 1;
nodes = (
"40 0 LINE",
"151 254 LINE",
"522 254 LINE",
"633 0 LINE",
"655 0 LINE",
"346 710 LINE",
"328 710 LINE",
"18 0 LINE"
);
},
{
closed = 1;
nodes = (
"337 681 LINE",
"513 274 LINE",
"159 274 LINE"
);
},
{
closed = 1;
nodes = (
"477 894 LINE",
"197 894 LINE",
"197 874 LINE",
"477 874 LINE"
);
}
);
width = 674;
}
);
leftKerningGroup = A;
note = Amacron;
rightKerningGroup = A;
unicode = 0100;
},
{
glyphname = amacron;
lastChange = "2017-05-18 07:11:10 +0000";
layers = (
{
layerId = "2CA66E5A-B467-404E-84AC-20A403DD408D";
paths = (
{
closed = 1;
nodes = (
"298 -10 OFFCURVE",
"379 25 OFFCURVE",
"427 88 CURVE",
"427 40 LINE SMOOTH",
"427 31 OFFCURVE",
"429 24 OFFCURVE",
"433 17 CURVE SMOOTH",
"441 3 OFFCURVE",
"448 0 OFFCURVE",
"463 0 CURVE",
"463 20 LINE",
"452 20 OFFCURVE",
"447 27 OFFCURVE",
"447 40 CURVE SMOOTH",
"447 327 LINE SMOOTH",
"447 388 OFFCURVE",
"428 438 OFFCURVE",
"396 473 CURVE SMOOTH",
"363 508 OFFCURVE",
"314 527 OFFCURVE",
"257 527 CURVE SMOOTH",
"204 527 OFFCURVE",
"144 504 OFFCURVE",
"77 459 CURVE",
"89 443 LINE",
"148 484 OFFCURVE",
"206 507 OFFCURVE",
"257 507 CURVE SMOOTH",
"308 507 OFFCURVE",
"351 489 OFFCURVE",
"381 458 CURVE SMOOTH",
"411 426 OFFCURVE",
"427 380 OFFCURVE",
"427 327 CURVE SMOOTH",
"427 268 LINE",
"378 287 OFFCURVE",
"313 297 OFFCURVE",
"253 297 CURVE SMOOTH",
"190 297 OFFCURVE",
"137 282 OFFCURVE",
"99 256 CURVE SMOOTH",
"61 230 OFFCURVE",
"39 193 OFFCURVE",
"39 149 CURVE SMOOTH",
"39 105 OFFCURVE",
"58 65 OFFCURVE",
"88 37 CURVE SMOOTH",
"118 8 OFFCURVE",
"160 -10 OFFCURVE",
"207 -10 CURVE SMOOTH"
);
},
{
closed = 1;
nodes = (
"166 10 OFFCURVE",
"129 25 OFFCURVE",
"102 50 CURVE SMOOTH",
"75 75 OFFCURVE",
"59 110 OFFCURVE",
"59 149 CURVE SMOOTH",
"59 188 OFFCURVE",
"79 219 OFFCURVE",
"113 242 CURVE SMOOTH",
"147 265 OFFCURVE",
"194 277 OFFCURVE",
"253 277 CURVE SMOOTH",
"316 277 OFFCURVE",
"374 267 OFFCURVE",
"427 246 CURVE",
"427 143 LINE SMOOTH",
"427 130 OFFCURVE",
"422 116 OFFCURVE",
"412 102 CURVE",
"376 46 OFFCURVE",
"296 10 OFFCURVE",
"207 10 CURVE SMOOTH"
);
},
{
closed = 1;
nodes = (
"397 706 LINE",
"117 706 LINE",
"117 686 LINE",
"397 686 LINE"
);
}
);
width = 524;
}
);
leftKerningGroup = a;
note = amacron;
rightKerningGroup = a;
unicode = 0101;
},
{
glyphname = Abreve;
lastChange = "2017-05-18 07:11:10 +0000";
layers = (
{
layerId = "2CA66E5A-B467-404E-84AC-20A403DD408D";
paths = (
{
closed = 1;
nodes = (
"40 0 LINE",
"151 254 LINE",
"522 254 LINE",
"633 0 LINE",
"655 0 LINE",
"346 710 LINE",
"328 710 LINE",
"18 0 LINE"
);
},
{
closed = 1;
nodes = (
"337 681 LINE",
"513 274 LINE",
"159 274 LINE"
);
},
{
closed = 1;
nodes = (
"309 858 OFFCURVE",
"282 887 OFFCURVE",
"282 918 CURVE",
"263 918 LINE",
"263 898 OFFCURVE",
"272 879 OFFCURVE",
"286 865 CURVE SMOOTH",
"300 851 OFFCURVE",
"317 841 OFFCURVE",
"337 841 CURVE SMOOTH",
"357 841 OFFCURVE",
"375 851 OFFCURVE",
"389 865 CURVE SMOOTH",
"403 879 OFFCURVE",
"411 898 OFFCURVE",
"411 918 CURVE",
"393 918 LINE",
"389 885 OFFCURVE",
"364 858 OFFCURVE",
"337 858 CURVE SMOOTH"
);
}
);
width = 674;
}
);
leftKerningGroup = A;
note = Abreve;
rightKerningGroup = A;
unicode = 0102;
},
{
glyphname = abreve;
lastChange = "2017-05-18 07:11:10 +0000";
layers = (
{
layerId = "2CA66E5A-B467-404E-84AC-20A403DD408D";
paths = (
{
closed = 1;
nodes = (
"298 -10 OFFCURVE",
"379 25 OFFCURVE",
"427 88 CURVE",
"427 40 LINE SMOOTH",
"427 31 OFFCURVE",
"429 24 OFFCURVE",
"433 17 CURVE SMOOTH",
"441 3 OFFCURVE",
"448 0 OFFCURVE",
"463 0 CURVE",
"463 20 LINE",
"452 20 OFFCURVE",
"447 27 OFFCURVE",
"447 40 CURVE SMOOTH",
"447 327 LINE SMOOTH",
"447 388 OFFCURVE",
"428 438 OFFCURVE",
"396 473 CURVE SMOOTH",
"363 508 OFFCURVE",
"314 527 OFFCURVE",
"257 527 CURVE SMOOTH",
"204 527 OFFCURVE",
"144 504 OFFCURVE",
"77 459 CURVE",
"89 443 LINE",
"148 484 OFFCURVE",
"206 507 OFFCURVE",
"257 507 CURVE SMOOTH",
"308 507 OFFCURVE",
"351 489 OFFCURVE",
"381 458 CURVE SMOOTH",
"411 426 OFFCURVE",
"427 380 OFFCURVE",
"427 327 CURVE SMOOTH",
"427 268 LINE",
"378 287 OFFCURVE",
"313 297 OFFCURVE",
"253 297 CURVE SMOOTH",
"190 297 OFFCURVE",
"137 282 OFFCURVE",
"99 256 CURVE SMOOTH",
"61 230 OFFCURVE",
"39 193 OFFCURVE",
"39 149 CURVE SMOOTH",
"39 105 OFFCURVE",
"58 65 OFFCURVE",
"88 37 CURVE SMOOTH",
"118 8 OFFCURVE",
"160 -10 OFFCURVE",
"207 -10 CURVE SMOOTH"
);
},
{
closed = 1;
nodes = (
"166 10 OFFCURVE",
"129 25 OFFCURVE",
"102 50 CURVE SMOOTH",
"75 75 OFFCURVE",
"59 110 OFFCURVE",
"59 149 CURVE SMOOTH",
"59 188 OFFCURVE",
"79 219 OFFCURVE",
"113 242 CURVE SMOOTH",
"147 265 OFFCURVE",
"194 277 OFFCURVE",
"253 277 CURVE SMOOTH",
"316 277 OFFCURVE",
"374 267 OFFCURVE",
"427 246 CURVE",
"427 143 LINE SMOOTH",
"427 130 OFFCURVE",
"422 116 OFFCURVE",
"412 102 CURVE",
"376 46 OFFCURVE",
"296 10 OFFCURVE",
"207 10 CURVE SMOOTH"
);
},
{
closed = 1;
nodes = (
"229 670 OFFCURVE",
"202 699 OFFCURVE",
"202 730 CURVE",
"183 730 LINE",
"183 710 OFFCURVE",
"192 691 OFFCURVE",
"206 677 CURVE SMOOTH",
"220 663 OFFCURVE",
"237 653 OFFCURVE",
"257 653 CURVE SMOOTH",
"277 653 OFFCURVE",
"295 663 OFFCURVE",
"309 677 CURVE SMOOTH",
"323 691 OFFCURVE",
"331 710 OFFCURVE",
"331 730 CURVE",
"313 730 LINE",
"309 697 OFFCURVE",
"284 670 OFFCURVE",
"257 670 CURVE SMOOTH"
);
}
);
width = 524;
}
);
leftKerningGroup = a;
note = abreve;
rightKerningGroup = a;
unicode = 0103;
},
{
glyphname = Aogonek;
lastChange = "2017-05-18 07:11:10 +0000";
layers = (
{
layerId = "2CA66E5A-B467-404E-84AC-20A403DD408D";
paths = (
{
closed = 1;
nodes = (
"588 -136 OFFCURVE",
"573 -120 OFFCURVE",
"573 -95 CURVE SMOOTH",
"573 -64 OFFCURVE",
"594 -41 OFFCURVE",
"654 0 CURVE",
"345 710 LINE",
"327 710 LINE",
"17 0 LINE",
"39 0 LINE",
"150 254 LINE",
"521 254 LINE",
"630 5 LINE",
"574 -36 OFFCURVE",
"553 -65 OFFCURVE",
"553 -98 CURVE SMOOTH",
"553 -129 OFFCURVE",
"572 -151 OFFCURVE",
"605 -159 CURVE",
"617 -142 LINE"
);
},
{
closed = 1;
nodes = (
"336 681 LINE",
"512 274 LINE",
"158 274 LINE"
);
}
);
width = 673;
}
);
leftKerningGroup = A;
note = Aogonek;
rightKerningGroup = A;
unicode = 0104;
},
{
glyphname = aogonek;
lastChange = "2017-05-18 07:11:10 +0000";
layers = (
{
layerId = "2CA66E5A-B467-404E-84AC-20A403DD408D";
paths = (
{
closed = 1;
nodes = (
"397 -136 OFFCURVE",
"382 -120 OFFCURVE",
"382 -95 CURVE SMOOTH",
"382 -64 OFFCURVE",
"403 -41 OFFCURVE",
"463 0 CURVE",
"463 20 LINE",
"452 20 OFFCURVE",
"447 27 OFFCURVE",
"447 40 CURVE SMOOTH",
"447 327 LINE SMOOTH",
"447 388 OFFCURVE",
"428 438 OFFCURVE",
"396 473 CURVE SMOOTH",
"363 508 OFFCURVE",
"314 527 OFFCURVE",
"257 527 CURVE SMOOTH",
"204 527 OFFCURVE",
"144 504 OFFCURVE",
"77 459 CURVE",
"89 443 LINE",
"148 484 OFFCURVE",
"206 507 OFFCURVE",
"257 507 CURVE SMOOTH",
"308 507 OFFCURVE",
"351 489 OFFCURVE",
"381 458 CURVE SMOOTH",
"411 426 OFFCURVE",
"427 380 OFFCURVE",
"427 327 CURVE SMOOTH",
"427 268 LINE",
"378 287 OFFCURVE",
"313 297 OFFCURVE",
"253 297 CURVE SMOOTH",
"190 297 OFFCURVE",
"137 282 OFFCURVE",
"99 256 CURVE SMOOTH",
"61 230 OFFCURVE",
"39 193 OFFCURVE",
"39 149 CURVE SMOOTH",
"39 105 OFFCURVE",
"58 65 OFFCURVE",
"88 37 CURVE SMOOTH",
"118 8 OFFCURVE",
"160 -10 OFFCURVE",
"207 -10 CURVE SMOOTH",
"298 -10 OFFCURVE",
"379 25 OFFCURVE",
"427 88 CURVE",
"427 40 LINE SMOOTH",
"427 25 OFFCURVE",
"432 14 OFFCURVE",
"441 6 CURVE",
"384 -35 OFFCURVE",
"362 -65 OFFCURVE",
"362 -98 CURVE SMOOTH",
"362 -129 OFFCURVE",
"381 -151 OFFCURVE",
"414 -159 CURVE",
"426 -142 LINE"
);
},
{
closed = 1;
nodes = (
"166 10 OFFCURVE",
"129 25 OFFCURVE",
"102 50 CURVE SMOOTH",
"75 75 OFFCURVE",
"59 110 OFFCURVE",
"59 149 CURVE SMOOTH",
"59 188 OFFCURVE",
"79 219 OFFCURVE",
"113 242 CURVE SMOOTH",
"147 265 OFFCURVE",
"194 277 OFFCURVE",
"253 277 CURVE SMOOTH",
"316 277 OFFCURVE",
"374 267 OFFCURVE",
"427 246 CURVE",
"427 143 LINE SMOOTH",
"427 130 OFFCURVE",
"422 116 OFFCURVE",
"412 102 CURVE",
"376 46 OFFCURVE",
"296 10 OFFCURVE",
"207 10 CURVE SMOOTH"
);
}
);
width = 524;
}
);
leftKerningGroup = a;
note = aogonek;
rightKerningGroup = a;
unicode = 0105;
},
{
glyphname = Cacute;
lastChange = "2017-05-18 07:11:10 +0000";
layers = (
{
layerId = "2CA66E5A-B467-404E-84AC-20A403DD408D";
paths = (
{
closed = 1;
nodes = (
"48 269 OFFCURVE",
"83 178 OFFCURVE",
"141 110 CURVE SMOOTH",
"199 41 OFFCURVE",
"282 -6 OFFCURVE",
"378 -6 CURVE SMOOTH",
"431 -6 OFFCURVE",
"490 8 OFFCURVE",
"541 36 CURVE SMOOTH",
"592 64 OFFCURVE",
"635 106 OFFCURVE",
"659 159 CURVE",
"640 164 LINE",
"612 112 OFFCURVE",
"572 74 OFFCURVE",
"526 50 CURVE SMOOTH",
"480 26 OFFCURVE",
"429 14 OFFCURVE",
"382 14 CURVE SMOOTH",
"294 14 OFFCURVE",
"216 54 OFFCURVE",
"160 118 CURVE SMOOTH",
"103 181 OFFCURVE",
"68 266 OFFCURVE",
"68 357 CURVE SMOOTH",
"68 438 OFFCURVE",
"96 523 OFFCURVE",
"149 587 CURVE SMOOTH",
"202 651 OFFCURVE",
"280 694 OFFCURVE",
"379 694 CURVE SMOOTH",
"424 694 OFFCURVE",
"471 685 OFFCURVE",
"515 663 CURVE SMOOTH",
"558 641 OFFCURVE",
"595 605 OFFCURVE",
"623 553 CURVE",
"642 559 LINE",
"599 650 OFFCURVE",
"510 714 OFFCURVE",
"383 714 CURVE SMOOTH",
"276 714 OFFCURVE",
"192 668 OFFCURVE",
"136 601 CURVE SMOOTH",
"79 533 OFFCURVE",
"48 445 OFFCURVE",
"48 360 CURVE SMOOTH"
);
},
{
closed = 1;
nodes = (
"415 918 LINE",
"351 845 LINE",
"367 833 LINE",
"449 918 LINE"
);
}
);
width = 697;
}
);
leftKerningGroup = C;
note = Cacute;
rightKerningGroup = C;
unicode = 0106;
},
